<svg xmlns="http://www.w3.org/2000/svg">
	<symbol id="horizontal" preserveAspectRatio="xMinYMid" viewBox="0 0 1418.966 409.109">
    <g class="logotype">
      <path d="M469.7 162.9c-0.3 0-0.6 0.2-0.8 0.7l-4.6 12.1c-0.8 2.1-1.3 3.8-1.3 5.2 0 0.9 0.3 1.5 0.8 2 0.5 0.5 1.4 0.7 2.6 0.7h1.3c0.9 0 1.3 0.2 1.3 0.7 0 0.6-0.5 0.9-1.4 0.9 -1.1 0-2.6 0-4.6-0.1 -2.2-0.1-3.7-0.2-4.4-0.2 -0.2 0-0.8 0-1.9 0.1 -0.9 0-2.1 0-3.6 0.1 -1.6 0.1-3.1 0.1-4.5 0.1 -1.1 0-1.6-0.3-1.6-0.9 0-0.4 0.3-0.7 1-0.7 0.8 0 1.7-0.1 2.6-0.2 1.8-0.2 3.2-0.9 4.2-2.2 1-1.2 2-3 3-5.5l21.3-53.3c0.5-1.3 0.9-2.2 1.3-2.7 0.3-0.5 0.7-0.7 1.1-0.7 0.6 0 1.3 0.9 2.1 2.7 0.4 0.9 1.2 2.9 2.6 6.2 1.3 3.3 3 7.6 5.1 12.8 4.9 12.1 7.6 18.8 8.1 20.2 0.5 1.3 1.3 3.2 2.3 5.6 1 2.4 2 4.9 3.1 7.4 1.4 3.4 2.7 5.7 3.9 7 1.2 1.2 2.4 2 3.6 2.3 1.1 0.2 2.3 0.3 3.6 0.3 0.7 0 1.1 0.2 1.1 0.7 0 0.3-0.3 0.6-0.8 0.7 -0.5 0.1-1.6 0.2-3.1 0.2 -2.5 0-5 0-7.4 0 -2.4 0-5.3-0.1-8.6-0.2h-0.3c-1.5-0.1-2.2-0.3-2.2-0.7 0-0.4 0.4-0.7 1.2-0.8 0.6-0.2 0.9-0.6 0.9-1.3 0-0.2-0.1-0.4-0.2-0.7l-6.8-18c-0.2-0.4-0.5-0.6-0.8-0.6H469.7zM487.1 158.7c0.3 0 0.4-0.2 0.4-0.5l-7.6-21v-0.1c-0.1-0.5-0.3-0.7-0.4-0.7 -0.2 0-0.4 0.3-0.5 0.8l-7.8 20.9c0 0.4 0.1 0.6 0.3 0.6H487.1z" />
      <path d="M548.4 167.3c0 4.6 0.1 7.8 0.2 9.7 0.1 1.8 0.5 3 1.1 3.5 0.6 0.5 1.4 0.8 2.4 1 1 0.2 2.7 0.3 5 0.3 2 0 3.5-0.1 4.5-0.3 1.1-0.2 1.9-0.7 2.6-1.4 0.4-0.4 0.7-1 1-1.7 0.3-0.7 0.5-1.4 0.6-2 0.1-0.6 0.3-0.9 0.7-0.9 0.3 0 0.5 0.3 0.5 1 0 0.2 0 0.6-0.1 1.1 0 0.5-0.1 1.2-0.2 2.1 -0.1 0.9-0.2 1.6-0.3 2.3 -0.1 0.7-0.2 1.2-0.3 1.6 -0.2 0.7-0.5 1.1-0.9 1.3 -0.4 0.2-1.4 0.3-2.9 0.3 -2.2 0-4.1 0-5.7-0.1 -1.6 0-3.5-0.1-5.8-0.2 -2.7-0.1-4.8-0.1-6.3-0.1 -0.3 0-1.3 0-2.9 0.1 -2.4 0.1-4 0.1-4.8 0.1 -0.8 0-1.2-0.2-1.2-0.6 0-0.3 0.3-0.5 1-0.5 0.7 0 1.5-0.1 2.2-0.2 0.6-0.1 1-0.5 1.2-1 0.2-0.5 0.4-1.3 0.6-2.4 0.1-1.2 0.2-2.7 0.2-4.7 0-1.9 0.1-4.7 0.1-8.3v-10.8c0-4.9 0-8.1 0-9.4 0-1.3 0-2.5-0.1-3.5 -0.1-1.1-0.3-1.9-0.6-2.4 -0.3-0.5-1-0.9-2-1.1 -0.5-0.1-1.2-0.2-2-0.2 -0.7 0-1-0.2-1-0.5 0-0.4 0.4-0.6 1.3-0.6 1 0 2.7 0 5.3 0.1 1.7 0 2.8 0.1 3.1 0.1 0.3 0 1.4 0 3.2-0.1 2.6-0.1 4.3-0.1 5.1-0.1 0.9 0 1.3 0.2 1.3 0.6 0 0.4-0.4 0.5-1.1 0.5 -0.9 0-1.6 0.1-2.4 0.2 -0.8 0.2-1.4 0.5-1.7 1 -0.3 0.5-0.5 1.3-0.6 2.4 -0.1 1-0.1 2.2-0.1 3.5 0 1.3 0 4.5 0 9.4V167.3z" />
      <path d="M599 167.3c0 4.6 0.1 7.8 0.2 9.7 0.1 1.8 0.5 3 1.1 3.5 0.6 0.5 1.4 0.8 2.4 1 1 0.2 2.7 0.3 5 0.3 2 0 3.5-0.1 4.5-0.3 1.1-0.2 1.9-0.7 2.6-1.4 0.4-0.4 0.7-1 1-1.7 0.3-0.7 0.5-1.4 0.6-2 0.1-0.6 0.3-0.9 0.7-0.9 0.3 0 0.5 0.3 0.5 1 0 0.2 0 0.6-0.1 1.1 0 0.5-0.1 1.2-0.2 2.1 -0.1 0.9-0.2 1.6-0.3 2.3 -0.1 0.7-0.2 1.2-0.3 1.6 -0.2 0.7-0.5 1.1-0.9 1.3 -0.4 0.2-1.4 0.3-2.9 0.3 -2.2 0-4.1 0-5.7-0.1 -1.6 0-3.5-0.1-5.8-0.2 -2.7-0.1-4.8-0.1-6.3-0.1 -0.3 0-1.3 0-2.9 0.1 -2.4 0.1-4 0.1-4.8 0.1 -0.8 0-1.2-0.2-1.2-0.6 0-0.3 0.3-0.5 1-0.5 0.7 0 1.5-0.1 2.2-0.2 0.6-0.1 1-0.5 1.2-1 0.2-0.5 0.4-1.3 0.6-2.4 0.1-1.2 0.2-2.7 0.2-4.7 0-1.9 0.1-4.7 0.1-8.3v-10.8c0-4.9 0-8.1 0-9.4 0-1.3 0-2.5-0.1-3.5 -0.1-1.1-0.3-1.9-0.6-2.4 -0.3-0.5-1-0.9-2-1.1 -0.5-0.1-1.2-0.2-2-0.2 -0.7 0-1-0.2-1-0.5 0-0.4 0.4-0.6 1.3-0.6 1 0 2.7 0 5.3 0.1 1.7 0 2.8 0.1 3.1 0.1 0.3 0 1.4 0 3.2-0.1 2.6-0.1 4.3-0.1 5.1-0.1 0.9 0 1.3 0.2 1.3 0.6 0 0.4-0.4 0.5-1.1 0.5 -0.9 0-1.6 0.1-2.4 0.2 -0.8 0.2-1.4 0.5-1.7 1 -0.3 0.5-0.5 1.3-0.6 2.4 -0.1 1-0.1 2.2-0.1 3.5 0 1.3 0 4.5 0 9.4V167.3z" />
      <path d="M641.9 156.5c0-4.9 0-8.1 0-9.4 0-1.3 0-2.5-0.1-3.5 -0.1-1.1-0.3-1.9-0.6-2.4 -0.3-0.5-1-0.9-2-1.1 -0.5-0.1-1.3-0.2-2.4-0.2 -0.7 0-1-0.2-1-0.5 0-0.4 0.4-0.6 1.3-0.6 1 0 2.9 0 5.7 0.1 1.6 0 2.6 0.1 3.1 0.1 9.4 0 14.5 0 15.3-0.1 1.3-0.2 2.2-0.3 2.6-0.4 0.1 0 0.2 0 0.4-0.1 0.3-0.1 0.5-0.1 0.6-0.1 0.2 0 0.4 0.2 0.4 0.6 0 0.1 0 0.3-0.1 0.5 -0.2 1-0.3 2.2-0.4 3.4 0 0 0 0.5-0.1 1.3 0 0.6-0.1 1.1-0.1 1.6 0 0.5-0.1 0.9-0.1 1.1 -0.1 0.5-0.3 0.7-0.6 0.7 -0.4 0-0.6-0.3-0.6-0.9 0-0.3 0-0.7-0.1-1.1 -0.1-0.4-0.2-0.8-0.3-1.1 -0.2-0.6-0.6-1.1-1.2-1.4 -0.5-0.3-1.5-0.6-2.9-0.8 -0.2 0-0.7-0.1-1.4-0.1 -0.7 0-1.6-0.1-2.9-0.1 -1.9 0-3.3-0.1-4.4-0.1 -0.3 0-0.4 0.2-0.4 0.6v15.5c0 0.4 0.1 0.7 0.4 0.7 1.8 0 3.8 0 5.8 0 2 0 3.4-0.1 4-0.1 1.5-0.1 2.5-0.4 2.9-0.9 0 0 0.1-0.1 0.1-0.1 0.4-0.4 0.7-0.7 0.9-0.7 0.3 0 0.4 0.2 0.4 0.5 0 0 0 0.2-0.1 0.5 -0.2 1.1-0.3 2.4-0.4 3.9 0 0.5-0.1 1.3-0.1 2.2 -0.1 0.9-0.1 1.6-0.1 1.9 0 0.4 0 0.7-0.1 0.9 -0.1 0.2-0.2 0.3-0.5 0.3 -0.4 0-0.5-0.2-0.5-0.5 0-0.1 0-0.3-0.1-0.6 0-0.7-0.1-1.2-0.2-1.7 -0.2-0.6-0.5-1.2-1-1.6 -0.5-0.4-1.3-0.7-2.4-0.8 -0.2 0-0.8-0.1-1.5-0.1 -0.8 0-1.7 0-2.7 0 -2 0-3.4-0.1-4.5-0.1 -0.2 0-0.4 0.2-0.4 0.6v4.8 9.5c0 1.1 0.2 2 0.3 2.7 0.2 0.6 0.5 1.1 1 1.5 0.5 0.4 1.2 0.6 2.1 0.8 0.9 0.1 2.2 0.2 3.8 0.2 1.2 0 2.3 0 3.3-0.1 1-0.1 1.8-0.3 2.5-0.6 0.8-0.4 1.4-0.9 1.8-1.6 0.4-0.7 0.7-1.7 0.9-2.9 0.1-0.6 0.3-0.9 0.7-0.9 0.2 0 0.3 0.1 0.4 0.3 0.1 0.2 0.1 0.4 0.1 0.9 0 0.3 0 0.8-0.1 1.4 0 0.6-0.1 1.3-0.2 2.1 -0.1 0.8-0.2 1.5-0.3 2 -0.1 0.5-0.2 1-0.2 1.3 -0.2 0.8-0.5 1.2-0.9 1.4 -0.4 0.1-1.2 0.2-2.4 0.2 -2.4 0-4.5 0-6.2-0.1s-3.7-0.1-6.1-0.2c-2.2-0.1-3.7-0.1-4.6-0.1 -0.3 0-1.3 0-2.9 0.1 -2.4 0.1-4 0.1-4.8 0.1 -0.8 0-1.2-0.2-1.2-0.6 0-0.3 0.3-0.5 1-0.5 0.7 0 1.5-0.1 2.2-0.2 0.6-0.1 1-0.5 1.2-1 0.2-0.5 0.4-1.3 0.6-2.4 0.1-1.2 0.2-2.7 0.2-4.7 0-1.9 0.1-4.7 0.1-8.3V156.5z" />
      <path d="M694.1 156.5c0-4.9 0-8.1 0-9.4 0-1.3 0-2.5-0.1-3.5 -0.1-1.1-0.3-1.9-0.6-2.4 -0.3-0.5-1-0.9-2-1.1 -0.5-0.1-1.3-0.2-2.4-0.2 -0.7 0-1-0.2-1-0.5 0-0.4 0.5-0.6 1.3-0.6 0.9 0 1.7 0 2.4 0 0.8 0 1.9 0.1 3.5 0.1 1.4 0 2.2 0.1 2.4 0.1 0.7 0 2.2 0 4.5-0.1 2.2 0 3.5-0.1 4.1-0.1 2.3 0 4.4 0.2 6.2 0.6 1.9 0.4 3.5 1.1 5 2.1 1 0.7 2 1.8 2.8 3.3 0.9 1.5 1.3 3.2 1.3 5.1 0 2.4-0.6 4.7-1.8 6.9 -1.2 2.2-3.3 4.4-6.3 6.8l2.1 2.7c5.3 6.7 9.1 11.2 11.1 13.4 1.5 1.5 2.7 2.5 3.8 3.1 1.1 0.6 2.1 0.9 3 1.1h0.1c0.7 0.1 1.3 0.2 1.7 0.2 0.5 0 0.7 0.2 0.7 0.5 0 0.4-0.4 0.6-1.2 0.6h-5.8c-1.7 0-3-0.1-3.9-0.2 -0.9-0.2-1.8-0.5-2.6-0.9 -1.2-0.6-2.4-1.6-3.7-3 -1.2-1.3-2.8-3.3-4.7-6 -0.8-1.1-1.9-2.6-3.1-4.4 -1.1-1.6-1.9-2.6-2.2-3 -0.3-0.4-0.6-0.8-0.8-1 -0.2-0.3-0.6-0.4-1.1-0.4l-5.3-0.1c-0.3 0-0.5 0.2-0.5 0.5v0.9c0 3.6 0 6.4 0.1 8.4 0 2 0.1 3.5 0.2 4.7 0.1 1 0.3 1.8 0.6 2.4 0.3 0.6 0.9 0.9 1.7 1 0.5 0 1 0.1 1.6 0.1 0.5 0.1 1 0.1 1.4 0.1 0.5 0 0.7 0.2 0.7 0.5 0 0.4-0.4 0.6-1.2 0.6 -0.8 0-1.7 0-2.6 0 -0.9 0-2.4 0-4.5-0.1 -1 0-1.7-0.1-2-0.1 -0.3 0-1.2 0-2.5 0.1 -2.2 0.1-3.9 0.1-5 0.1 -0.8 0-1.2-0.2-1.2-0.6 0-0.3 0.3-0.5 1-0.5 0.7 0 1.5-0.1 2.2-0.2 0.6-0.1 1-0.5 1.2-1 0.2-0.5 0.4-1.3 0.6-2.4 0.1-1.2 0.2-2.7 0.2-4.7 0-1.9 0.1-4.7 0.1-8.3V156.5zM701.3 161.4c0 0.6 0.2 0.9 0.6 1.1 0.6 0.2 1.3 0.4 2.2 0.5 0.8 0.1 1.7 0.2 2.5 0.2 1.2 0 2.1-0.1 2.6-0.2 0.6-0.1 1.1-0.4 1.7-0.8 1.1-0.8 1.9-1.9 2.6-3.4 0.7-1.5 1-3.4 1-5.7 0-2-0.3-3.8-0.9-5.3 -0.6-1.5-1.4-2.6-2.3-3.5 -1-0.9-2-1.5-3.1-1.9 -1.1-0.4-2.1-0.5-3.1-0.5 -1.6 0-2.7 0.1-3.2 0.2 -0.4 0.1-0.6 0.4-0.6 0.9V161.4z" />
      <path d="M790.7 180.9c0 0.8 0 1.3-0.1 1.6 -0.1 0.2-0.3 0.4-0.7 0.6 -1.8 0.9-4.1 1.6-6.7 2.1 -2.7 0.5-5.3 0.7-8 0.7 -3.9 0-7.5-0.5-10.9-1.4 -3.4-0.9-6.4-2.4-9-4.3 -2.6-2-4.7-4.5-6.1-7.5s-2.2-6.6-2.2-10.7c0-4.6 1-8.6 3-12 2-3.5 4.6-6.1 7.6-7.9 2.7-1.6 5.3-2.7 7.9-3.2 2.6-0.5 5.5-0.8 8.6-0.8 1 0 2.1 0 3.1 0.1 1.1 0.1 2.2 0.2 3.3 0.3 1.1 0.1 2.1 0.2 2.8 0.3 0.7 0.1 1.3 0.2 1.6 0.3 0.8 0.2 1.7 0.3 2.6 0.4 0.9 0.1 1.7 0.2 2.3 0.2 0.6 0 0.9 0.3 0.9 0.7 0 0.1 0 0.3-0.1 0.7 -0.1 0.9-0.2 2-0.2 3.4 -0.1 1.4-0.1 3.4-0.1 6 0 0.9-0.2 1.3-0.7 1.3 -0.3 0-0.5-0.3-0.6-0.8 -0.1-1-0.3-1.9-0.6-2.7 -0.3-0.8-0.8-1.6-1.5-2.4 -1.1-1.2-2.9-2.3-5.3-3.3 -2.4-1-5.2-1.5-8.3-1.5 -2.2 0-4.3 0.2-6.3 0.7 -2 0.5-3.9 1.5-5.8 3.1 -1.8 1.5-3.2 3.5-4.2 5.9 -1 2.4-1.5 5.5-1.5 9.1 0 3.3 0.5 6.3 1.5 9.1 1 2.8 2.4 5.3 4.3 7.3 1.9 2.1 4.1 3.7 6.8 4.8 2.6 1.1 5.5 1.7 8.7 1.7 1.1 0 2.1 0 3-0.1 0.8-0.1 1.6-0.3 2.2-0.5 0.8-0.4 1.2-1.1 1.2-2.3v-5.8c0-3.6 0-6-0.1-7.2 0-1.1-0.2-1.9-0.6-2.4 -0.4-0.5-1-0.9-2-1.1 -0.5-0.1-1.3-0.2-2.4-0.2 -0.6 0-0.9-0.2-0.9-0.5 0-0.4 0.4-0.6 1.3-0.6 1.1 0 3 0 5.6 0.1 1.8 0 2.9 0.1 3.3 0.1 0.5 0 1.7 0 3.5-0.1 1.6 0 2.9-0.1 3.7-0.1 0.8 0 1.2 0.2 1.2 0.6 0 0.3-0.3 0.5-0.8 0.5 -0.4 0-0.9 0.1-1.6 0.2 -0.8 0.2-1.4 0.5-1.7 1 -0.3 0.5-0.5 1.4-0.6 2.4 0 1.2-0.1 3.7-0.1 7.3V180.9z" />
      <path d="M828.2 169.2c0-1.5-0.1-2.6-0.3-3.5 -0.2-0.8-0.6-1.8-1.1-3 -0.1-0.2-0.6-1.1-1.5-2.7 -0.9-1.6-2-3.3-3.3-5.4 -1.2-2-2.4-3.9-3.5-5.7 -1.1-1.8-1.9-3-2.5-3.9 -1.5-2.2-2.9-3.7-4.2-4.5 -0.4-0.2-0.8-0.4-1.3-0.5 -0.5-0.2-0.9-0.2-1.3-0.2 -0.6 0-0.9-0.2-0.9-0.5 0-0.4 0.4-0.6 1.2-0.6 0.2 0 1.1 0 2.8 0.1 2.6 0.1 4.2 0.1 4.9 0.1 0.4 0 1.1 0 2.1-0.1 1.8-0.1 3.3-0.1 4.5-0.1 0.6 0 0.9 0.2 0.9 0.6 0 0.2-0.3 0.4-1 0.6 -0.1 0-0.2 0-0.3 0.1 -0.6 0.1-0.9 0.5-0.9 1.1 0 0.4 0.2 1.1 0.7 2.1 0.2 0.5 0.6 1.2 1.2 2.2 0.6 1 1.5 2.7 2.8 5 1.3 2.3 2.3 4.1 3 5.3 0.7 1.2 1.4 2.4 2.2 3.7l1.2 2.1c0.1-0.3 0.6-1.3 1.5-2.8 0.9-1.6 1.9-3.4 3-5.5 1.1-1.9 2.1-3.7 3-5.4 0.9-1.7 1.5-2.7 1.7-3.1 0.6-1.3 0.9-2.3 0.9-3.2 0-0.4-0.1-0.7-0.3-0.9 -0.2-0.3-0.5-0.5-1-0.6 -0.4-0.1-0.6-0.2-0.8-0.2 -0.2-0.1-0.3-0.2-0.3-0.4 0-0.4 0.3-0.6 1-0.6 0.7 0 1.8 0 3.1 0.1 1.2 0 2.1 0.1 2.7 0.1 0.5 0 1.7 0 3.5-0.1 1.7 0 2.7-0.1 3.1-0.1 0.7 0 1.1 0.2 1.1 0.5 0 0.4-0.4 0.6-1.2 0.6 -0.3 0-0.7 0.1-1.3 0.2 -0.5 0.1-1 0.3-1.4 0.6 -0.6 0.3-1.1 0.6-1.6 1 -0.4 0.4-1 1.1-1.7 2 -0.5 0.6-1.3 1.7-2.4 3.5 -1.1 1.8-2.4 3.8-3.7 6.1 -1.4 2.3-2.6 4.3-3.6 6.1 -1 1.8-1.7 3.1-2 3.7 -0.4 1-0.7 1.9-0.8 2.8 -0.1 0.9-0.1 2-0.1 3.3v5c0 0.9 0 1.9 0 2.9 0 1.1 0.1 2.1 0.2 3.2 0.1 1 0.3 1.8 0.7 2.3 0.4 0.6 1 0.9 1.8 1 0.4 0 1 0.1 1.5 0.1 0.6 0.1 1.1 0.1 1.5 0.1 0.7 0 1 0.2 1 0.5 0 0.4-0.4 0.6-1.3 0.6 -1.6 0-3.8 0-6.5-0.1 -1.3 0-2.3-0.1-2.9-0.1 -0.5 0-1.5 0-3.1 0.1 -2.2 0.1-3.7 0.1-4.5 0.1 -0.9 0-1.3-0.2-1.3-0.6 0-0.3 0.3-0.5 1-0.5 0.7 0 1.4-0.1 2.1-0.2 0.6-0.1 1-0.5 1.3-1.1 0.3-0.6 0.5-1.4 0.6-2.3 0.1-1.1 0.1-2.1 0.2-3.2 0-1.1 0-2 0-2.9V169.2z" />
      <path d="M915.1 162.9c-0.3 0-0.6 0.2-0.8 0.7l-4.6 12.1c-0.8 2.1-1.3 3.8-1.3 5.2 0 0.9 0.3 1.5 0.8 2 0.5 0.5 1.4 0.7 2.6 0.7h1.3c0.9 0 1.3 0.2 1.3 0.7 0 0.6-0.5 0.9-1.4 0.9 -1.1 0-2.6 0-4.6-0.1 -2.2-0.1-3.7-0.2-4.4-0.2 -0.2 0-0.8 0-1.9 0.1 -0.9 0-2.1 0-3.6 0.1 -1.6 0.1-3.1 0.1-4.5 0.1 -1.1 0-1.6-0.3-1.6-0.9 0-0.4 0.3-0.7 1-0.7 0.9 0 1.7-0.1 2.6-0.2 1.8-0.2 3.2-0.9 4.2-2.2 1-1.2 2-3 3-5.5l21.3-53.3c0.5-1.3 0.9-2.2 1.3-2.7 0.3-0.5 0.7-0.7 1.1-0.7 0.6 0 1.3 0.9 2.1 2.7 0.4 0.9 1.2 2.9 2.5 6.2 1.3 3.3 3 7.6 5.1 12.8 4.9 12.1 7.6 18.8 8.1 20.2 0.5 1.3 1.3 3.2 2.3 5.6 1 2.4 2 4.9 3.1 7.4 1.4 3.4 2.7 5.7 3.9 7 1.2 1.2 2.4 2 3.6 2.3 1.1 0.2 2.3 0.3 3.6 0.3 0.7 0 1.1 0.2 1.1 0.7 0 0.3-0.3 0.6-0.8 0.7 -0.5 0.1-1.6 0.2-3.1 0.2 -2.5 0-5 0-7.4 0 -2.4 0-5.3-0.1-8.6-0.2h-0.3c-1.5-0.1-2.2-0.3-2.2-0.7 0-0.4 0.4-0.7 1.2-0.8 0.6-0.2 0.9-0.6 0.9-1.3 0-0.2-0.1-0.4-0.2-0.7l-6.8-18c-0.2-0.4-0.5-0.6-0.9-0.6H915.1zM932.4 158.7c0.3 0 0.4-0.2 0.4-0.5l-7.6-21v-0.1c-0.1-0.5-0.3-0.7-0.4-0.7 -0.2 0-0.4 0.3-0.5 0.8l-7.8 20.9c0 0.4 0.1 0.6 0.3 0.6H932.4z" />
      <path d="M986.9 185.5c-1.4-0.2-2.8-0.7-4.1-1.2 -0.5-0.2-0.8-0.4-0.9-0.7 -0.1-0.3-0.2-0.7-0.2-1.4 0-1.2 0-2.5 0.1-3.9 0.1-1.4 0.1-2.7 0.2-3.9v-0.2c0.1-1.1 0.3-1.6 0.7-1.6 0.2 0 0.4 0.1 0.5 0.3 0.1 0.2 0.1 0.4 0.1 0.8 0 0.4 0.1 0.8 0.2 1.4 0.1 0.6 0.2 1.1 0.4 1.7 0.7 2.1 1.8 3.7 3.3 4.7 1.6 1 3.4 1.5 5.4 1.5 2.6 0 4.6-0.7 6-2.1 1.5-1.4 2.2-3 2.2-4.8 0-1.7-0.4-3.3-1.2-4.8 -0.8-1.5-2.4-3.2-4.8-5l-2.8-2.2c-3.3-2.6-5.6-5-7-7.3 -1.4-2.3-2.1-4.7-2.1-7.2 0-3.4 1.3-6.2 3.9-8.3 2.6-2.2 6-3.2 10.2-3.2 1.7 0 3.3 0.1 4.6 0.3 1.3 0.2 2.5 0.4 3.6 0.7 0.6 0.1 0.9 0.4 0.9 0.7 0 0.2 0 0.5-0.1 1 0 0.8-0.1 1.8-0.1 2.8 0 1.1-0.1 2.2-0.1 3.5 0 1.2-0.2 1.8-0.7 1.8 -0.4 0-0.6-0.4-0.6-1.1 0-0.4-0.1-1.1-0.4-1.8 -0.2-0.8-0.7-1.5-1.2-2.2 -0.7-0.8-1.5-1.5-2.5-2.1 -1-0.6-2.4-0.9-4.2-0.9 -2.2 0-4 0.6-5.3 1.7 -1.3 1.2-2 2.7-2 4.6 0 1.4 0.5 2.8 1.4 4.1 0.9 1.3 2.6 2.9 5.1 4.7l1.7 1.3c3.7 2.9 6.3 5.4 7.8 7.8 1.5 2.3 2.3 4.9 2.3 7.8 0 2-0.4 3.9-1.3 5.8 -0.9 1.9-2.4 3.5-4.4 4.8 -1.4 0.9-3 1.5-4.6 1.9 -1.6 0.4-3.3 0.6-5.1 0.6S988.3 185.8 986.9 185.5z" />
      <path d="M1043.4 142.2l-9.1 0.2c-1.8 0.1-3.2 0.2-4 0.5 -0.8 0.2-1.5 0.7-1.9 1.3 -0.5 0.8-0.9 1.5-1 2.1 -0.1 0.5-0.3 0.7-0.7 0.7 -0.4 0-0.5-0.3-0.5-1 0-0.2 0.1-0.6 0.2-1.3 0.1-0.7 0.2-1.4 0.4-2.4 0.2-0.9 0.3-1.7 0.5-2.4 0.1-0.6 0.2-1 0.2-1 0.2-0.8 0.4-1.2 0.7-1.2 0.1 0 0.3 0.1 0.7 0.2 0.7 0.3 1.3 0.5 2 0.5 0.9 0.1 1.8 0.2 2.9 0.2 1.1 0.1 2.2 0.1 3.2 0.1h24.2c1.3 0 2.7-0.1 4.2-0.3h0.1l0.7-0.1c0.5-0.1 0.9-0.2 1-0.2 0.3 0 0.5 0.4 0.5 1.3 0 0.4 0 1.4-0.1 3.2 -0.1 2-0.1 3.3-0.1 3.9 -0.1 0.7-0.3 1-0.5 1 -0.4 0-0.6-0.4-0.7-1.2l-0.1-0.7c-0.1-0.9-0.7-1.7-1.8-2.4 -1.1-0.7-2.9-1-5.4-1l-7.7-0.2V167.3c0 3.6 0 6.4 0.1 8.3 0 1.9 0.1 3.5 0.2 4.7 0.1 1 0.3 1.7 0.6 2.3 0.3 0.6 0.9 0.9 1.7 1 0.4 0 1 0.1 1.5 0.1 0.6 0.1 1.1 0.1 1.6 0.1 0.7 0 1 0.2 1 0.5 0 0.4-0.4 0.6-1.2 0.6 -1.7 0-3.9 0-6.7-0.1 -1.4 0-2.4-0.1-2.9-0.1 -0.3 0-1.3 0-2.9 0.1 -2.4 0.1-4 0.1-4.8 0.1 -0.8 0-1.2-0.2-1.2-0.6 0-0.3 0.3-0.5 1-0.5 0.7 0 1.5-0.1 2.2-0.2 0.6-0.1 1-0.5 1.2-1 0.2-0.5 0.4-1.3 0.5-2.4 0.1-1.2 0.2-2.7 0.2-4.7 0-1.9 0.1-4.7 0.1-8.3V142.2z" />
      <path d="M1123.7 158.2c0.2 0 0.4-0.1 0.4-0.4v-1.3c0-4.9 0-8.1 0-9.4 0-1.3 0-2.5-0.1-3.5 -0.1-1.1-0.3-1.9-0.6-2.4 -0.3-0.5-1-0.9-2-1.1 -0.5-0.1-1.3-0.2-2.4-0.2 -0.7 0-1-0.2-1-0.5 0-0.4 0.4-0.6 1.3-0.6 1.4 0 3.3 0 5.8 0.1 1.5 0 2.5 0.1 3 0.1 0.3 0 1.3 0 3-0.1 2.4-0.1 3.9-0.1 4.7-0.1 0.9 0 1.3 0.2 1.3 0.6 0 0.4-0.4 0.5-1.1 0.5 -0.4 0-1 0.1-1.8 0.2 -0.8 0.2-1.4 0.5-1.7 1 -0.3 0.5-0.5 1.3-0.6 2.4 -0.1 1-0.1 2.2-0.1 3.5 0 1.3 0 4.5 0 9.4V167.3c0 3.6 0 6.4 0.1 8.3 0 1.9 0.1 3.5 0.3 4.7 0.1 1 0.3 1.7 0.6 2.3 0.3 0.6 0.9 0.9 1.7 1 0.4 0 1 0.1 1.5 0.1 0.6 0.1 1.1 0.1 1.6 0.1 0.7 0 1 0.2 1 0.5 0 0.4-0.4 0.6-1.2 0.6 -1.6 0-3.8 0-6.6-0.1 -1.4 0-2.4-0.1-2.9-0.1 -0.3 0-1.3 0-2.9 0.1 -2.4 0.1-4 0.1-4.8 0.1 -0.9 0-1.3-0.2-1.3-0.6 0-0.3 0.3-0.5 1-0.5 0.7 0 1.5-0.1 2.2-0.2 0.6-0.1 1-0.5 1.2-1 0.2-0.5 0.4-1.3 0.6-2.4 0.1-1.2 0.2-2.7 0.2-4.7 0-1.9 0.1-4.7 0.1-8.3v-5.4c0-0.2-0.1-0.4-0.4-0.4h-23.4c-0.2 0-0.4 0.1-0.4 0.4v5.4c0 3.6 0 6.4 0.1 8.3 0 1.9 0.1 3.5 0.2 4.7 0.1 1 0.3 1.7 0.6 2.3 0.3 0.6 0.9 0.9 1.7 1 0.4 0 1 0.1 1.5 0.1 0.6 0.1 1.1 0.1 1.6 0.1 0.7 0 1 0.2 1 0.5 0 0.4-0.4 0.6-1.2 0.6 -1.6 0-3.8 0-6.6-0.1 -1.4 0-2.4-0.1-2.9-0.1 -0.3 0-1.3 0-2.9 0.1 -2.4 0.1-4 0.1-4.8 0.1 -0.8 0-1.2-0.2-1.2-0.6 0-0.3 0.3-0.5 1-0.5 0.7 0 1.5-0.1 2.2-0.2 0.6-0.1 1-0.5 1.2-1 0.2-0.5 0.4-1.3 0.6-2.4 0.1-1.2 0.2-2.7 0.2-4.7 0-1.9 0.1-4.7 0.1-8.3v-10.8c0-4.9 0-8.1 0-9.4 0-1.3 0-2.5-0.1-3.5 -0.1-1.1-0.3-1.9-0.6-2.4 -0.4-0.5-1-0.9-2-1.1 -0.5-0.1-1.3-0.2-2.4-0.2 -0.7 0-1-0.2-1-0.5 0-0.4 0.4-0.6 1.3-0.6 1.4 0 3.3 0 5.8 0.1 1.5 0 2.5 0.1 3 0.1 0.3 0 1.3 0 3-0.1 2.4-0.1 3.9-0.1 4.7-0.1 0.9 0 1.3 0.2 1.3 0.6 0 0.4-0.4 0.5-1.1 0.5 -0.5 0-1 0.1-1.8 0.2 -0.8 0.2-1.4 0.5-1.7 1 -0.3 0.5-0.5 1.3-0.6 2.4 -0.1 1-0.1 2.2-0.1 3.5 0 1.3 0 4.5 0 9.4v1.3c0 0.3 0.1 0.4 0.4 0.4H1123.7z" />
      <path d="M1167.6 139c0.2-1.1 0.6-1.6 1-1.6 0.2 0 0.5 0.1 0.7 0.4 0.2 0.3 0.6 0.8 0.9 1.5l16.7 34.5 16.6-34.9c0.5-1 0.9-1.5 1.3-1.5 0.6 0 0.9 0.6 1.1 1.9l5.6 37.8c0.3 2 0.6 3.5 1 4.4 0.4 0.9 1.1 1.5 2 1.8 1.3 0.4 2.6 0.6 3.8 0.6 0.7 0 1 0.1 1 0.4 0 0.4-0.5 0.7-1.6 0.7 -0.9 0-2.9 0-5.9-0.1 -1.8 0-3.2-0.1-4.2-0.1 -0.9 0-1.7-0.1-2.4-0.1 -0.7-0.1-1.2-0.2-1.4-0.2 -0.2-0.1-0.4-0.2-0.4-0.4 0-0.2 0.2-0.5 0.7-0.7 0.3-0.1 0.4-0.5 0.4-1.3 0-0.4 0-0.9-0.1-1.3l-3.7-26.9h-0.2l-13.3 27.8c-0.7 1.5-1.2 2.4-1.5 2.8 -0.2 0.4-0.5 0.6-0.8 0.6 -0.3 0-1-0.9-2-2.7 -0.1-0.2-0.1-0.3-0.2-0.4 -1.6-3.1-2.9-5.5-3.7-7.1 -0.8-1.6-1.5-3-2.2-4.3 -0.6-1.2-1-2.1-1.2-2.5 -0.2-0.5-0.8-1.7-1.6-3.6 -0.9-1.9-1.4-3.1-1.8-3.8 -0.9-1.8-1.5-3.1-1.8-3.9 -0.4-0.8-0.7-1.6-1.1-2.3h-0.2l-3.2 24.3c-0.1 1.1-0.2 2.1-0.2 2.9 0 0.5 0.2 1 0.5 1.3 0.3 0.3 0.8 0.6 1.3 0.7 0.9 0.2 1.8 0.3 2.6 0.3 0.6 0 0.9 0.1 0.9 0.4 0 0.4-0.5 0.7-1.5 0.7 -1.1 0-2.5 0-4.5-0.1 -0.9 0-1.6-0.1-2-0.1 -0.3 0-1.1 0-2.3 0.1 -1.8 0.1-3.1 0.1-3.7 0.1 -0.7 0-1.1-0.2-1.1-0.7 0-0.3 0.3-0.4 1-0.4 0.6 0 1.2-0.1 1.8-0.2 0.8-0.2 1.3-0.7 1.7-1.5 0.3-0.9 0.6-2 0.8-3.3L1167.6 139z" />
      <path d="M1245.7 169.1c-0.2 0-0.4 0.2-0.5 0.5l-3.3 8.7c-0.6 1.5-0.9 2.8-0.9 3.7 0 0.6 0.2 1.1 0.6 1.4 0.4 0.3 1 0.5 1.9 0.5h0.9c0.6 0 0.9 0.2 0.9 0.5 0 0.4-0.3 0.6-1 0.6 -0.8 0-1.9 0-3.3-0.1 -1.6-0.1-2.7-0.1-3.2-0.1 -0.1 0-0.6 0-1.3 0.1 -0.6 0-1.5 0-2.6 0.1 -1.1 0-2.2 0.1-3.3 0.1 -0.8 0-1.2-0.2-1.2-0.6 0-0.3 0.2-0.5 0.7-0.5 0.6 0 1.2 0 1.9-0.1 1.3-0.2 2.3-0.7 3.1-1.6 0.7-0.9 1.5-2.2 2.1-3.9l15.4-38.4c0.4-0.9 0.7-1.6 0.9-1.9 0.2-0.3 0.5-0.5 0.8-0.5 0.4 0 1 0.7 1.5 2 0.3 0.6 0.9 2.1 1.8 4.5 0.9 2.4 2.2 5.4 3.7 9.2 3.5 8.7 5.5 13.6 5.8 14.5 0.4 1 0.9 2.3 1.6 4 0.7 1.7 1.4 3.5 2.2 5.3 1 2.4 2 4.1 2.8 5 0.9 0.9 1.7 1.5 2.6 1.7 0.8 0.2 1.7 0.2 2.6 0.2 0.5 0 0.8 0.2 0.8 0.5 0 0.2-0.2 0.4-0.6 0.5 -0.4 0.1-1.1 0.1-2.3 0.1 -1.8 0-3.6 0-5.4 0 -1.7 0-3.8 0-6.2-0.1h-0.2c-1.1-0.1-1.6-0.2-1.6-0.5 0-0.3 0.3-0.5 0.9-0.6 0.4-0.1 0.7-0.4 0.7-0.9 0-0.2 0-0.3-0.1-0.5l-4.9-13c-0.1-0.3-0.3-0.4-0.6-0.4H1245.7zM1258.2 166c0.2 0 0.3-0.1 0.3-0.4l-5.5-15.1v-0.1c-0.1-0.3-0.2-0.5-0.3-0.5 -0.2 0-0.3 0.2-0.4 0.5l-5.6 15c0 0.3 0.1 0.4 0.2 0.4H1258.2z" />
      <path d="M463.4 281.2c-0.2 0-0.4 0.2-0.5 0.5l-3.3 8.7c-0.6 1.5-0.9 2.8-0.9 3.7 0 0.6 0.2 1.1 0.5 1.4 0.4 0.3 1 0.5 1.9 0.5h0.9c0.6 0 0.9 0.2 0.9 0.5 0 0.4-0.3 0.6-1 0.6 -0.8 0-1.9 0-3.3-0.1 -1.6-0.1-2.6-0.1-3.2-0.1 -0.1 0-0.6 0-1.3 0.1 -0.6 0-1.5 0-2.6 0.1 -1.1 0-2.2 0.1-3.3 0.1 -0.8 0-1.2-0.2-1.2-0.6 0-0.3 0.2-0.5 0.7-0.5 0.6 0 1.2 0 1.9-0.1 1.3-0.2 2.3-0.7 3.1-1.6 0.7-0.9 1.4-2.2 2.1-3.9l15.3-38.4c0.4-0.9 0.7-1.6 0.9-1.9 0.2-0.3 0.5-0.5 0.8-0.5 0.4 0 1 0.7 1.5 2 0.3 0.6 0.9 2.1 1.8 4.5 0.9 2.4 2.2 5.4 3.7 9.2 3.5 8.7 5.5 13.6 5.8 14.5 0.4 1 0.9 2.3 1.6 4 0.7 1.7 1.4 3.5 2.2 5.4 1 2.4 2 4.1 2.8 5 0.9 0.9 1.7 1.4 2.6 1.7 0.8 0.2 1.7 0.2 2.6 0.2 0.5 0 0.8 0.2 0.8 0.5 0 0.2-0.2 0.4-0.5 0.5 -0.4 0.1-1.1 0.1-2.3 0.1 -1.8 0-3.6 0-5.4 0 -1.7 0-3.8 0-6.2-0.1h-0.2c-1.1-0.1-1.6-0.2-1.6-0.5 0-0.3 0.3-0.5 0.9-0.6 0.4-0.1 0.7-0.4 0.7-0.9 0-0.2 0-0.3-0.1-0.5l-4.9-13c-0.1-0.3-0.3-0.4-0.6-0.4H463.4zM475.9 278.1c0.2 0 0.3-0.1 0.3-0.4l-5.5-15.1v-0.1c-0.1-0.3-0.2-0.5-0.3-0.5 -0.2 0-0.3 0.2-0.4 0.5l-5.6 15c0 0.3 0.1 0.4 0.2 0.4H475.9z" />
      <path d="M520.8 288.8c0 2.2 0.2 3.9 0.6 4.9 0.4 1 0.9 1.7 1.5 1.9 0.8 0.3 1.9 0.4 3.2 0.4 0.7 0 1 0.2 1 0.5 0 0.4-0.5 0.6-1.4 0.6 -1.7 0-3.7 0-5.9-0.1 -0.8 0-1.3-0.1-1.7-0.1 -0.2 0-0.5 0-1 0.1 -0.6 0-1.4 0-2.5 0.1 -1.1 0-2.1 0.1-3.1 0.1 -0.9 0-1.3-0.2-1.3-0.6 0-0.3 0.3-0.5 1-0.5 1.1 0 2.1-0.1 2.8-0.3 0.8-0.2 1.3-0.9 1.5-1.9 0.2-1 0.4-2.9 0.4-5.7l0.6-36.2c0-1.4 0.3-2.1 0.8-2.1 0.4 0 0.9 0.4 1.7 1.3 0.2 0.2 0.4 0.5 0.6 0.6 0 0 0.8 0.8 2.2 2.3 1.4 1.5 2.9 3.1 4.4 4.7 1.5 1.6 3.5 3.7 5.7 6 2.3 2.3 4.5 4.6 6.6 6.6 0.9 0.9 1.9 2 3 3.1 1.1 1.1 3.1 3.2 6 6.3 1.3 1.4 2.4 2.5 3.1 3.2 0.7 0.7 1.1 1.2 1.3 1.4h0.3l-0.6-27.5c0-1.8-0.2-3.1-0.5-3.9 -0.3-0.8-0.8-1.3-1.6-1.6 -0.4-0.2-0.8-0.3-1.4-0.3 -0.5 0-1.2-0.1-1.9-0.1 -0.7 0-1-0.2-1-0.5 0-0.2 0.1-0.3 0.4-0.4 0.3-0.1 0.7-0.1 1.2-0.1 1.3 0 3.1 0 5.3 0.1 1 0 1.7 0.1 2.1 0.1 0.1 0 0.5 0 1.1-0.1 1.9-0.1 3.5-0.1 4.9-0.1 0.5 0 0.8 0 1.1 0.1 0.2 0.1 0.3 0.2 0.3 0.4 0 0.4-0.4 0.5-1.1 0.5 -0.7 0-1.3 0.1-1.8 0.2 -0.9 0.2-1.4 0.8-1.7 1.5 -0.3 0.8-0.5 2-0.5 3.7l-0.7 38.6c0 1.3-0.3 1.9-0.8 1.9 -0.3 0-0.6-0.1-0.9-0.3 -0.3-0.2-0.7-0.6-1.2-1 -0.9-0.9-2.3-2.2-4-3.9 -1.7-1.7-3.7-3.7-5.9-5.9 -4-4-6.7-6.7-8.1-8.1 -1.3-1.2-2.5-2.5-3.9-3.9 -1.3-1.4-2.5-2.7-3.6-3.8 -1.1-1.1-2.2-2.4-3.5-3.7 -1.2-1.3-2-2.2-2.3-2.5 -0.9-0.9-1.3-1.4-1.3-1.5h-0.2L520.8 288.8z" />
      <path d="M588.8 268.7c0-4.9 0-8.1 0-9.4 0-1.3 0-2.5-0.1-3.5 -0.1-1.1-0.3-1.9-0.6-2.4 -0.3-0.5-1-0.9-2-1.1 -0.5-0.1-1.3-0.2-2.4-0.2 -0.7 0-1-0.2-1-0.5 0-0.4 0.4-0.5 1.3-0.5 1 0 2.9 0 5.7 0.1 1.6 0 2.6 0.1 3.1 0.1 0.6 0 1.7 0 3.2-0.1 2.9-0.1 5-0.1 6.2-0.1 2.6 0 4.9 0 6.9 0.1 1.9 0.1 4 0.4 6.1 0.8 2.1 0.4 4.2 1.1 6.2 2.1 2 1 3.8 2.3 5.4 3.9 1.8 1.8 3.2 4 4.3 6.6 1.1 2.6 1.7 5.6 1.7 8.9 0 3.6-0.6 6.8-1.9 9.8 -1.3 2.9-2.9 5.4-4.8 7.3 -0.8 0.8-1.8 1.6-3 2.4 -1.2 0.8-2.6 1.6-4.3 2.3 -1.7 0.7-3.6 1.3-5.9 1.8 -2.2 0.5-4.7 0.7-7.4 0.7 -1.1 0-2.2 0-3.3-0.1 -1.2-0.1-2.6-0.2-4.4-0.3 -2.6-0.2-4.4-0.3-5.3-0.3 -0.3 0-1.3 0-2.9 0.1 -2.4 0.1-4 0.1-4.8 0.1 -0.8 0-1.2-0.2-1.2-0.6 0-0.3 0.3-0.5 1-0.5 0.7 0 1.5-0.1 2.2-0.2 0.6-0.1 1-0.5 1.2-1 0.2-0.5 0.4-1.3 0.6-2.4 0.1-1.2 0.2-2.7 0.2-4.7 0-1.9 0.1-4.7 0.1-8.3V268.7zM596.5 275.4c0 3.3 0 6 0 8.2 0 2.2 0.1 3.5 0.1 4.2 0 1.1 0.1 2 0.2 2.9 0.1 0.9 0.3 1.5 0.5 1.7 0.4 0.7 1.3 1.2 2.7 1.7 1.3 0.5 3.1 0.7 5.3 0.7 3.1 0 5.8-0.3 8-1 2.2-0.7 4.2-1.8 6-3.4 1.8-1.6 3.1-3.7 3.9-6.2 0.8-2.6 1.2-5.6 1.2-9 0-3.5-0.6-6.6-1.7-9.1 -1.2-2.6-2.5-4.6-4.1-6.1 -1.3-1.3-2.8-2.3-4.3-3.1 -1.5-0.8-3-1.5-4.6-1.9 -1.5-0.4-3-0.7-4.3-0.9 -1.4-0.1-2.8-0.2-4.2-0.2 -0.7 0-1.4 0-2.3 0.1 -0.9 0.1-1.4 0.2-1.7 0.3 -0.5 0.2-0.7 0.6-0.7 1.2 0 1.4-0.1 5.5-0.1 12.2V275.4z" />
      <path d="M696.5 297.9c-2-0.3-3.9-0.9-5.7-1.7 -0.7-0.3-1.1-0.6-1.3-1 -0.2-0.4-0.3-1-0.3-1.9 0-1.7 0-3.5 0.1-5.4 0.1-1.9 0.2-3.7 0.3-5.5v-0.3c0.1-1.5 0.5-2.2 1-2.2 0.3 0 0.6 0.1 0.7 0.4 0.1 0.3 0.2 0.6 0.2 1.1 0 0.5 0.1 1.2 0.2 2 0.1 0.8 0.3 1.6 0.6 2.4 0.9 2.9 2.4 5.1 4.6 6.5 2.2 1.4 4.7 2.1 7.5 2.1 3.6 0 6.4-1 8.4-3 2-2 3-4.2 3-6.7 0-2.4-0.6-4.6-1.7-6.7 -1.1-2.1-3.3-4.4-6.6-6.9l-3.9-3.1c-4.5-3.6-7.8-6.9-9.7-10.1 -1.9-3.2-2.9-6.5-2.9-10 0-4.7 1.8-8.6 5.4-11.6s8.4-4.5 14.2-4.5c2.4 0 4.5 0.1 6.3 0.4 1.8 0.3 3.4 0.6 5 1 0.8 0.2 1.2 0.5 1.2 1 0 0.2 0 0.7-0.1 1.4 -0.1 1.1-0.1 2.4-0.2 3.9 -0.1 1.5-0.1 3.1-0.1 4.9 0 1.7-0.3 2.5-0.9 2.5 -0.6 0-0.9-0.5-0.9-1.5 0-0.6-0.2-1.5-0.5-2.5 -0.3-1.1-0.9-2.1-1.7-3.1 -0.9-1.1-2.1-2.1-3.5-2.9 -1.4-0.8-3.3-1.2-5.8-1.2 -3.1 0-5.5 0.8-7.3 2.4 -1.8 1.6-2.8 3.7-2.8 6.3 0 2 0.6 3.9 1.9 5.6 1.3 1.8 3.6 4 7.1 6.6l2.4 1.8c5.1 4 8.7 7.6 10.8 10.8 2.1 3.2 3.1 6.8 3.1 10.9 0 2.8-0.6 5.5-1.9 8.1 -1.2 2.6-3.3 4.8-6.1 6.7 -2 1.3-4.1 2.1-6.4 2.7 -2.3 0.5-4.6 0.8-7.1 0.8S698.5 298.2 696.5 297.9z" />
      <path d="M759.9 268.7c0-4.9 0-8.1 0-9.4 0-1.3 0-2.5-0.1-3.5 -0.1-2-0.8-3.1-2.1-3.4 -0.6-0.2-1.3-0.2-2.2-0.2 -0.7 0-1-0.2-1-0.6 0-0.3 0.5-0.5 1.5-0.5 0.8 0 2.3 0 4.5 0.1 1.7 0 2.9 0.1 3.5 0.1 0.5 0 1.5 0 3-0.1 2.1-0.1 3.6-0.1 4.5-0.1s1.3 0.2 1.3 0.5c0 0.4-0.3 0.6-1 0.6 -0.5 0-1.1 0.1-1.8 0.2 -0.8 0.2-1.4 0.5-1.7 1 -0.3 0.5-0.5 1.3-0.6 2.4 -0.1 1-0.1 2.2-0.1 3.5 0 1.3 0 4.5 0 9.4v10.8c0 3.8 0 6.7 0 8.7 0 2 0.1 3.6 0.2 4.7 0.1 0.9 0.3 1.6 0.7 2.1 0.3 0.5 0.9 0.8 1.8 0.9 0.4 0 1 0.1 1.5 0.2 0.6 0.1 1.1 0.1 1.6 0.1 0.7 0 1 0.2 1 0.5 0 0.4-0.4 0.6-1.2 0.6 -1.7 0-4 0-6.7-0.1 -1.3 0-2.2-0.1-2.8-0.1 -0.3 0-1.3 0-2.9 0.1 -2.4 0.1-4 0.1-4.8 0.1 -0.8 0-1.2-0.2-1.2-0.6 0-0.3 0.3-0.5 1-0.5 0.7 0 1.5-0.1 2.2-0.2 1-0.2 1.6-1.2 1.8-3.1 0.1-1.2 0.2-2.8 0.2-4.7 0-2 0.1-4.8 0.1-8.6V268.7z" />
      <path d="M804.5 288.8c0 2.2 0.2 3.9 0.6 4.9 0.4 1 0.9 1.7 1.5 1.9 0.8 0.3 1.9 0.4 3.2 0.4 0.7 0 1 0.2 1 0.5 0 0.4-0.5 0.6-1.4 0.6 -1.7 0-3.7 0-5.9-0.1 -0.8 0-1.3-0.1-1.7-0.1 -0.2 0-0.5 0-1 0.1 -0.6 0-1.4 0-2.5 0.1 -1.1 0-2.1 0.1-3.1 0.1 -0.9 0-1.3-0.2-1.3-0.6 0-0.3 0.3-0.5 1-0.5 1.1 0 2.1-0.1 2.7-0.3 0.8-0.2 1.3-0.9 1.5-1.9 0.2-1 0.4-2.9 0.4-5.7l0.6-36.2c0-1.4 0.3-2.1 0.8-2.1 0.4 0 0.9 0.4 1.7 1.3 0.2 0.2 0.4 0.5 0.6 0.6 0 0 0.8 0.8 2.2 2.3 1.4 1.5 2.9 3.1 4.4 4.7 1.6 1.6 3.5 3.7 5.7 6 2.3 2.3 4.5 4.6 6.6 6.6 0.9 0.9 1.9 2 3 3.1 1.1 1.1 3.1 3.2 6 6.3 1.3 1.4 2.4 2.5 3.1 3.2 0.7 0.7 1.1 1.2 1.4 1.4h0.3l-0.6-27.5c0-1.8-0.2-3.1-0.5-3.9 -0.3-0.8-0.8-1.3-1.6-1.6 -0.4-0.2-0.8-0.3-1.4-0.3 -0.6 0-1.2-0.1-1.9-0.1 -0.7 0-1-0.2-1-0.5 0-0.2 0.1-0.3 0.4-0.4 0.3-0.1 0.7-0.1 1.2-0.1 1.4 0 3.1 0 5.3 0.1 1 0 1.7 0.1 2.1 0.1 0.1 0 0.5 0 1.1-0.1 1.9-0.1 3.5-0.1 4.9-0.1 0.5 0 0.8 0 1.1 0.1 0.2 0.1 0.3 0.2 0.3 0.4 0 0.4-0.4 0.5-1.1 0.5s-1.3 0.1-1.8 0.2c-0.9 0.2-1.4 0.8-1.7 1.5 -0.3 0.8-0.5 2-0.5 3.7l-0.7 38.6c0 1.3-0.3 1.9-0.8 1.9 -0.3 0-0.6-0.1-0.9-0.3 -0.3-0.2-0.7-0.6-1.2-1 -0.9-0.9-2.3-2.2-4-3.9 -1.7-1.7-3.7-3.7-5.9-5.9 -4-4-6.7-6.7-8.1-8.1 -1.3-1.2-2.5-2.5-3.8-3.9 -1.3-1.4-2.5-2.7-3.6-3.8 -1.1-1.1-2.2-2.4-3.5-3.7 -1.2-1.3-2-2.2-2.3-2.5 -0.9-0.9-1.3-1.4-1.3-1.5h-0.2L804.5 288.8z" />
      <path d="M869.9 268.7c0-4.9 0-8.1 0-9.4 0-1.3 0-2.5-0.1-3.5 -0.1-1.1-0.3-1.9-0.6-2.4 -0.3-0.5-1-0.9-2-1.1 -0.5-0.1-1.3-0.2-2.4-0.2 -0.7 0-1-0.2-1-0.5 0-0.4 0.4-0.5 1.3-0.5 1.1 0 3 0 5.7 0.1 1.7 0 2.8 0.1 3.2 0.1 0.5 0 1.5 0 3.1-0.1 2.2-0.1 3.7-0.1 4.5-0.1 0.9 0 1.3 0.2 1.3 0.5 0 0.4-0.3 0.5-1 0.5 -0.4 0-1 0.1-1.8 0.2 -0.8 0.2-1.4 0.5-1.7 1 -0.3 0.5-0.5 1.3-0.6 2.4 -0.1 1-0.1 2.2-0.1 3.5 0 1.3 0 4.5 0 9.4v8.6c0 4.2 0.4 7.4 1.2 9.7 0.8 2.3 2 4 3.6 5.4 1.2 1 2.5 1.7 3.7 2 1.3 0.3 2.6 0.5 3.9 0.5 1.5 0 3-0.3 4.5-0.8 1.5-0.5 2.8-1.4 3.9-2.5 1.5-1.5 2.5-3.4 2.9-5.8 0.4-2.4 0.6-5.5 0.6-9.4v-7.6c0-4.9 0-8.1 0-9.4 0-1.3 0-2.5-0.1-3.5 -0.1-1.1-0.3-1.9-0.6-2.4 -0.3-0.5-1-0.9-2-1.1 -0.2 0-0.5-0.1-1-0.1 -0.4 0-0.9-0.1-1.2-0.1 -0.7 0-1-0.2-1-0.5 0-0.4 0.4-0.5 1.3-0.5 1.1 0 2.2 0 3.4 0.1 1.2 0 2.4 0.1 3.4 0.1 0.1 0 0.1 0 0.2 0 0.2 0 0.8 0 1.8-0.1 0.8 0 1.7-0.1 2.7-0.1 1 0 1.8 0 2.5 0 0.9 0 1.3 0.2 1.3 0.5 0 0.4-0.4 0.5-1.1 0.5 -0.4 0-1 0.1-1.8 0.2 -0.8 0.2-1.4 0.5-1.7 1 -0.3 0.5-0.5 1.3-0.6 2.4 -0.1 1-0.1 2.2-0.1 3.5 0 1.3 0 4.5 0 9.4v6.5c0 2-0.1 3.8-0.2 5.4 -0.1 1.6-0.4 3.2-0.8 4.8 -0.4 1.6-1 3.1-1.8 4.5 -0.8 1.4-1.8 2.6-3 3.7 -2 1.7-4 2.9-6.1 3.5 -2.1 0.6-4.3 0.9-6.6 0.9 -1.1 0-2.1 0-3.1-0.1 -1-0.1-2.2-0.3-3.4-0.5 -1.2-0.3-2.4-0.7-3.7-1.3 -1.2-0.6-2.4-1.4-3.4-2.3 -1.7-1.5-3.1-3.6-4-6.1 -1-2.6-1.4-5.9-1.4-10.1V268.7z" />
      <path d="M939 297.6c-1.4-0.2-2.8-0.7-4.1-1.2 -0.5-0.2-0.8-0.4-0.9-0.7 -0.1-0.3-0.2-0.7-0.2-1.4 0-1.2 0-2.5 0.1-3.9 0.1-1.4 0.1-2.7 0.2-3.9v-0.2c0.1-1.1 0.3-1.6 0.7-1.6 0.2 0 0.4 0.1 0.5 0.3 0.1 0.2 0.1 0.4 0.1 0.8 0 0.4 0.1 0.8 0.2 1.4 0.1 0.6 0.2 1.1 0.4 1.7 0.7 2.1 1.8 3.7 3.3 4.7 1.6 1 3.4 1.5 5.4 1.5 2.6 0 4.6-0.7 6-2.1 1.4-1.4 2.2-3 2.2-4.8 0-1.7-0.4-3.3-1.2-4.8 -0.8-1.5-2.4-3.2-4.8-4.9l-2.8-2.2c-3.3-2.6-5.6-5-7-7.3 -1.4-2.3-2.1-4.7-2.1-7.2 0-3.4 1.3-6.2 3.9-8.3 2.6-2.2 6-3.2 10.2-3.2 1.8 0 3.3 0.1 4.6 0.3 1.3 0.2 2.5 0.4 3.6 0.7 0.6 0.1 0.9 0.4 0.9 0.7 0 0.2 0 0.5-0.1 1 0 0.8-0.1 1.8-0.1 2.8 0 1.1-0.1 2.2-0.1 3.5 0 1.2-0.2 1.8-0.7 1.8 -0.4 0-0.6-0.4-0.6-1.1 0-0.4-0.1-1.1-0.4-1.8 -0.2-0.8-0.7-1.5-1.2-2.2 -0.7-0.8-1.5-1.5-2.5-2.1 -1-0.6-2.4-0.9-4.2-0.9 -2.2 0-4 0.6-5.3 1.7 -1.3 1.2-2 2.7-2 4.6 0 1.4 0.5 2.8 1.4 4.1 0.9 1.3 2.6 2.9 5.1 4.7l1.7 1.3c3.7 2.9 6.3 5.4 7.8 7.8 1.5 2.3 2.3 4.9 2.3 7.8 0 2-0.4 3.9-1.3 5.8 -0.9 1.9-2.4 3.5-4.4 4.8 -1.4 0.9-2.9 1.5-4.6 1.9 -1.6 0.4-3.3 0.6-5.1 0.6C942 298 940.4 297.9 939 297.6z" />
      <path d="M1037.3 296.2c-4.8-1.5-9.1-3.8-12.8-7.1 -3.9-3.4-6.6-7.2-8.2-11.6 -1.6-4.3-2.4-8.8-2.4-13.5 0-1.6 0.2-3.4 0.5-5.3 0.3-1.9 0.8-3.9 1.6-6 0.7-2.1 1.8-4.2 3.1-6.2 1.3-2.1 2.9-4 4.8-5.7 3.2-2.9 7-5.2 11.3-6.7 4.3-1.5 9.5-2.3 15.5-2.3 2.4 0 4.6 0.1 6.4 0.2 1.8 0.1 3.8 0.4 5.9 0.6 1 0.1 2.4 0.4 4.3 0.8 1.9 0.3 3.3 0.6 4.2 0.7 0.9 0.1 1.3 0.4 1.3 1 0 0.2 0 0.5-0.1 1 -0.2 1.1-0.3 2.4-0.3 3.7 -0.1 1-0.1 2.6-0.1 4.8 -0.1 2.4-0.1 3.8-0.2 4.3 -0.1 1.3-0.4 2-1 2 -0.6 0-0.9-0.6-0.9-1.9 -0.1-1.4-0.4-2.7-0.9-4.1 -0.6-1.4-1.4-2.6-2.4-3.7 -1.4-1.5-3.7-2.8-6.8-3.8 -3.1-1-6.6-1.5-10.4-1.5 -3.6 0-6.6 0.4-9.2 1.3 -2.6 0.9-4.8 2.2-6.8 4 -2.9 2.7-4.9 5.8-6.1 9.5 -1.2 3.7-1.7 7.8-1.7 12.5 0 4.8 0.8 9.1 2.5 13 1.6 3.8 3.8 7 6.5 9.6 2.7 2.6 5.6 4.5 8.7 5.8 3.1 1.3 6.2 2 9.1 2 4 0 7.2-0.3 9.6-1 2.4-0.6 4.3-1.9 6-3.8 0.7-0.7 1.3-1.6 1.8-2.7 0.5-1.1 0.9-2 1.1-2.9 0.1-0.7 0.2-1.1 0.4-1.4 0.1-0.2 0.4-0.3 0.7-0.3 0.5 0 0.8 0.4 0.8 1.3 0 0.3-0.1 0.9-0.2 1.9 -0.1 1-0.3 2-0.4 3.1 -0.2 1.1-0.4 2.3-0.6 3.4 -0.2 1.2-0.5 2.2-0.7 2.9 -0.2 0.7-0.5 1.3-0.7 1.6 -0.3 0.3-0.8 0.6-1.5 0.9 -1.6 0.6-3.9 1.1-6.7 1.5 -2.8 0.3-5.7 0.5-8.6 0.5C1047.6 298.4 1042.2 297.7 1037.3 296.2z" />
      <path d="M1106.2 268.7c0-4.9 0-8.1 0-9.4 0-1.3 0-2.5-0.1-3.5 -0.1-1.1-0.3-1.9-0.6-2.4 -0.3-0.5-1-0.9-2-1.1 -0.5-0.1-1.3-0.2-2.4-0.2 -0.7 0-1-0.2-1-0.5 0-0.4 0.4-0.5 1.3-0.5 1 0 2.9 0 5.7 0.1 1.6 0 2.6 0.1 3.1 0.1 9.4 0 14.5 0 15.3-0.1 1.4-0.2 2.2-0.3 2.6-0.4 0.1 0 0.2 0 0.4-0.1 0.3-0.1 0.5-0.1 0.6-0.1 0.2 0 0.4 0.2 0.4 0.5 0 0.1 0 0.3-0.1 0.6 -0.2 1-0.3 2.2-0.4 3.4 0 0 0 0.5-0.1 1.3 0 0.6-0.1 1.1-0.1 1.6 0 0.5-0.1 0.9-0.1 1.1 -0.1 0.5-0.3 0.7-0.6 0.7 -0.4 0-0.6-0.3-0.6-0.9 0-0.3 0-0.7-0.1-1.1 -0.1-0.4-0.1-0.8-0.3-1.1 -0.2-0.6-0.6-1.1-1.2-1.4 -0.5-0.3-1.5-0.6-2.9-0.8 -0.2 0-0.7-0.1-1.4-0.1 -0.7 0-1.6-0.1-2.9-0.1 -1.9 0-3.3-0.1-4.4-0.1 -0.3 0-0.4 0.2-0.4 0.6v15.5c0 0.4 0.1 0.7 0.4 0.7 1.8 0 3.8 0 5.8 0 2 0 3.4 0 4-0.1 1.5-0.1 2.5-0.4 2.9-0.9 0 0 0.1-0.1 0.1-0.1 0.4-0.4 0.7-0.7 0.9-0.7 0.3 0 0.4 0.2 0.4 0.5 0 0 0 0.2-0.1 0.6 -0.2 1.1-0.3 2.4-0.4 3.9 0 0.5-0.1 1.2-0.2 2.2 -0.1 0.9-0.1 1.6-0.1 1.9 0 0.4 0 0.7-0.1 0.9 -0.1 0.2-0.2 0.3-0.5 0.3 -0.4 0-0.5-0.2-0.5-0.6 0-0.1 0-0.3-0.1-0.6 0-0.7-0.1-1.2-0.2-1.6 -0.2-0.7-0.5-1.2-1-1.6 -0.5-0.4-1.3-0.7-2.4-0.8 -0.2 0-0.8-0.1-1.5-0.1 -0.8 0-1.7 0-2.7 0 -2 0-3.4-0.1-4.5-0.1 -0.2 0-0.4 0.2-0.4 0.6v4.8 9.5c0 1.1 0.1 2 0.3 2.7 0.2 0.6 0.5 1.1 1 1.5 0.5 0.4 1.2 0.6 2.1 0.8 0.9 0.1 2.2 0.2 3.8 0.2 1.2 0 2.3 0 3.3-0.1 1-0.1 1.8-0.3 2.5-0.6 0.8-0.4 1.4-0.9 1.8-1.6 0.4-0.7 0.7-1.7 0.9-2.9 0.1-0.6 0.4-0.9 0.7-0.9 0.2 0 0.3 0.1 0.4 0.2 0.1 0.2 0.1 0.4 0.1 0.9 0 0.3 0 0.8-0.1 1.4 0 0.6-0.1 1.3-0.2 2.1 -0.1 0.8-0.2 1.5-0.3 2 -0.1 0.6-0.2 1-0.2 1.3 -0.2 0.8-0.5 1.2-0.9 1.4 -0.4 0.1-1.2 0.2-2.4 0.2 -2.5 0-4.5 0-6.2-0.1 -1.7 0-3.7-0.1-6.1-0.2 -2.2-0.1-3.7-0.1-4.6-0.1 -0.3 0-1.3 0-2.9 0.1 -2.4 0.1-4 0.1-4.8 0.1 -0.8 0-1.2-0.2-1.2-0.6 0-0.3 0.3-0.5 1-0.5 0.7 0 1.5-0.1 2.2-0.2 0.6-0.1 1-0.5 1.2-1 0.2-0.5 0.4-1.3 0.6-2.4 0.1-1.2 0.2-2.7 0.2-4.7 0-1.9 0.1-4.7 0.1-8.3V268.7z" />
      <path d="M1161.8 288.8c0 2.2 0.2 3.9 0.6 4.9 0.4 1 0.9 1.7 1.5 1.9 0.8 0.3 1.9 0.4 3.2 0.4 0.7 0 1 0.2 1 0.5 0 0.4-0.5 0.6-1.4 0.6 -1.7 0-3.7 0-5.9-0.1 -0.8 0-1.3-0.1-1.7-0.1 -0.2 0-0.5 0-1 0.1 -0.6 0-1.4 0-2.5 0.1 -1.1 0-2.1 0.1-3.1 0.1 -0.9 0-1.3-0.2-1.3-0.6 0-0.3 0.3-0.5 1-0.5 1.1 0 2.1-0.1 2.8-0.3 0.8-0.2 1.3-0.9 1.5-1.9 0.2-1 0.4-2.9 0.4-5.7l0.6-36.2c0-1.4 0.3-2.1 0.8-2.1 0.4 0 0.9 0.4 1.7 1.3 0.2 0.2 0.4 0.5 0.6 0.6 0 0 0.8 0.8 2.2 2.3 1.4 1.5 2.9 3.1 4.4 4.7 1.6 1.6 3.5 3.7 5.8 6 2.3 2.3 4.5 4.6 6.6 6.6 0.9 0.9 1.9 2 3 3.1 1.1 1.1 3.1 3.2 6 6.3 1.3 1.4 2.4 2.5 3.1 3.2 0.7 0.7 1.1 1.2 1.3 1.4h0.3l-0.6-27.5c0-1.8-0.2-3.1-0.5-3.9 -0.3-0.8-0.8-1.3-1.6-1.6 -0.4-0.2-0.8-0.3-1.4-0.3 -0.5 0-1.2-0.1-1.9-0.1 -0.7 0-1-0.2-1-0.5 0-0.2 0.1-0.3 0.4-0.4 0.3-0.1 0.7-0.1 1.2-0.1 1.3 0 3.1 0 5.3 0.1 1 0 1.7 0.1 2.1 0.1 0.1 0 0.5 0 1.1-0.1 1.9-0.1 3.6-0.1 4.9-0.1 0.5 0 0.8 0 1.1 0.1 0.2 0.1 0.3 0.2 0.3 0.4 0 0.4-0.4 0.5-1.1 0.5 -0.7 0-1.3 0.1-1.8 0.2 -0.9 0.2-1.4 0.8-1.7 1.5 -0.3 0.8-0.5 2-0.5 3.7l-0.7 38.6c0 1.3-0.3 1.9-0.8 1.9 -0.3 0-0.6-0.1-0.9-0.3 -0.3-0.2-0.7-0.6-1.2-1 -0.9-0.9-2.3-2.2-4-3.9 -1.7-1.7-3.7-3.7-5.9-5.9 -4-4-6.7-6.7-8.1-8.1 -1.3-1.2-2.5-2.5-3.9-3.9 -1.3-1.4-2.5-2.7-3.6-3.8 -1.1-1.1-2.2-2.4-3.5-3.7 -1.2-1.3-2-2.2-2.3-2.5 -0.9-0.9-1.3-1.4-1.3-1.5h-0.2L1161.8 288.8z" />
      <path d="M1238 254.3l-9.1 0.2c-1.8 0.1-3.2 0.2-4 0.5 -0.8 0.2-1.5 0.7-1.9 1.3 -0.5 0.8-0.9 1.5-1 2.1 -0.1 0.5-0.4 0.7-0.7 0.7 -0.4 0-0.6-0.3-0.6-1 0-0.2 0-0.6 0.2-1.3 0.1-0.6 0.2-1.4 0.4-2.4 0.2-0.9 0.4-1.7 0.5-2.4 0.1-0.6 0.2-1 0.2-1 0.2-0.8 0.4-1.2 0.7-1.2 0.1 0 0.3 0.1 0.7 0.2 0.7 0.3 1.3 0.5 2 0.5 0.9 0.1 1.8 0.2 2.9 0.2 1.1 0.1 2.2 0.1 3.2 0.1h24.2c1.3 0 2.7-0.1 4.2-0.3h0.1l0.7-0.1c0.5-0.1 0.9-0.2 1-0.2 0.3 0 0.5 0.4 0.5 1.3 0 0.4 0 1.4-0.1 3.2 -0.1 2-0.1 3.3-0.1 3.9 -0.1 0.6-0.3 1-0.5 1 -0.4 0-0.6-0.4-0.7-1.2l-0.1-0.7c-0.1-0.9-0.7-1.7-1.8-2.4 -1.1-0.6-2.9-1-5.4-1l-7.7-0.2v25.1c0 3.6 0 6.4 0.1 8.3 0 1.9 0.1 3.5 0.2 4.7 0.1 1 0.3 1.7 0.6 2.3 0.3 0.5 0.9 0.9 1.7 1 0.5 0 1 0.1 1.5 0.2 0.6 0.1 1.1 0.1 1.6 0.1 0.7 0 1 0.2 1 0.5 0 0.4-0.4 0.6-1.2 0.6 -1.7 0-3.9 0-6.7-0.1 -1.4 0-2.4-0.1-2.9-0.1 -0.3 0-1.3 0-2.9 0.1 -2.4 0.1-4 0.1-4.8 0.1 -0.8 0-1.2-0.2-1.2-0.6 0-0.3 0.3-0.5 1-0.5 0.7 0 1.5-0.1 2.2-0.2 0.6-0.1 1-0.5 1.2-1 0.2-0.5 0.4-1.3 0.6-2.4 0.1-1.2 0.2-2.7 0.2-4.7 0-1.9 0.1-4.7 0.1-8.3V254.3z" />
      <path d="M1286.9 268.7c0-4.9 0-8.1 0-9.4 0-1.3 0-2.5-0.1-3.5 -0.1-1.1-0.3-1.9-0.6-2.4 -0.4-0.5-1-0.9-2-1.1 -0.5-0.1-1.3-0.2-2.4-0.2 -0.7 0-1-0.2-1-0.5 0-0.4 0.4-0.5 1.3-0.5 1 0 2.9 0 5.7 0.1 1.6 0 2.6 0.1 3.1 0.1 9.4 0 14.5 0 15.3-0.1 1.3-0.2 2.2-0.3 2.6-0.4 0.1 0 0.2 0 0.4-0.1 0.3-0.1 0.5-0.1 0.6-0.1 0.2 0 0.4 0.2 0.4 0.5 0 0.1 0 0.3-0.1 0.6 -0.2 1-0.4 2.2-0.4 3.4 0 0 0 0.5-0.1 1.3 0 0.6-0.1 1.1-0.1 1.6 0 0.5-0.1 0.9-0.1 1.1 -0.1 0.5-0.3 0.7-0.6 0.7 -0.4 0-0.6-0.3-0.6-0.9 0-0.3 0-0.7-0.1-1.1 -0.1-0.4-0.2-0.8-0.3-1.1 -0.2-0.6-0.6-1.1-1.2-1.4 -0.5-0.3-1.5-0.6-2.9-0.8 -0.2 0-0.7-0.1-1.4-0.1 -0.7 0-1.6-0.1-2.9-0.1 -1.9 0-3.3-0.1-4.4-0.1 -0.3 0-0.4 0.2-0.4 0.6v15.5c0 0.4 0.1 0.7 0.4 0.7 1.8 0 3.8 0 5.8 0 2 0 3.4 0 4-0.1 1.5-0.1 2.5-0.4 2.9-0.9 0 0 0.1-0.1 0.1-0.1 0.4-0.4 0.7-0.7 0.9-0.7 0.3 0 0.4 0.2 0.4 0.5 0 0 0 0.2-0.1 0.6 -0.2 1.1-0.3 2.4-0.4 3.9 0 0.5-0.1 1.2-0.1 2.2 -0.1 0.9-0.1 1.6-0.1 1.9 0 0.4 0 0.7-0.1 0.9 -0.1 0.2-0.2 0.3-0.5 0.3 -0.4 0-0.5-0.2-0.5-0.6 0-0.1 0-0.3-0.1-0.6 0-0.7-0.1-1.2-0.2-1.6 -0.2-0.7-0.5-1.2-1-1.6 -0.5-0.4-1.3-0.7-2.4-0.8 -0.2 0-0.8-0.1-1.5-0.1 -0.8 0-1.7 0-2.7 0 -2 0-3.4-0.1-4.5-0.1 -0.2 0-0.4 0.2-0.4 0.6v4.8 9.5c0 1.1 0.1 2 0.3 2.7 0.2 0.6 0.5 1.1 1 1.5 0.5 0.4 1.2 0.6 2.1 0.8 0.9 0.1 2.2 0.2 3.8 0.2 1.2 0 2.3 0 3.3-0.1 1-0.1 1.8-0.3 2.5-0.6 0.8-0.4 1.4-0.9 1.8-1.6 0.4-0.7 0.7-1.7 1-2.9 0.1-0.6 0.3-0.9 0.7-0.9 0.2 0 0.3 0.1 0.4 0.2 0.1 0.2 0.1 0.4 0.1 0.9 0 0.3 0 0.8-0.1 1.4s-0.1 1.3-0.2 2.1c-0.1 0.8-0.2 1.5-0.3 2 -0.1 0.6-0.2 1-0.2 1.3 -0.2 0.8-0.5 1.2-0.9 1.4 -0.4 0.1-1.2 0.2-2.4 0.2 -2.4 0-4.5 0-6.2-0.1 -1.7 0-3.7-0.1-6.1-0.2 -2.2-0.1-3.7-0.1-4.6-0.1 -0.3 0-1.3 0-2.9 0.1 -2.4 0.1-4 0.1-4.8 0.1 -0.8 0-1.2-0.2-1.2-0.6 0-0.3 0.3-0.5 1-0.5 0.7 0 1.5-0.1 2.2-0.2 0.6-0.1 1-0.5 1.2-1 0.2-0.5 0.4-1.3 0.6-2.4 0.1-1.2 0.2-2.7 0.3-4.7 0-1.9 0.1-4.7 0.1-8.3V268.7z" />
      <path d="M1339.1 268.7c0-4.9 0-8.1 0-9.4 0-1.3 0-2.5-0.1-3.5 -0.1-1.1-0.3-1.9-0.6-2.4 -0.4-0.5-1-0.9-2-1.1 -0.5-0.1-1.3-0.2-2.4-0.2 -0.7 0-1-0.2-1-0.5 0-0.4 0.5-0.5 1.4-0.5 0.9 0 1.7 0 2.4 0s1.9 0.1 3.5 0.1c1.4 0 2.2 0.1 2.4 0.1 0.7 0 2.2 0 4.5-0.1 2.2 0 3.5-0.1 4.1-0.1 2.3 0 4.4 0.2 6.2 0.5 1.9 0.4 3.5 1.1 5 2.1 1 0.7 2 1.8 2.8 3.3 0.9 1.5 1.3 3.2 1.3 5.1 0 2.4-0.6 4.7-1.8 6.8 -1.2 2.2-3.3 4.4-6.3 6.8l2.1 2.7c5.3 6.7 9.1 11.2 11.1 13.4 1.5 1.5 2.7 2.5 3.8 3.1 1.1 0.5 2.1 0.9 3 1.1h0.1c0.7 0.1 1.3 0.2 1.7 0.2 0.5 0 0.7 0.2 0.7 0.5 0 0.4-0.4 0.6-1.2 0.6h-5.8c-1.7 0-3-0.1-3.9-0.2 -0.9-0.2-1.8-0.5-2.6-0.9 -1.2-0.7-2.4-1.7-3.7-3 -1.2-1.3-2.8-3.3-4.7-6 -0.8-1.1-1.8-2.6-3.1-4.4 -1.1-1.6-1.9-2.6-2.2-3 -0.3-0.4-0.6-0.8-0.8-1 -0.2-0.3-0.6-0.4-1.1-0.4l-5.3-0.1c-0.3 0-0.5 0.2-0.5 0.5v0.9c0 3.6 0 6.4 0.1 8.4 0 2 0.1 3.5 0.2 4.7 0.1 1 0.3 1.8 0.6 2.4 0.3 0.5 0.9 0.9 1.7 1 0.5 0 1 0.1 1.6 0.2 0.5 0.1 1 0.1 1.4 0.1 0.5 0 0.7 0.2 0.7 0.5 0 0.4-0.4 0.6-1.2 0.6 -0.8 0-1.7 0-2.6 0 -0.9 0-2.4 0-4.5-0.1 -1 0-1.7-0.1-2-0.1 -0.3 0-1.2 0-2.5 0.1 -2.2 0.1-3.9 0.1-5 0.1 -0.8 0-1.2-0.2-1.2-0.6 0-0.3 0.3-0.5 1-0.5 0.7 0 1.5-0.1 2.2-0.2 0.6-0.1 1-0.5 1.2-1 0.2-0.5 0.4-1.3 0.6-2.4 0.1-1.2 0.2-2.7 0.2-4.7 0-1.9 0.1-4.7 0.1-8.3V268.7zM1346.3 273.5c0 0.6 0.2 0.9 0.5 1.1 0.6 0.2 1.3 0.4 2.2 0.5 0.8 0.1 1.7 0.2 2.5 0.2 1.2 0 2.1-0.1 2.6-0.2 0.6-0.1 1.1-0.4 1.7-0.8 1.1-0.8 1.9-1.9 2.6-3.4 0.7-1.5 1-3.4 1-5.7 0-2-0.3-3.8-0.9-5.3 -0.6-1.5-1.4-2.6-2.3-3.5 -1-0.9-2-1.5-3.1-1.9 -1.1-0.4-2.1-0.6-3.1-0.6 -1.6 0-2.7 0.1-3.2 0.2 -0.4 0.1-0.5 0.4-0.5 0.9V273.5z" />
      <path d="M1398.7 297.6c-1.4-0.2-2.8-0.7-4.1-1.2 -0.5-0.2-0.8-0.4-0.9-0.7 -0.1-0.3-0.2-0.7-0.2-1.4 0-1.2 0-2.5 0.1-3.9 0.1-1.4 0.1-2.7 0.2-3.9v-0.2c0.1-1.1 0.3-1.6 0.7-1.6 0.2 0 0.4 0.1 0.5 0.3 0.1 0.2 0.1 0.4 0.1 0.8 0 0.4 0 0.8 0.1 1.4 0.1 0.6 0.2 1.1 0.4 1.7 0.7 2.1 1.8 3.7 3.3 4.7 1.6 1 3.4 1.5 5.4 1.5 2.6 0 4.6-0.7 6-2.1 1.4-1.4 2.2-3 2.2-4.8 0-1.7-0.4-3.3-1.2-4.8 -0.8-1.5-2.4-3.2-4.8-4.9l-2.8-2.2c-3.3-2.6-5.6-5-7-7.3 -1.4-2.3-2.1-4.7-2.1-7.2 0-3.4 1.3-6.2 3.9-8.3 2.6-2.2 6-3.2 10.2-3.2 1.8 0 3.3 0.1 4.6 0.3 1.3 0.2 2.5 0.4 3.6 0.7 0.6 0.1 0.9 0.4 0.9 0.7 0 0.2 0 0.5-0.1 1 0 0.8-0.1 1.8-0.1 2.8 0 1.1-0.1 2.2-0.1 3.5 0 1.2-0.2 1.8-0.7 1.8 -0.4 0-0.6-0.4-0.6-1.1 0-0.4-0.1-1.1-0.4-1.8 -0.2-0.8-0.6-1.5-1.2-2.2 -0.7-0.8-1.5-1.5-2.5-2.1 -1-0.6-2.4-0.9-4.2-0.9 -2.2 0-4 0.6-5.3 1.7 -1.3 1.2-2 2.7-2 4.6 0 1.4 0.5 2.8 1.4 4.1 0.9 1.3 2.6 2.9 5.1 4.7l1.7 1.3c3.7 2.9 6.3 5.4 7.8 7.8 1.5 2.3 2.3 4.9 2.3 7.8 0 2-0.5 3.9-1.3 5.8 -0.9 1.9-2.4 3.5-4.4 4.8 -1.4 0.9-3 1.5-4.6 1.9 -1.6 0.4-3.3 0.6-5.1 0.6C1401.7 298 1400.1 297.9 1398.7 297.6z" />
    </g>
    <g class="icon">
      <path d="M0 204.7C-0.2 92.5 91 0.7 203.5 0c113.1-0.7 205.3 91.2 205.5 204.6 0.2 113.8-93.5 204.2-204.2 204.5C92.2 409.4 0.2 317.7 0 204.7zM18.5 155.9c-0.3 0.6-0.6 1.3-0.9 1.9 -0.5 2.3-0.9 4.7-1.4 7 -0.9 4.7-1.8 9.4-2.6 14.2 -0.4 5.1-0.7 10.2-1.1 15.2 -1.9 19.9 7.5 36.6 15.4 53.7 2.4 8.7 7.5 16 12.3 23.4 16.2 24.7 36.7 44.7 65 55.3 23.2 8.7 47.5 3.3 58.1-14 12.9-21 13.4-43.8 5.5-66.7 -6.8-19.6-39.4-30.3-55.3-10.7 -6.1 7.6-13.8 13.9-20.7 20.9 -2.7 2.8-5.9 4.4-9.2 1.8 -3.5-2.7-2.4-6 0.1-9.1 1.3-1.5 3.7-2.8 2.1-6.1 -1.6 0.1-3.4 0.2-5.2 0.3 -3.9 0.3-7.2-0.7-7.6-5.1 -0.4-4.5 2.7-6 6.6-6.3 3.1-0.2 6.3-0.6 9.4-0.3 8.6 0.7 22.2-5.8 26.1-12.7 0.6-1.2 0.8-2-0.2-3.3 -4.7-5.6-21.1-5.6-25.3 0.4 -4.7 6.8-11.2 11.1-18.7 14.1 -2.9 1.2-5.7 0.7-7.3-2.5 -1.6-3.1-0.5-5.6 2.2-7.4 2.6-1.7 5.5-3.1 8.1-4.9 2.2-1.6 5.9-2.9 4.8-6.2 -0.8-2.5-4.4-1.9-6.7-2.1 -6.9-0.7-11.4-2.7-7.4-10.7 1.6-0.6 4.4 0.2 4.4-2.1 0.1-2.3-2.7-3-4.3-4.2 -0.1-1.7-0.2-3.3-0.3-5 6.2-4.5 10.7-0.8 14.8 3.4 8.3 8.4 16.8 15.5 30 14 6.3-0.7 12.5 2.2 17 7 3.6 3.8 7.7 4.6 12.7 4.8 20.2 0.7 35.4 12.3 42 31.4 5.3 15.4 5.2 31.3 2.3 47 -6.7 36.3-31.3 54.3-67.8 48.5 -29.5-4.7-51.9-22.3-70.7-44.7 -6.9-8.3-13.2-17.1-19.8-25.7 8 26.4 23 48.1 40.8 68.5 15 17.2 33.1 23.8 55.3 23.7 34.9-0.1 57.2-16.1 65.4-50.2 7.1-29.6 4.9-59.2-5.2-87.9 -5.5-15.7-13.1-30.3-25.9-41.5 -4-3.5-8.4-8.4-14-6.7 -10.2 3.1-24.2-2.2-29.5 12.9 -0.9 2.5-4.4 3.6-7.4 1.6 -2.5-1.6-3-3.8-2.3-6.6 2.4-9.1-0.5-12.8-10.3-12.2 -8 0.4-15.8 0.1-23.7-0.8 -5.3-8.2-4.4-9.9 5.7-11.4 4.5 1 10.1 3.6 12.8-0.8 1.9-3.1-2.9-6.9-5.3-10 -1.3-1.7-2.4-3.6-3.5-5.5l0.3-0.5c9.9-13.1 14.3 7.9 23 3.8 1.9-0.9 3.1 1.6 3.3 3.7 0.1 0.9 0.1 2-0.2 2.8 -3.9 8.7 1.3 11.3 8.3 12.9 6.9 1.6 13.8 1.4 20.7 0.1 3.5-0.7 4.9-1.9 3.8-5.7 -2.5-9.3-6.2-18-13.5-24.6 -3-2.7-6.3-5.8-10.9-3.9 -12.1 4.8-23.6 1.5-35.1-2.5 -0.7-1.3-1.3-2.6-2-3.9 0.2-1.2 0.4-2.3 0.7-3.5 1.1-0.9 2.2-1.8 3.3-2.7 5.2 1 10.4 2.1 15.7 3.1 2.8 0.5 6.1 1.6 8-0.8 1.9-2.4-1.4-4.3-2.4-6.4 -1.5-3.1-2.5-6.2 0.7-8.5 3.4-2.4 6.4-1.2 8.9 2.1 3.1 3.9 4.9 9.3 9.7 11.3 16.5 7 23.2 21.2 28.1 37 1.1 3.6 0.2 8.6 5.6 9.9 0.3 0.4 0.8 0.6 1.3 0.6 17.9 13.2 28.8 31.3 36.5 51.7 9.9 26.3 10.7 53.6 9.2 81.1l-0.1 0.6 0.6 0.2c-0.4 1-0.8 2-1.2 2.9 -0.1 1.3-0.3 2.6-0.4 3.9 -3.6 14.2-8.4 28-17.2 40 -1 1.1-2 2.3-3 3.4 -7.6 7.4-16.5 12.7-25.9 17.4 -3.9 1-7.8 2-11.6 3.1 -8.8 0.6-17.6 1.3-29.2 2.1 15.3 7.7 28.2 13.8 42.5 16.2l-0.1-0.2c0.7 0.4 1.4 0.7 2.1 1.1 1.3 0.2 2.7 0.4 4 0.7 2.9 1.7 6.2 2.2 9.5 2l0.5 0.3 0.5-0.2c0.9 0.3 1.7 0.6 2.6 0.8 4.7 1.1 9.5 1.7 14.4 1.1 1.4 1.2 3 1.3 4.7 1 1.4 0 2.7 0 4.1 0.1l0.9 0.2 0.9-0.1c3.9 0 7.7 0 11.6-0.1 12.9-0.1 25.6-1.3 38-5.2 1.3-0.2 2.6-0.4 3.9-0.7 0.8-0.3 1.5-0.6 2.3-1 1.8-0.5 3.6-1 5.5-1.5 11.4-2.6 21.8-7.3 32-14 -24.5-0.7-46.3-7.2-63.1-25.6l-0.4-0.6c-2.8-4.2-5.6-8.4-8.3-12.6 -1-2.3-2-4.6-2.9-6.9 -0.4-0.7-0.8-1.4-1.2-2.2 -1.3-4.3-2.6-8.7-3.9-13 -2.3-16-3.8-32-2.3-48.2 3.6-39.5 13.6-75.8 49.1-99.6 1.2-0.8 2.2-2.5 2.3-3.9 2.7-28.5 28.9-38.8 44.3-57.5 1.8 0.8 3.5 1.6 5.3 2.3 2.4 6-3.2 9.7-4.8 14.9 6 2 11 1.7 16.3-1.5 3.3-2 7.8-2.1 9.5 2.7 1.5 4.2-1.5 6.6-5.1 7.7 -7.6 2.4-15.7 5.5-23.2 2.8 -11.8-4.4-18 1.5-23 10.2 -3.7 6.4-10.3 14.8-5.9 20.5 4.6 5.9 14.7 3 22.5 1.3 7.2-1.6 10.8-4.8 6.8-12.6 -2.3-4.5-0.5-9.7 4.6-8.3 5.8 1.5 7.9-1.4 11.1-4.2 2.6-2.3 5.7-3 8.5-0.4 3.1 2.8 1.8 5.6-0.4 8.3 -1 1.2-2.2 2.4-3 3.7 -1.5 2.3-4.4 4.9-2.7 7.4 0.9 1.4 4.7 1 7.1 1.2 1.6 0.1 3.2-0.2 4.7-0.5 4.3-0.7 8.9-1 9.4 4.8 0.5 5.6-4.4 6-8.5 6.7 -6.3 1.1-12.6 0.3-18.9-0.1 -7.8-0.4-13.3 4.5-11 9.3 1.8 3.7 3.8 7.3-0.7 9.7 -5.5 2.9-7.8-1.7-10.4-5.3 -1.6-2.2-1.2-5.3-4.7-6.6 -19.3-6.7-30.7-2.8-43.1 15 -1.2 1.8-2.4 3.6-3.6 5.4 -24.1 38.7-28.6 80.5-14.6 123 13.5 41.3 71.9 54.8 104.9 26.3 15.4-13.3 27.7-29.2 37.8-46.7 2.1-3.7 5.5-6.9 5-13.1 -3.8 4.5-6.8 8.1-9.8 11.6 -20.7 23.9-45.5 40.1-78.3 41.2 -20.3 0.6-37.6-4.1-50.3-22.1 -11.8-16.7-13.9-34.9-13-54.1 1.1-22.9 10.3-40.9 32.8-50 6.1-0.8 12.2-1.5 18.3-2.3 6.7-0.8 9.6-8.1 15.8-9.5 16.5-3.6 33-6.8 44.1-21.6 1.9-2.5 5.9-2.5 8.3 0.6 2.1 2.6 1.4 5.3-0.8 7.7 -1.2 1.3-4.2 1.8-1.5 5 6.6 7.8 5.9 9.3-3.8 11.3 -2.6 0.5-5.7-0.2-7.8 2.5 2.3 6.1 8.2 7.6 12.8 10.6 3.2 2.1 4.3 4.9 2.5 8 -1.6 2.8-4.5 3.2-7.5 1.9 -6.2-2.6-11.9-6-16.2-11.3 -6.7-8.2-17.5-9.7-26.1-3.8 -2.3 1.5-3.6 2.7-0.7 4.8 8.4 6.2 14.3 17.1 28.3 12.2 4.9-1.7 13.5-1.7 13.4 8.4 -0.7 0.8-1.3 1.6-2 2.4 -4 2.3-8.9-1.5-13.4 1.4 3.4 4.9 9.2 8.4 4.9 14.9 -2.3 0.1-4.6 0.2-6.9 0.4 -8.2-8.3-16.5-16.5-24.7-24.9 -6.4-6.5-14-9.3-23.1-8.4 -0.5-0.3-1-0.2-1.5 0.2 -21.5 1.5-33.6 16.7-34 42.7 0.1 4.5 0.2 9 0.3 13.4 0.3 1.6 0.7 3.1 1 4.7 0.1 1.6 0.3 3.1 0.4 4.7 3.7 22.5 15.6 35.6 36.9 38.4 23.4 3.1 44.6-3 63.2-18 28.9-23.2 45.5-54.5 58.3-88.2 1.5-3.9 1.4-8.1 0.8-12.2 0.9-7 0.6-13.9-0.3-20.9 -3.3-43.6-18.7-82-48.8-114.1l-0.2-0.2c-9.9-12.5-22-22.6-35.5-31.1l0.1 0.1c-20.2-14.4-42.4-24.3-67-28.6 -23.5-5.8-47.2-6.5-71-2.2 -0.8 0.2-1.6 0.5-2.4 0.7 -3.1 0-6.2-0.1-9 1.7 -12.7 1.8-24.8 5.7-36.2 11.7 -1.2 0.6-2.5 1.2-3.7 1.8 -9.1 2.9-17 7.9-24.5 13.6 -3.1 1.2-5.8 3-7.9 5.5 -10.4 6.8-19.6 14.8-27.4 24.6 -2.7 2.3-5.3 4.6-6.9 7.9 -12.3 13.5-21.9 28.7-28.4 45.8 -0.7 1.7-1.4 3.5-2.2 5.2 -0.4 0.7-0.8 1.5-1.2 2.2 -0.4 1.2-0.9 2.4-1.3 3.7 -2.5 5.5-4.9 11.1-5.2 17.3L18.5 155.9z" />
      <path d="M306 97c-8.8 11.2-21.2 10.2-33.1 9 -6.9-0.7-11 1.9-16 5.7 -30.5 23.1-39.9 56.5-46.1 91.8 -1.7 9.6-4.1 19.1-7.5 28.7 -3.1-17.4-6.5-34.7-9.1-52.2 -2.9-19.1-9.5-36-25-48.5 -2.2-1.8-4.2-3.9-5.9-6.1 -10.3-12.9-21.3-23.7-40.4-19.3 -5.3 1.2-11.4-1.3-15.9-5.1 -2.8-2.4-4.6-5.8-2.3-9.3 2.5-3.8 5.6-2.3 9-0.3 9.8 5.7 11.4 5 11.6-4 0.4-0.2 0.4-0.5 0.2-0.8 3-2.3 6.1-3.3 9.7-1.3 0.8 0.8 2.3 2.3 2.4 2.3 1.7-1.5 0.8-3.1 0-4.8 -0.5-3.5-1-7.1-1.5-10.6 0.4-0.4 0.6-0.9 0.7-1.4 5.8-3.2 9.7-1.9 11.3 4.8 0.5 2.2 1.5 4.3 1.5 6.5 0.3 16.2 12 25.7 21.4 36.6 1.8 2.1 6 4.7 5.8-0.2 -0.5-11.4 7.8-24.3-5.4-34.2 -5.4-4-7.1-11.1-8.3-17.7 0-1.3 0-2.5 0-3.8 0.2-1.3 0.4-2.5 0.7-3.8 0 0 0.2-0.5 0.2-0.5 7.1-4.6 10.7-2.6 10.8 5.8 0 3.3 0.7 6.3 2.5 9.1 1.7 2.7 3.5 6.4 6.5 6.4 3.7 0 4.1-4.4 5-7.2 1.2-3.9 2.2-8 2.4-12 0.3-3.9 0.9-7.2 5.5-7.2 4.7 0 5.4 3.8 5.6 7.4 0.5 7.5-2.1 14.3-4.9 21.1 -2.7 6.4-6 12.3-7.6 19.3 -6 25.9 9 46.7 16.1 69.6 4.2-15.4 12.6-29.2 14.2-45.1 0.9-6.4 1-12.7-0.1-19.1 -0.1-6.8-2.2-13-5.3-19 -4.3-8.1-8.2-16.5-7.7-26.1 0.2-3.9 0.6-8.1 5.9-8 4.4 0.2 5.6 3.6 5.5 7.4 -0.2 5.6 1.4 10.6 3.6 15.6 1.9 4.3 3.9 4.1 6.9 1.1 4-4.1 5.6-9 5.5-14.7 -0.1-3.5 1.4-6.5 5.3-6.6 4.5-0.2 5.7 3.1 6 7 0.5 8-1.5 15.6-7.4 20.8 -7 6.2-9.7 12.7-6.6 21.6 0.8 2.3 0.2 5 0.5 7.6 0.2 1.7-1 4.1 1.5 4.9 1.9 0.6 3.6-0.5 5-1.9 4.5-4.4 7.1-10.5 12.5-14.1 5.2-3.5 7.4-8.3 7.7-14.4 0.2-3.7 1.3-7.5 2.3-11.1 2.4-8.5 5.2-9.2 12.5-3.6 0 1.1 0 2.2 0 3.3 -1 3-2 6-3.1 9.3 4.3-0.4 7.4-0.8 10.4-1.1l-0.1-0.1c1.2 1.8 2.7 3.4 2.6 5.8 -0.4 7.9 3 7.3 8.4 4 3.5-2.2 6.6-6.3 11.7-4.3C305.1 91.9 306 94.3 306 97z" />
    </g>
	</symbol>

	<symbol id="stacked" preserveAspectRatio="xMidYMid" viewBox="0 0 620.5 565.1">
    <g class="logotype">
      <path d="M61.1 478.6c-0.2 0-0.4 0.1-0.5 0.4l-2.9 7.8c-0.5 1.3-0.8 2.4-0.8 3.3 0 0.5 0.2 1 0.5 1.2 0.3 0.3 0.9 0.4 1.7 0.4h0.8c0.5 0 0.8 0.1 0.8 0.4 0 0.4-0.3 0.5-0.9 0.5 -0.7 0-1.7 0-2.9-0.1 -1.4-0.1-2.3-0.1-2.8-0.1 -0.1 0-0.5 0-1.2 0.1 -0.5 0-1.3 0-2.3 0.1 -1 0-2 0.1-2.9 0.1 -0.7 0-1-0.2-1-0.5 0-0.3 0.2-0.4 0.7-0.4 0.5 0 1.1 0 1.7-0.1 1.2-0.1 2.1-0.6 2.7-1.4 0.7-0.8 1.3-1.9 1.9-3.5l13.6-34.1c0.3-0.8 0.6-1.4 0.8-1.7 0.2-0.3 0.5-0.5 0.7-0.5 0.4 0 0.8 0.6 1.4 1.7 0.3 0.5 0.8 1.9 1.6 4 0.8 2.1 1.9 4.8 3.3 8.2 3.1 7.7 4.8 12 5.2 12.9 0.3 0.9 0.8 2 1.4 3.6 0.6 1.5 1.3 3.1 2 4.7 0.9 2.2 1.7 3.7 2.5 4.4 0.8 0.8 1.5 1.3 2.3 1.5 0.7 0.1 1.5 0.2 2.3 0.2 0.5 0 0.7 0.1 0.7 0.4 0 0.2-0.2 0.4-0.5 0.4 -0.3 0.1-1 0.1-2 0.1 -1.6 0-3.2 0-4.7 0 -1.5 0-3.4 0-5.5-0.1h-0.2c-0.9-0.1-1.4-0.2-1.4-0.4 0-0.3 0.3-0.5 0.8-0.5 0.4-0.1 0.6-0.4 0.6-0.8 0-0.1 0-0.3-0.1-0.4l-4.3-11.5c-0.1-0.3-0.3-0.4-0.5-0.4H61.1zM72.2 475.8c0.2 0 0.3-0.1 0.3-0.3l-4.9-13.4v-0.1c-0.1-0.3-0.2-0.4-0.3-0.4 -0.1 0-0.3 0.2-0.3 0.5l-5 13.3c0 0.3 0.1 0.4 0.2 0.4H72.2z"/>
      <path d="M111.3 481.3c0 2.9 0 5 0.1 6.2 0.1 1.2 0.3 1.9 0.7 2.2 0.4 0.3 0.9 0.5 1.5 0.7 0.7 0.1 1.7 0.2 3.2 0.2 1.2 0 2.2-0.1 2.9-0.2 0.7-0.1 1.2-0.4 1.7-0.9 0.2-0.3 0.5-0.6 0.7-1.1 0.2-0.5 0.3-0.9 0.4-1.3 0.1-0.4 0.2-0.6 0.4-0.6 0.2 0 0.3 0.2 0.3 0.7 0 0.1 0 0.4 0 0.7 0 0.3-0.1 0.8-0.1 1.3 -0.1 0.5-0.1 1-0.2 1.5 -0.1 0.4-0.1 0.8-0.2 1 -0.1 0.4-0.3 0.7-0.6 0.9 -0.3 0.1-0.9 0.2-1.9 0.2 -1.4 0-2.6 0-3.7 0 -1 0-2.3-0.1-3.7-0.1 -1.7 0-3.1-0.1-4-0.1 -0.2 0-0.8 0-1.8 0 -1.5 0.1-2.5 0.1-3.1 0.1 -0.5 0-0.8-0.1-0.8-0.4 0-0.2 0.2-0.3 0.6-0.3 0.5 0 0.9-0.1 1.4-0.2 0.4-0.1 0.6-0.3 0.8-0.6 0.1-0.3 0.3-0.8 0.4-1.5 0.1-0.8 0.1-1.7 0.2-3 0-1.2 0-3 0-5.3v-6.9c0-3.1 0-5.2 0-6 0-0.9 0-1.6-0.1-2.3 -0.1-0.7-0.2-1.2-0.4-1.5 -0.2-0.3-0.6-0.6-1.3-0.7 -0.3-0.1-0.7-0.1-1.3-0.1 -0.4 0-0.7-0.1-0.7-0.3 0-0.2 0.3-0.4 0.9-0.4 0.6 0 1.7 0 3.4 0.1 1.1 0 1.8 0 2 0 0.2 0 0.9 0 2.1 0 1.7-0.1 2.7-0.1 3.2-0.1 0.5 0 0.8 0.1 0.8 0.4 0 0.2-0.2 0.4-0.7 0.4 -0.5 0-1.1 0-1.5 0.1 -0.5 0.1-0.9 0.3-1.1 0.7 -0.2 0.3-0.3 0.9-0.4 1.6 -0.1 0.7-0.1 1.4-0.1 2.3 0 0.9 0 2.9 0 6V481.3z"/>
      <path d="M143.6 481.3c0 2.9 0 5 0.1 6.2 0.1 1.2 0.3 1.9 0.7 2.2 0.4 0.3 0.9 0.5 1.5 0.7 0.7 0.1 1.7 0.2 3.2 0.2 1.2 0 2.2-0.1 2.9-0.2 0.7-0.1 1.2-0.4 1.7-0.9 0.2-0.3 0.5-0.6 0.7-1.1 0.2-0.5 0.3-0.9 0.4-1.3 0.1-0.4 0.2-0.6 0.4-0.6 0.2 0 0.3 0.2 0.3 0.7 0 0.1 0 0.4 0 0.7 0 0.3-0.1 0.8-0.1 1.3 -0.1 0.5-0.1 1-0.2 1.5 -0.1 0.4-0.1 0.8-0.2 1 -0.1 0.4-0.3 0.7-0.6 0.9 -0.3 0.1-0.9 0.2-1.9 0.2 -1.4 0-2.6 0-3.7 0 -1 0-2.3-0.1-3.7-0.1 -1.7 0-3.1-0.1-4-0.1 -0.2 0-0.8 0-1.8 0 -1.5 0.1-2.5 0.1-3.1 0.1 -0.5 0-0.8-0.1-0.8-0.4 0-0.2 0.2-0.3 0.6-0.3 0.5 0 0.9-0.1 1.4-0.2 0.4-0.1 0.6-0.3 0.8-0.6 0.1-0.3 0.3-0.8 0.4-1.5 0.1-0.8 0.1-1.7 0.2-3 0-1.2 0-3 0-5.3v-6.9c0-3.1 0-5.2 0-6 0-0.9 0-1.6-0.1-2.3 -0.1-0.7-0.2-1.2-0.4-1.5 -0.2-0.3-0.6-0.6-1.3-0.7 -0.3-0.1-0.7-0.1-1.3-0.1 -0.4 0-0.7-0.1-0.7-0.3 0-0.2 0.3-0.4 0.9-0.4 0.6 0 1.7 0 3.4 0.1 1.1 0 1.8 0 2 0 0.2 0 0.9 0 2.1 0 1.7-0.1 2.7-0.1 3.2-0.1 0.5 0 0.8 0.1 0.8 0.4 0 0.2-0.2 0.4-0.7 0.4 -0.5 0-1.1 0-1.5 0.1 -0.5 0.1-0.9 0.3-1.1 0.7 -0.2 0.3-0.3 0.9-0.4 1.6 -0.1 0.7-0.1 1.4-0.1 2.3 0 0.9 0 2.9 0 6V481.3z"/>
      <path d="M171 474.5c0-3.1 0-5.2 0-6 0-0.9 0-1.6-0.1-2.3 -0.1-0.7-0.2-1.2-0.4-1.5 -0.2-0.3-0.6-0.6-1.3-0.7 -0.3-0.1-0.8-0.1-1.5-0.1 -0.4 0-0.7-0.1-0.7-0.3 0-0.2 0.3-0.4 0.9-0.4 0.7 0 1.9 0 3.6 0.1 1 0 1.7 0 2 0 6 0 9.3 0 9.8 0 0.9-0.1 1.4-0.2 1.7-0.2 0.1 0 0.1 0 0.2-0.1 0.2-0.1 0.3-0.1 0.4-0.1 0.2 0 0.2 0.1 0.2 0.4 0 0.1 0 0.2 0 0.3 -0.1 0.7-0.2 1.4-0.3 2.2 0 0 0 0.3 0 0.8 0 0.4-0.1 0.7-0.1 1 0 0.3-0.1 0.6-0.1 0.7 -0.1 0.3-0.2 0.4-0.4 0.4 -0.2 0-0.4-0.2-0.4-0.5 0-0.2 0-0.4-0.1-0.7 0-0.3-0.1-0.5-0.2-0.7 -0.2-0.4-0.4-0.7-0.7-0.9 -0.3-0.2-1-0.4-1.9-0.5 -0.2 0-0.4 0-0.9-0.1 -0.4 0-1 0-1.9-0.1 -1.2 0-2.1 0-2.8 0 -0.2 0-0.3 0.1-0.3 0.4v9.9c0 0.3 0.1 0.4 0.3 0.4 1.2 0 2.4 0 3.7 0 1.3 0 2.1 0 2.6-0.1 1-0.1 1.6-0.3 1.9-0.6 0 0 0-0.1 0-0.1 0.3-0.3 0.5-0.4 0.6-0.4 0.2 0 0.3 0.1 0.3 0.3 0 0 0 0.1 0 0.4 -0.1 0.7-0.2 1.5-0.3 2.5 0 0.3-0.1 0.8-0.1 1.4 0 0.6-0.1 1-0.1 1.2 0 0.2 0 0.4-0.1 0.5 0 0.1-0.1 0.2-0.3 0.2 -0.2 0-0.4-0.1-0.4-0.3 0-0.1 0-0.2 0-0.4 0-0.4-0.1-0.8-0.1-1.1 -0.1-0.4-0.3-0.8-0.7-1 -0.3-0.3-0.8-0.4-1.5-0.5 -0.2 0-0.5 0-1-0.1 -0.5 0-1.1 0-1.7 0 -1.2 0-2.2 0-2.9 0 -0.2 0-0.2 0.1-0.2 0.4v3.1 6.1c0 0.7 0.1 1.3 0.2 1.7 0.1 0.4 0.3 0.7 0.7 1 0.3 0.2 0.8 0.4 1.4 0.5 0.6 0.1 1.4 0.1 2.4 0.1 0.8 0 1.5 0 2.1-0.1 0.6 0 1.1-0.2 1.6-0.4 0.5-0.2 0.9-0.6 1.2-1 0.3-0.4 0.5-1.1 0.6-1.9 0.1-0.4 0.2-0.6 0.4-0.6 0.1 0 0.2 0.1 0.3 0.2 0 0.1 0.1 0.3 0.1 0.5 0 0.2 0 0.5 0 0.9 0 0.4-0.1 0.8-0.1 1.3 -0.1 0.5-0.1 0.9-0.2 1.3 -0.1 0.3-0.1 0.6-0.2 0.8 -0.1 0.5-0.3 0.8-0.5 0.9 -0.2 0.1-0.8 0.1-1.6 0.1 -1.6 0-2.9 0-3.9 0 -1.1 0-2.4-0.1-3.9-0.1 -1.4 0-2.4-0.1-3-0.1 -0.2 0-0.8 0-1.8 0 -1.5 0.1-2.5 0.1-3.1 0.1 -0.5 0-0.8-0.1-0.8-0.4 0-0.2 0.2-0.3 0.6-0.3 0.5 0 0.9-0.1 1.4-0.2 0.4-0.1 0.6-0.3 0.8-0.6 0.1-0.3 0.3-0.8 0.4-1.5 0.1-0.8 0.1-1.7 0.2-3 0-1.2 0-3 0-5.3V474.5z"/>
      <path d="M204.4 474.5c0-3.1 0-5.2 0-6 0-0.9 0-1.6-0.1-2.3 -0.1-0.7-0.2-1.2-0.4-1.5 -0.2-0.3-0.6-0.6-1.3-0.7 -0.3-0.1-0.8-0.1-1.5-0.1 -0.4 0-0.7-0.1-0.7-0.3 0-0.2 0.3-0.4 0.9-0.4 0.5 0 1.1 0 1.5 0 0.5 0 1.2 0 2.2 0.1 0.9 0 1.4 0 1.6 0 0.5 0 1.4 0 2.9-0.1 1.4 0 2.3 0 2.6 0 1.5 0 2.8 0.1 4 0.4 1.2 0.2 2.3 0.7 3.2 1.3 0.7 0.4 1.3 1.1 1.8 2.1 0.6 1 0.8 2 0.8 3.2 0 1.5-0.4 3-1.2 4.4 -0.8 1.4-2.1 2.8-4 4.4l1.4 1.7c3.4 4.3 5.8 7.1 7.1 8.6 0.9 1 1.8 1.6 2.4 2 0.7 0.4 1.3 0.6 1.9 0.7h0c0.4 0.1 0.8 0.1 1.1 0.1 0.3 0 0.5 0.1 0.5 0.3 0 0.3-0.2 0.4-0.7 0.4h-3.7c-1.1 0-1.9-0.1-2.5-0.2 -0.6-0.1-1.1-0.3-1.7-0.6 -0.8-0.4-1.6-1.1-2.3-1.9 -0.8-0.9-1.8-2.1-3-3.8 -0.5-0.7-1.2-1.6-2-2.8 -0.7-1-1.2-1.7-1.4-1.9 -0.2-0.3-0.4-0.5-0.5-0.6 -0.2-0.2-0.4-0.3-0.7-0.3l-3.4-0.1c-0.2 0-0.3 0.1-0.3 0.3v0.5c0 2.3 0 4.1 0 5.3 0 1.3 0.1 2.3 0.2 3 0.1 0.6 0.2 1.2 0.4 1.5 0.2 0.4 0.6 0.6 1.1 0.6 0.3 0 0.6 0.1 1 0.1 0.4 0 0.7 0.1 0.9 0.1 0.3 0 0.5 0.1 0.5 0.3 0 0.3-0.3 0.4-0.8 0.4 -0.5 0-1.1 0-1.6 0 -0.6 0-1.5 0-2.9-0.1 -0.7 0-1.1 0-1.2 0 -0.2 0-0.7 0-1.6 0 -1.4 0.1-2.5 0.1-3.2 0.1 -0.5 0-0.8-0.1-0.8-0.4 0-0.2 0.2-0.3 0.6-0.3 0.5 0 0.9-0.1 1.4-0.2 0.4-0.1 0.6-0.3 0.8-0.6 0.1-0.3 0.3-0.8 0.4-1.5 0.1-0.8 0.1-1.7 0.2-3 0-1.2 0-3 0-5.3V474.5zM209 477.6c0 0.4 0.1 0.6 0.4 0.7 0.4 0.1 0.9 0.2 1.4 0.3 0.5 0.1 1.1 0.1 1.6 0.1 0.8 0 1.3 0 1.7-0.1 0.4-0.1 0.7-0.3 1.1-0.5 0.7-0.5 1.2-1.2 1.7-2.2 0.4-1 0.6-2.2 0.6-3.7 0-1.3-0.2-2.4-0.6-3.4 -0.4-0.9-0.9-1.7-1.5-2.2 -0.6-0.6-1.3-1-2-1.2 -0.7-0.2-1.3-0.4-2-0.4 -1 0-1.7 0.1-2.1 0.2 -0.2 0.1-0.4 0.3-0.4 0.5V477.6z"/>
      <path d="M266 490c0 0.5 0 0.9-0.1 1 -0.1 0.1-0.2 0.3-0.4 0.4 -1.2 0.6-2.6 1-4.3 1.3 -1.7 0.3-3.4 0.4-5.1 0.4 -2.5 0-4.8-0.3-6.9-0.9 -2.2-0.6-4.1-1.5-5.7-2.8 -1.7-1.2-3-2.8-3.9-4.8 -1-2-1.4-4.2-1.4-6.8 0-2.9 0.6-5.5 1.9-7.7 1.3-2.2 2.9-3.9 4.9-5.1 1.7-1 3.4-1.7 5-2 1.7-0.3 3.5-0.5 5.5-0.5 0.6 0 1.3 0 2 0.1 0.7 0 1.4 0.1 2.1 0.2 0.7 0.1 1.3 0.2 1.8 0.2 0.5 0.1 0.8 0.1 1 0.2 0.5 0.1 1.1 0.2 1.6 0.3 0.6 0.1 1.1 0.1 1.4 0.2 0.4 0 0.5 0.2 0.5 0.5 0 0.1 0 0.2 0 0.4 0 0.6-0.1 1.3-0.2 2.2 -0.1 0.9-0.1 2.1-0.1 3.8 0 0.5-0.1 0.8-0.4 0.8 -0.2 0-0.3-0.2-0.4-0.5 -0.1-0.6-0.2-1.2-0.4-1.7 -0.2-0.5-0.5-1-0.9-1.5 -0.7-0.8-1.8-1.5-3.4-2.1 -1.5-0.6-3.3-1-5.3-1 -1.4 0-2.8 0.1-4 0.4 -1.2 0.3-2.5 1-3.7 2 -1.1 1-2 2.2-2.7 3.8 -0.6 1.6-0.9 3.5-0.9 5.8 0 2.1 0.3 4 1 5.8 0.6 1.8 1.6 3.4 2.8 4.7 1.2 1.3 2.6 2.4 4.3 3.1s3.5 1.1 5.6 1.1c0.7 0 1.4 0 1.9-0.1 0.5-0.1 1-0.2 1.4-0.4 0.5-0.2 0.7-0.7 0.7-1.4v-3.7c0-2.3 0-3.8 0-4.6 0-0.7-0.2-1.2-0.4-1.5 -0.2-0.3-0.7-0.6-1.3-0.7 -0.3-0.1-0.8-0.1-1.5-0.1 -0.4 0-0.6-0.1-0.6-0.3 0-0.3 0.3-0.4 0.8-0.4 0.7 0 1.9 0 3.6 0.1 1.1 0 1.8 0 2.1 0 0.3 0 1.1 0 2.2-0.1 1 0 1.8 0 2.3 0 0.5 0 0.8 0.1 0.8 0.4 0 0.2-0.2 0.3-0.5 0.3 -0.2 0-0.6 0-1.1 0.1 -0.5 0.1-0.9 0.3-1.1 0.7 -0.2 0.3-0.3 0.9-0.4 1.6 0 0.8 0 2.3 0 4.7V490z"/>
      <path d="M290 482.6c0-0.9-0.1-1.7-0.2-2.2 -0.1-0.5-0.4-1.2-0.7-1.9 0-0.2-0.4-0.7-1-1.7 -0.6-1-1.3-2.1-2.1-3.4 -0.8-1.3-1.5-2.5-2.2-3.6 -0.7-1.1-1.2-1.9-1.6-2.5 -1-1.4-1.9-2.4-2.7-2.9 -0.3-0.1-0.5-0.2-0.8-0.3 -0.3-0.1-0.6-0.2-0.8-0.2 -0.4 0-0.6-0.1-0.6-0.3 0-0.2 0.2-0.4 0.7-0.4 0.1 0 0.7 0 1.8 0 1.6 0.1 2.7 0.1 3.1 0.1 0.2 0 0.7 0 1.3 0 1.1-0.1 2.1-0.1 2.9-0.1 0.4 0 0.6 0.1 0.6 0.4 0 0.1-0.2 0.3-0.7 0.4 -0.1 0-0.1 0-0.2 0 -0.4 0.1-0.5 0.3-0.5 0.7 0 0.3 0.2 0.7 0.5 1.3 0.1 0.3 0.4 0.8 0.7 1.4 0.4 0.6 1 1.7 1.8 3.2 0.8 1.5 1.5 2.6 1.9 3.4 0.4 0.8 0.9 1.5 1.4 2.4l0.8 1.4c0.1-0.2 0.4-0.8 1-1.8 0.6-1 1.2-2.2 1.9-3.5 0.7-1.2 1.3-2.4 1.9-3.4 0.6-1.1 1-1.7 1.1-2 0.4-0.8 0.5-1.5 0.5-2 0-0.2-0.1-0.4-0.2-0.6 -0.1-0.2-0.3-0.3-0.6-0.4 -0.2-0.1-0.4-0.1-0.5-0.2 -0.1-0.1-0.2-0.1-0.2-0.2 0-0.2 0.2-0.4 0.7-0.4 0.5 0 1.1 0 2 0.1 0.8 0 1.4 0 1.7 0 0.3 0 1.1 0 2.2-0.1 1.1 0 1.7 0 2 0 0.5 0 0.7 0.1 0.7 0.3 0 0.3-0.2 0.4-0.7 0.4 -0.2 0-0.5 0-0.8 0.1 -0.3 0.1-0.6 0.2-0.9 0.4 -0.4 0.2-0.7 0.4-1 0.7 -0.3 0.3-0.6 0.7-1.1 1.3 -0.3 0.4-0.8 1.1-1.5 2.2 -0.7 1.1-1.5 2.4-2.4 3.9 -0.9 1.4-1.6 2.8-2.3 3.9 -0.7 1.2-1.1 2-1.2 2.4 -0.3 0.6-0.4 1.2-0.5 1.8 -0.1 0.6-0.1 1.3-0.1 2.1v3.2c0 0.6 0 1.2 0 1.9 0 0.7 0 1.4 0.1 2 0.1 0.6 0.2 1.1 0.4 1.5 0.2 0.4 0.6 0.6 1.2 0.7 0.3 0 0.6 0.1 1 0.1 0.4 0 0.7 0.1 1 0.1 0.4 0 0.6 0.1 0.6 0.3 0 0.3-0.3 0.4-0.8 0.4 -1 0-2.4 0-4.1-0.1 -0.9 0-1.5 0-1.8 0 -0.3 0-1 0-2 0 -1.4 0.1-2.4 0.1-2.9 0.1 -0.6 0-0.9-0.1-0.9-0.4 0-0.2 0.2-0.3 0.6-0.3 0.4 0 0.9-0.1 1.4-0.2 0.4-0.1 0.6-0.3 0.8-0.7 0.2-0.4 0.3-0.9 0.4-1.5 0.1-0.7 0.1-1.4 0.1-2 0-0.7 0-1.3 0-1.9V482.6z"/>
      <path d="M345.4 478.6c-0.2 0-0.4 0.1-0.5 0.4l-2.9 7.8c-0.5 1.3-0.8 2.4-0.8 3.3 0 0.5 0.2 1 0.5 1.2 0.3 0.3 0.9 0.4 1.7 0.4h0.8c0.5 0 0.8 0.1 0.8 0.4 0 0.4-0.3 0.5-0.9 0.5 -0.7 0-1.7 0-2.9-0.1 -1.4-0.1-2.4-0.1-2.8-0.1 -0.1 0-0.5 0-1.2 0.1 -0.5 0-1.3 0-2.3 0.1 -1 0-2 0.1-2.9 0.1 -0.7 0-1-0.2-1-0.5 0-0.3 0.2-0.4 0.6-0.4 0.5 0 1.1 0 1.7-0.1 1.2-0.1 2.1-0.6 2.7-1.4 0.6-0.8 1.3-1.9 1.9-3.5l13.6-34.1c0.3-0.8 0.6-1.4 0.8-1.7 0.2-0.3 0.5-0.5 0.7-0.5 0.4 0 0.8 0.6 1.4 1.7 0.3 0.5 0.8 1.9 1.6 4 0.8 2.1 1.9 4.8 3.3 8.2 3.1 7.7 4.8 12 5.2 12.9 0.3 0.9 0.8 2 1.4 3.6 0.6 1.5 1.3 3.1 2 4.7 0.9 2.2 1.7 3.7 2.5 4.4 0.8 0.8 1.5 1.3 2.3 1.5 0.7 0.1 1.5 0.2 2.3 0.2 0.5 0 0.7 0.1 0.7 0.4 0 0.2-0.2 0.4-0.5 0.4 -0.3 0.1-1 0.1-2 0.1 -1.6 0-3.2 0-4.7 0 -1.5 0-3.4 0-5.5-0.1h-0.2c-0.9-0.1-1.4-0.2-1.4-0.4 0-0.3 0.3-0.5 0.8-0.5 0.4-0.1 0.6-0.4 0.6-0.8 0-0.1 0-0.3-0.1-0.4l-4.3-11.5c-0.1-0.3-0.3-0.4-0.5-0.4H345.4zM356.5 475.8c0.2 0 0.3-0.1 0.3-0.3l-4.9-13.4v-0.1c-0.1-0.3-0.2-0.4-0.3-0.4 -0.1 0-0.3 0.2-0.3 0.5l-5 13.3c0 0.3 0.1 0.4 0.2 0.4H356.5z"/>
      <path d="M391.3 493c-0.9-0.2-1.8-0.4-2.6-0.8 -0.3-0.1-0.5-0.3-0.6-0.4 -0.1-0.2-0.1-0.5-0.1-0.9 0-0.8 0-1.6 0.1-2.5 0-0.9 0.1-1.7 0.1-2.5v-0.1c0.1-0.7 0.2-1 0.5-1 0.2 0 0.3 0.1 0.3 0.2 0.1 0.1 0.1 0.3 0.1 0.5 0 0.2 0 0.5 0.1 0.9 0.1 0.4 0.1 0.7 0.3 1.1 0.4 1.4 1.1 2.3 2.1 3 1 0.6 2.2 1 3.5 1 1.6 0 2.9-0.5 3.8-1.4 0.9-0.9 1.4-1.9 1.4-3.1 0-1.1-0.3-2.1-0.8-3.1 -0.5-1-1.5-2-3-3.2l-1.8-1.4c-2.1-1.6-3.6-3.2-4.5-4.6 -0.9-1.5-1.3-3-1.3-4.6 0-2.2 0.8-3.9 2.5-5.3 1.7-1.4 3.8-2.1 6.5-2.1 1.1 0 2.1 0.1 2.9 0.2 0.8 0.1 1.6 0.3 2.3 0.5 0.4 0.1 0.5 0.2 0.5 0.5 0 0.1 0 0.3 0 0.6 0 0.5-0.1 1.1-0.1 1.8 0 0.7 0 1.4 0 2.3 0 0.8-0.1 1.2-0.4 1.2 -0.3 0-0.4-0.2-0.4-0.7 0-0.3-0.1-0.7-0.2-1.2 -0.2-0.5-0.4-1-0.8-1.4 -0.4-0.5-1-1-1.6-1.3 -0.7-0.4-1.5-0.6-2.7-0.6 -1.4 0-2.5 0.4-3.4 1.1 -0.8 0.7-1.3 1.7-1.3 2.9 0 0.9 0.3 1.8 0.9 2.6 0.6 0.8 1.7 1.8 3.3 3l1.1 0.8c2.3 1.8 4 3.5 5 5 1 1.5 1.4 3.2 1.4 5 0 1.3-0.3 2.5-0.9 3.7 -0.6 1.2-1.5 2.2-2.8 3.1 -0.9 0.6-1.9 1-2.9 1.2 -1 0.2-2.1 0.4-3.3 0.4S392.2 493.1 391.3 493z"/>
      <path d="M427.4 465.3l-5.8 0.2c-1.2 0.1-2 0.2-2.6 0.3 -0.5 0.1-0.9 0.4-1.2 0.8 -0.3 0.5-0.6 1-0.7 1.4 -0.1 0.3-0.2 0.5-0.4 0.5 -0.2 0-0.3-0.2-0.3-0.6 0-0.1 0-0.4 0.1-0.8 0.1-0.4 0.2-0.9 0.3-1.5s0.2-1.1 0.3-1.5c0.1-0.4 0.1-0.6 0.1-0.6 0.1-0.5 0.3-0.7 0.5-0.7 0.1 0 0.2 0 0.4 0.1 0.4 0.2 0.9 0.3 1.3 0.3 0.5 0.1 1.2 0.1 1.9 0.1 0.7 0 1.4 0.1 2 0.1h15.5c0.8 0 1.7-0.1 2.7-0.2h0l0.4-0.1c0.3-0.1 0.5-0.1 0.6-0.1 0.2 0 0.3 0.3 0.3 0.8 0 0.2 0 0.9 0 2 -0.1 1.3-0.1 2.1-0.1 2.5 -0.1 0.4-0.2 0.6-0.3 0.6 -0.3 0-0.4-0.3-0.4-0.8l0-0.4c-0.1-0.6-0.4-1.1-1.2-1.5 -0.7-0.4-1.9-0.6-3.5-0.7l-4.9-0.1v16c0 2.3 0 4.1 0 5.3 0 1.2 0.1 2.2 0.2 3 0.1 0.6 0.2 1.1 0.4 1.5 0.2 0.4 0.6 0.6 1.1 0.6 0.3 0 0.6 0.1 1 0.1 0.4 0 0.7 0.1 1 0.1 0.4 0 0.6 0.1 0.6 0.3 0 0.3-0.3 0.4-0.7 0.4 -1.1 0-2.5 0-4.3-0.1 -0.9 0-1.5 0-1.9 0 -0.2 0-0.8 0-1.8 0 -1.5 0.1-2.5 0.1-3.1 0.1 -0.5 0-0.8-0.1-0.8-0.4 0-0.2 0.2-0.3 0.6-0.3 0.5 0 0.9-0.1 1.4-0.2 0.4-0.1 0.6-0.3 0.8-0.6 0.2-0.3 0.3-0.9 0.4-1.5 0.1-0.8 0.1-1.7 0.2-3 0-1.2 0-3 0-5.3V465.3z"/>
      <path d="M478.6 475.6c0.2 0 0.2-0.1 0.2-0.3v-0.8c0-3.1 0-5.2 0-6 0-0.9 0-1.6-0.1-2.3 -0.1-0.7-0.2-1.2-0.4-1.5 -0.2-0.3-0.6-0.6-1.3-0.7 -0.3-0.1-0.8-0.1-1.5-0.1 -0.4 0-0.7-0.1-0.7-0.3 0-0.2 0.3-0.4 0.8-0.4 0.9 0 2.1 0 3.7 0.1 1 0 1.6 0 1.9 0 0.2 0 0.8 0 1.9 0 1.5-0.1 2.5-0.1 3-0.1 0.5 0 0.8 0.1 0.8 0.4 0 0.2-0.2 0.4-0.7 0.4 -0.3 0-0.7 0-1.1 0.1 -0.5 0.1-0.9 0.3-1.1 0.7 -0.2 0.3-0.3 0.9-0.4 1.6 -0.1 0.7-0.1 1.4-0.1 2.3 0 0.9 0 2.9 0 6v6.9c0 2.3 0 4.1 0 5.3 0 1.2 0.1 2.2 0.2 3 0.1 0.6 0.2 1.1 0.4 1.5 0.2 0.4 0.6 0.6 1.1 0.6 0.3 0 0.6 0.1 1 0.1 0.4 0 0.7 0.1 1 0.1 0.4 0 0.6 0.1 0.6 0.3 0 0.3-0.3 0.4-0.8 0.4 -1 0-2.4 0-4.2-0.1 -0.9 0-1.5 0-1.9 0 -0.2 0-0.8 0-1.8 0 -1.5 0.1-2.5 0.1-3 0.1 -0.6 0-0.8-0.1-0.8-0.4 0-0.2 0.2-0.3 0.6-0.3 0.5 0 0.9-0.1 1.4-0.2 0.4-0.1 0.6-0.3 0.8-0.6 0.1-0.3 0.3-0.8 0.4-1.5 0.1-0.8 0.1-1.7 0.2-3 0-1.2 0-3 0-5.3v-3.4c0-0.2-0.1-0.2-0.2-0.2h-14.9c-0.2 0-0.2 0.1-0.2 0.2v3.4c0 2.3 0 4.1 0 5.3 0 1.2 0.1 2.2 0.2 3 0.1 0.6 0.2 1.1 0.4 1.5 0.2 0.4 0.6 0.6 1.1 0.6 0.3 0 0.6 0.1 1 0.1 0.4 0 0.7 0.1 1 0.1 0.4 0 0.6 0.1 0.6 0.3 0 0.3-0.3 0.4-0.8 0.4 -1 0-2.4 0-4.2-0.1 -0.9 0-1.5 0-1.9 0 -0.2 0-0.8 0-1.8 0 -1.5 0.1-2.5 0.1-3.1 0.1 -0.5 0-0.8-0.1-0.8-0.4 0-0.2 0.2-0.3 0.6-0.3 0.5 0 0.9-0.1 1.4-0.2 0.4-0.1 0.6-0.3 0.8-0.6 0.1-0.3 0.3-0.8 0.4-1.5 0.1-0.8 0.1-1.7 0.2-3 0-1.2 0-3 0-5.3v-6.9c0-3.1 0-5.2 0-6 0-0.9 0-1.6-0.1-2.3 -0.1-0.7-0.2-1.2-0.4-1.5 -0.2-0.3-0.6-0.6-1.3-0.7 -0.3-0.1-0.8-0.1-1.5-0.1 -0.4 0-0.7-0.1-0.7-0.3 0-0.2 0.3-0.4 0.8-0.4 0.9 0 2.1 0 3.7 0.1 1 0 1.6 0 1.9 0 0.2 0 0.8 0 1.9 0 1.5-0.1 2.5-0.1 3-0.1 0.5 0 0.8 0.1 0.8 0.4 0 0.2-0.2 0.4-0.7 0.4 -0.3 0-0.7 0-1.1 0.1 -0.5 0.1-0.9 0.3-1.1 0.7 -0.2 0.3-0.3 0.9-0.4 1.6 0 0.7-0.1 1.4-0.1 2.3 0 0.9 0 2.9 0 6v0.8c0 0.2 0.1 0.3 0.2 0.3H478.6z"/>
      <path d="M506.6 463.3c0.1-0.7 0.4-1 0.7-1 0.2 0 0.3 0.1 0.5 0.3 0.2 0.2 0.4 0.5 0.6 1l10.7 22 10.6-22.3c0.3-0.6 0.6-0.9 0.9-0.9 0.4 0 0.6 0.4 0.7 1.2l3.6 24.1c0.2 1.3 0.4 2.2 0.7 2.8 0.3 0.6 0.7 1 1.3 1.1 0.8 0.3 1.6 0.4 2.4 0.4 0.4 0 0.6 0.1 0.6 0.3 0 0.3-0.3 0.4-1 0.4 -0.6 0-1.8 0-3.7-0.1 -1.2 0-2.1-0.1-2.7-0.1 -0.6 0-1.1 0-1.5-0.1 -0.4-0.1-0.7-0.1-0.9-0.2 -0.2-0.1-0.2-0.1-0.2-0.3 0-0.2 0.1-0.3 0.4-0.4 0.2-0.1 0.3-0.3 0.3-0.8 0-0.3 0-0.5-0.1-0.9l-2.3-17.2h-0.2l-8.5 17.7c-0.5 0.9-0.8 1.5-0.9 1.8 -0.2 0.3-0.3 0.4-0.5 0.4 -0.2 0-0.6-0.6-1.2-1.7 -0.1-0.1-0.1-0.2-0.1-0.2 -1-2-1.8-3.5-2.3-4.5 -0.5-1-1-1.9-1.4-2.7 -0.4-0.8-0.7-1.3-0.8-1.6 -0.2-0.3-0.5-1.1-1.1-2.3 -0.5-1.2-0.9-2-1.1-2.4 -0.5-1.2-0.9-2-1.2-2.5 -0.2-0.5-0.5-1-0.7-1.5h-0.2l-2 15.5c-0.1 0.7-0.1 1.3-0.1 1.8 0 0.3 0.1 0.6 0.3 0.8 0.2 0.2 0.5 0.4 0.9 0.4 0.6 0.1 1.1 0.2 1.6 0.2 0.4 0 0.6 0.1 0.6 0.3 0 0.3-0.3 0.4-0.9 0.4 -0.7 0-1.6 0-2.8-0.1 -0.6 0-1 0-1.3 0 -0.2 0-0.7 0-1.5 0 -1.2 0.1-2 0.1-2.4 0.1 -0.5 0-0.7-0.1-0.7-0.4 0-0.2 0.2-0.3 0.6-0.3 0.4 0 0.8 0 1.2-0.1 0.5-0.1 0.9-0.4 1.1-1 0.2-0.5 0.4-1.2 0.5-2.1L506.6 463.3z"/>
      <path d="M556.5 482.5c-0.2 0-0.3 0.1-0.4 0.3l-2.1 5.6c-0.4 1-0.6 1.8-0.6 2.4 0 0.4 0.1 0.7 0.4 0.9 0.2 0.2 0.6 0.3 1.2 0.3h0.6c0.4 0 0.6 0.1 0.6 0.3 0 0.3-0.2 0.4-0.7 0.4 -0.5 0-1.2 0-2.1 0 -1 0-1.7-0.1-2-0.1 -0.1 0-0.4 0-0.9 0 -0.4 0-0.9 0-1.7 0 -0.7 0-1.4 0-2.1 0 -0.5 0-0.7-0.1-0.7-0.4 0-0.2 0.2-0.3 0.5-0.3 0.4 0 0.8 0 1.2-0.1 0.8-0.1 1.5-0.4 2-1 0.5-0.6 0.9-1.4 1.4-2.5l9.8-24.5c0.2-0.6 0.4-1 0.6-1.2 0.2-0.2 0.3-0.3 0.5-0.3 0.3 0 0.6 0.4 1 1.2 0.2 0.4 0.6 1.3 1.2 2.9 0.6 1.5 1.4 3.5 2.3 5.9 2.2 5.6 3.5 8.7 3.7 9.3 0.2 0.6 0.6 1.5 1 2.6 0.4 1.1 0.9 2.2 1.4 3.4 0.6 1.6 1.2 2.6 1.8 3.2 0.5 0.6 1.1 0.9 1.6 1.1 0.5 0.1 1.1 0.2 1.6 0.2 0.3 0 0.5 0.1 0.5 0.3 0 0.2-0.1 0.3-0.4 0.3 -0.2 0.1-0.7 0.1-1.4 0.1 -1.2 0-2.3 0-3.4 0 -1.1 0-2.4 0-4-0.1h-0.2c-0.7-0.1-1-0.2-1-0.3 0-0.2 0.2-0.3 0.5-0.4 0.3-0.1 0.4-0.3 0.4-0.6 0-0.1 0-0.2-0.1-0.3l-3.1-8.3c-0.1-0.2-0.2-0.3-0.4-0.3H556.5zM564.5 480.5c0.1 0 0.2-0.1 0.2-0.2l-3.5-9.6v0c-0.1-0.2-0.1-0.3-0.2-0.3 -0.1 0-0.2 0.1-0.2 0.3l-3.6 9.6c0 0.2 0.1 0.3 0.2 0.3H564.5z"/>
      <path d="M10.5 554.1c-0.2 0-0.3 0.1-0.4 0.3l-2.1 5.6c-0.4 1-0.6 1.8-0.6 2.4 0 0.4 0.1 0.7 0.4 0.9 0.2 0.2 0.6 0.3 1.2 0.3h0.6c0.4 0 0.6 0.1 0.6 0.3 0 0.3-0.2 0.4-0.7 0.4 -0.5 0-1.2 0-2.1 0 -1 0-1.7-0.1-2-0.1 -0.1 0-0.4 0-0.9 0 -0.4 0-0.9 0-1.7 0 -0.7 0-1.4 0-2.1 0C0.2 564.3 0 564.1 0 563.9c0-0.2 0.2-0.3 0.5-0.3 0.4 0 0.8 0 1.2-0.1 0.8-0.1 1.5-0.4 2-1 0.5-0.6 0.9-1.4 1.4-2.5l9.8-24.5c0.2-0.6 0.4-1 0.6-1.2 0.2-0.2 0.3-0.3 0.5-0.3 0.3 0 0.6 0.4 1 1.3 0.2 0.4 0.6 1.3 1.2 2.9 0.6 1.5 1.4 3.5 2.3 5.9 2.2 5.6 3.5 8.7 3.7 9.3 0.2 0.6 0.6 1.5 1 2.6 0.4 1.1 0.9 2.2 1.4 3.4 0.7 1.6 1.3 2.6 1.8 3.2 0.5 0.6 1.1 0.9 1.6 1.1 0.5 0.1 1.1 0.2 1.6 0.2 0.3 0 0.5 0.1 0.5 0.3 0 0.2-0.1 0.3-0.4 0.3 -0.2 0.1-0.7 0.1-1.4 0.1 -1.2 0-2.3 0-3.4 0 -1.1 0-2.4 0-4-0.1h-0.2c-0.7-0.1-1-0.2-1-0.3 0-0.2 0.2-0.3 0.5-0.4 0.3-0.1 0.4-0.3 0.4-0.6 0-0.1 0-0.2-0.1-0.3l-3.1-8.3c-0.1-0.2-0.2-0.3-0.4-0.3H10.5zM18.4 552.1c0.1 0 0.2-0.1 0.2-0.2l-3.5-9.6v0c-0.1-0.2-0.1-0.3-0.2-0.3 -0.1 0-0.2 0.1-0.2 0.3l-3.6 9.6c0 0.2 0.1 0.3 0.2 0.3H18.4z"/>
      <path d="M47.1 558.9c0 1.4 0.2 2.5 0.4 3.1 0.2 0.7 0.6 1.1 1 1.2 0.5 0.2 1.2 0.3 2 0.3 0.4 0 0.7 0.1 0.7 0.3 0 0.3-0.3 0.4-0.9 0.4 -1.1 0-2.3 0-3.7-0.1 -0.5 0-0.9 0-1.1 0 -0.1 0-0.3 0-0.7 0 -0.4 0-0.9 0-1.6 0 -0.7 0-1.3 0-2 0 -0.6 0-0.9-0.1-0.9-0.4 0-0.2 0.2-0.3 0.6-0.3 0.7 0 1.3-0.1 1.8-0.2 0.5-0.2 0.8-0.6 1-1.2 0.1-0.7 0.2-1.9 0.3-3.6l0.4-23.1c0-0.9 0.2-1.3 0.5-1.3 0.2 0 0.6 0.3 1.1 0.8 0.1 0.2 0.2 0.3 0.4 0.4 0 0 0.5 0.5 1.4 1.5 0.9 1 1.8 2 2.8 3 1 1.1 2.2 2.3 3.7 3.8 1.5 1.5 2.9 2.9 4.2 4.2 0.6 0.6 1.2 1.3 1.9 2 0.7 0.7 2 2.1 3.8 4 0.9 0.9 1.5 1.6 2 2.1 0.4 0.5 0.7 0.7 0.9 0.9h0.2l-0.4-17.5c0-1.2-0.1-2-0.3-2.5 -0.2-0.5-0.5-0.8-1-1 -0.2-0.1-0.5-0.2-0.9-0.2 -0.4 0-0.7 0-1.2 0 -0.4 0-0.6-0.1-0.6-0.3 0-0.1 0.1-0.2 0.3-0.3 0.2-0.1 0.4-0.1 0.8-0.1 0.9 0 2 0 3.4 0.1 0.6 0 1.1 0 1.4 0 0.1 0 0.3 0 0.7 0 1.2-0.1 2.3-0.1 3.1-0.1 0.3 0 0.5 0 0.7 0.1 0.1 0.1 0.2 0.1 0.2 0.3 0 0.2-0.2 0.4-0.7 0.4 -0.5 0-0.9 0-1.2 0.1 -0.5 0.2-0.9 0.5-1.1 1 -0.2 0.5-0.3 1.3-0.3 2.4l-0.4 24.6c0 0.8-0.2 1.2-0.5 1.2 -0.2 0-0.4-0.1-0.6-0.2 -0.2-0.1-0.5-0.4-0.7-0.6 -0.6-0.6-1.5-1.4-2.6-2.5 -1.1-1.1-2.4-2.4-3.8-3.8 -2.5-2.5-4.3-4.3-5.2-5.2 -0.8-0.8-1.6-1.6-2.5-2.5 -0.8-0.9-1.6-1.7-2.3-2.4 -0.7-0.7-1.4-1.5-2.2-2.4 -0.8-0.9-1.3-1.4-1.5-1.6 -0.5-0.6-0.8-0.9-0.9-0.9h-0.1L47.1 558.9z"/>
      <path d="M90.5 546.1c0-3.1 0-5.2 0-6 0-0.9 0-1.6-0.1-2.3 -0.1-0.7-0.2-1.2-0.4-1.5 -0.2-0.3-0.6-0.6-1.3-0.7 -0.3-0.1-0.8-0.1-1.5-0.1 -0.4 0-0.7-0.1-0.7-0.3 0-0.2 0.3-0.3 0.9-0.3 0.7 0 1.9 0 3.6 0.1 1 0 1.7 0 2 0 0.4 0 1.1 0 2.1 0 1.8-0.1 3.2-0.1 3.9-0.1 1.7 0 3.2 0 4.4 0.1 1.2 0.1 2.5 0.2 3.9 0.5 1.4 0.3 2.7 0.7 3.9 1.3 1.3 0.6 2.4 1.4 3.4 2.5 1.1 1.1 2 2.6 2.7 4.2 0.7 1.7 1.1 3.6 1.1 5.7 0 2.3-0.4 4.4-1.2 6.2 -0.8 1.9-1.8 3.4-3 4.7 -0.5 0.5-1.2 1-1.9 1.6 -0.7 0.5-1.7 1-2.7 1.5 -1.1 0.5-2.3 0.8-3.7 1.1 -1.4 0.3-3 0.4-4.7 0.4 -0.7 0-1.4 0-2.1-0.1 -0.7 0-1.7-0.1-2.8-0.2 -1.7-0.1-2.8-0.2-3.4-0.2 -0.2 0-0.8 0-1.8 0 -1.5 0.1-2.5 0.1-3.1 0.1 -0.5 0-0.8-0.1-0.8-0.4 0-0.2 0.2-0.3 0.6-0.3 0.5 0 0.9-0.1 1.4-0.2 0.4-0.1 0.6-0.3 0.8-0.6 0.1-0.3 0.3-0.8 0.4-1.5 0.1-0.8 0.1-1.8 0.2-3 0-1.2 0-3 0-5.3V546.1zM95.4 550.3c0 2.1 0 3.9 0 5.2 0 1.4 0 2.3 0.1 2.7 0 0.7 0.1 1.3 0.1 1.9 0.1 0.6 0.2 0.9 0.3 1.1 0.3 0.4 0.9 0.8 1.7 1.1 0.9 0.3 2 0.5 3.4 0.5 2 0 3.7-0.2 5.1-0.6 1.4-0.4 2.7-1.1 3.8-2.2 1.2-1 2-2.3 2.5-4 0.5-1.6 0.8-3.6 0.8-5.7 0-2.2-0.4-4.2-1.1-5.8 -0.7-1.7-1.6-3-2.6-3.9 -0.9-0.8-1.8-1.5-2.7-2 -1-0.5-1.9-0.9-2.9-1.2 -1-0.3-1.9-0.5-2.8-0.5 -0.9-0.1-1.8-0.1-2.7-0.1 -0.4 0-0.9 0-1.5 0.1 -0.6 0.1-0.9 0.1-1.1 0.2 -0.3 0.1-0.5 0.4-0.5 0.8 0 0.9 0 3.5 0 7.8V550.3z"/>
      <path d="M159.3 564.7c-1.3-0.2-2.5-0.6-3.6-1.1 -0.4-0.2-0.7-0.4-0.8-0.6 -0.1-0.2-0.2-0.6-0.2-1.2 0-1.1 0-2.2 0.1-3.4 0.1-1.2 0.1-2.4 0.2-3.5v-0.2c0.1-0.9 0.3-1.4 0.7-1.4 0.2 0 0.4 0.1 0.4 0.2 0.1 0.2 0.1 0.4 0.1 0.7 0 0.3 0 0.7 0.1 1.2 0.1 0.5 0.2 1 0.4 1.5 0.6 1.9 1.6 3.3 3 4.2 1.4 0.9 3 1.3 4.8 1.3 2.3 0 4.1-0.6 5.3-1.9 1.3-1.3 1.9-2.7 1.9-4.3 0-1.5-0.4-2.9-1.1-4.3 -0.7-1.3-2.1-2.8-4.2-4.4l-2.5-2c-2.9-2.3-5-4.4-6.2-6.5 -1.2-2-1.8-4.2-1.8-6.4 0-3 1.2-5.5 3.5-7.4s5.3-2.9 9.1-2.9c1.6 0 2.9 0.1 4 0.3 1.1 0.2 2.2 0.4 3.2 0.6 0.5 0.1 0.8 0.3 0.8 0.7 0 0.1 0 0.4-0.1 0.9 0 0.7-0.1 1.6-0.1 2.5 0 0.9-0.1 2-0.1 3.1 0 1.1-0.2 1.6-0.6 1.6 -0.4 0-0.5-0.3-0.5-1 0-0.4-0.1-0.9-0.3-1.6 -0.2-0.7-0.6-1.3-1.1-2 -0.6-0.7-1.3-1.3-2.2-1.9 -0.9-0.5-2.1-0.8-3.7-0.8 -2 0-3.5 0.5-4.7 1.5 -1.2 1-1.8 2.4-1.8 4 0 1.3 0.4 2.5 1.2 3.6 0.8 1.1 2.3 2.5 4.5 4.2l1.5 1.1c3.3 2.5 5.6 4.8 6.9 6.9 1.3 2.1 2 4.4 2 6.9 0 1.8-0.4 3.5-1.2 5.2 -0.8 1.7-2.1 3.1-3.9 4.3 -1.3 0.8-2.6 1.4-4.1 1.7 -1.4 0.3-3 0.5-4.6 0.5C162 565.1 160.5 564.9 159.3 564.7z"/>
      <path d="M199.7 546.1c0-3.1 0-5.2 0-6 0-0.9 0-1.6-0.1-2.3 -0.1-1.3-0.5-2-1.3-2.2 -0.4-0.1-0.9-0.2-1.4-0.2 -0.4 0-0.6-0.1-0.6-0.4 0-0.2 0.3-0.3 0.9-0.3 0.5 0 1.4 0 2.9 0.1 1.1 0 1.8 0 2.2 0 0.3 0 0.9 0 1.9 0 1.4-0.1 2.3-0.1 2.8-0.1 0.5 0 0.8 0.1 0.8 0.3 0 0.3-0.2 0.4-0.6 0.4 -0.3 0-0.7 0-1.2 0.1 -0.5 0.1-0.9 0.3-1.1 0.7 -0.2 0.3-0.3 0.9-0.4 1.6 -0.1 0.6-0.1 1.4-0.1 2.3 0 0.9 0 2.9 0 6v6.9c0 2.4 0 4.3 0 5.5 0 1.3 0.1 2.3 0.1 3 0.1 0.6 0.2 1.1 0.4 1.4 0.2 0.3 0.6 0.5 1.1 0.6 0.3 0 0.6 0.1 1 0.1 0.4 0 0.7 0.1 1 0.1 0.4 0 0.6 0.1 0.6 0.3 0 0.3-0.2 0.4-0.7 0.4 -1.1 0-2.5 0-4.3-0.1 -0.8 0-1.4 0-1.8 0 -0.2 0-0.8 0-1.8 0 -1.5 0.1-2.5 0.1-3.1 0.1 -0.5 0-0.8-0.1-0.8-0.4 0-0.2 0.2-0.3 0.6-0.3 0.5 0 0.9-0.1 1.4-0.2 0.6-0.1 1-0.8 1.1-2 0.1-0.8 0.1-1.8 0.2-3 0-1.3 0-3.1 0-5.5V546.1z"/>
      <path d="M228.2 558.9c0 1.4 0.2 2.5 0.4 3.1 0.2 0.7 0.6 1.1 1 1.2 0.5 0.2 1.2 0.3 2 0.3 0.4 0 0.7 0.1 0.7 0.3 0 0.3-0.3 0.4-0.9 0.4 -1.1 0-2.3 0-3.7-0.1 -0.5 0-0.9 0-1.1 0 -0.1 0-0.3 0-0.7 0 -0.4 0-0.9 0-1.6 0 -0.7 0-1.3 0-2 0 -0.6 0-0.9-0.1-0.9-0.4 0-0.2 0.2-0.3 0.6-0.3 0.7 0 1.3-0.1 1.8-0.2 0.5-0.2 0.8-0.6 1-1.2 0.1-0.7 0.2-1.9 0.3-3.6l0.4-23.1c0-0.9 0.2-1.3 0.5-1.3 0.2 0 0.6 0.3 1.1 0.8 0.1 0.2 0.2 0.3 0.4 0.4 0 0 0.5 0.5 1.4 1.5 0.9 1 1.8 2 2.8 3 1 1.1 2.2 2.3 3.7 3.8 1.5 1.5 2.9 2.9 4.2 4.2 0.6 0.6 1.2 1.3 1.9 2 0.7 0.7 2 2.1 3.8 4 0.9 0.9 1.5 1.6 2 2.1 0.4 0.5 0.7 0.7 0.9 0.9h0.2l-0.4-17.5c0-1.2-0.1-2-0.3-2.5 -0.2-0.5-0.5-0.8-1-1 -0.2-0.1-0.5-0.2-0.9-0.2 -0.4 0-0.7 0-1.2 0 -0.4 0-0.6-0.1-0.6-0.3 0-0.1 0.1-0.2 0.3-0.3 0.2-0.1 0.4-0.1 0.8-0.1 0.9 0 2 0 3.4 0.1 0.6 0 1.1 0 1.4 0 0.1 0 0.3 0 0.7 0 1.2-0.1 2.3-0.1 3.1-0.1 0.3 0 0.5 0 0.7 0.1 0.1 0.1 0.2 0.1 0.2 0.3 0 0.2-0.2 0.4-0.7 0.4 -0.5 0-0.9 0-1.2 0.1 -0.5 0.2-0.9 0.5-1.1 1 -0.2 0.5-0.3 1.3-0.3 2.4l-0.4 24.6c0 0.8-0.2 1.2-0.5 1.2 -0.2 0-0.4-0.1-0.6-0.2 -0.2-0.1-0.5-0.4-0.7-0.6 -0.6-0.6-1.4-1.4-2.6-2.5 -1.1-1.1-2.4-2.4-3.8-3.8 -2.5-2.5-4.3-4.3-5.2-5.2 -0.8-0.8-1.6-1.6-2.5-2.5 -0.8-0.9-1.6-1.7-2.3-2.4 -0.7-0.7-1.4-1.5-2.2-2.4 -0.8-0.9-1.3-1.4-1.5-1.6 -0.5-0.6-0.8-0.9-0.9-0.9h-0.1L228.2 558.9z"/>
      <path d="M270 546.1c0-3.1 0-5.2 0-6 0-0.9 0-1.6-0.1-2.3 -0.1-0.7-0.2-1.2-0.4-1.5 -0.2-0.3-0.6-0.6-1.3-0.7 -0.3-0.1-0.8-0.1-1.5-0.1 -0.4 0-0.7-0.1-0.7-0.3 0-0.2 0.3-0.3 0.9-0.3 0.7 0 1.9 0 3.6 0.1 1.1 0 1.8 0 2.1 0 0.3 0 1 0 2 0 1.4-0.1 2.4-0.1 2.8-0.1 0.6 0 0.9 0.1 0.9 0.3 0 0.2-0.2 0.4-0.6 0.4 -0.3 0-0.7 0-1.1 0.1 -0.5 0.1-0.9 0.3-1.1 0.7 -0.2 0.3-0.3 0.9-0.4 1.6 0 0.6-0.1 1.4-0.1 2.3 0 0.9 0 2.9 0 6v5.5c0 2.7 0.3 4.7 0.8 6.2s1.3 2.6 2.3 3.4c0.8 0.6 1.6 1.1 2.4 1.3 0.8 0.2 1.6 0.3 2.5 0.3 1 0 1.9-0.2 2.9-0.5 1-0.3 1.8-0.9 2.5-1.6 1-1 1.6-2.2 1.9-3.7 0.3-1.5 0.4-3.5 0.4-6v-4.9c0-3.1 0-5.2 0-6 0-0.9 0-1.6-0.1-2.3 -0.1-0.7-0.2-1.2-0.4-1.5 -0.2-0.3-0.6-0.6-1.3-0.7 -0.1 0-0.3 0-0.6-0.1 -0.3 0-0.5 0-0.8 0 -0.4 0-0.7-0.1-0.7-0.3 0-0.2 0.3-0.3 0.8-0.3 0.7 0 1.4 0 2.2 0 0.8 0 1.5 0.1 2.2 0.1 0.1 0 0.1 0 0.1 0 0.1 0 0.5 0 1.1 0 0.5 0 1.1 0 1.7-0.1 0.6 0 1.2 0 1.6 0 0.5 0 0.8 0.1 0.8 0.3 0 0.2-0.2 0.4-0.7 0.4 -0.3 0-0.7 0-1.1 0.1 -0.5 0.1-0.9 0.3-1.1 0.7 -0.2 0.3-0.3 0.9-0.4 1.6 -0.1 0.6-0.1 1.4-0.1 2.3 0 0.9 0 2.9 0 6v4.2c0 1.3 0 2.4-0.1 3.5 -0.1 1-0.3 2.1-0.5 3.1 -0.2 1-0.6 2-1.1 2.9 -0.5 0.9-1.2 1.7-1.9 2.3 -1.3 1.1-2.6 1.8-3.9 2.2 -1.3 0.4-2.7 0.6-4.2 0.6 -0.7 0-1.3 0-2-0.1 -0.7-0.1-1.4-0.2-2.1-0.3 -0.8-0.2-1.5-0.4-2.3-0.8 -0.8-0.4-1.5-0.9-2.2-1.5 -1.1-1-1.9-2.3-2.6-3.9 -0.6-1.6-0.9-3.8-0.9-6.4V546.1z"/>
      <path d="M314.1 564.6c-0.9-0.2-1.8-0.4-2.6-0.8 -0.3-0.1-0.5-0.3-0.6-0.4 -0.1-0.2-0.1-0.5-0.1-0.9 0-0.8 0-1.6 0.1-2.5 0-0.9 0.1-1.7 0.1-2.5v-0.1c0.1-0.7 0.2-1 0.5-1 0.2 0 0.3 0.1 0.3 0.2 0.1 0.1 0.1 0.3 0.1 0.5 0 0.2 0 0.5 0.1 0.9 0.1 0.4 0.1 0.7 0.3 1.1 0.4 1.4 1.1 2.3 2.1 3 1 0.6 2.2 1 3.5 1 1.6 0 2.9-0.5 3.8-1.4 0.9-0.9 1.4-1.9 1.4-3.1 0-1.1-0.3-2.1-0.8-3.1 -0.5-1-1.5-2-3-3.2l-1.8-1.4c-2.1-1.6-3.6-3.2-4.4-4.6 -0.9-1.5-1.3-3-1.3-4.6 0-2.2 0.8-3.9 2.5-5.3 1.7-1.4 3.8-2.1 6.5-2.1 1.1 0 2.1 0.1 2.9 0.2 0.8 0.1 1.6 0.3 2.3 0.5 0.4 0.1 0.5 0.2 0.5 0.5 0 0.1 0 0.3 0 0.6 0 0.5-0.1 1.1-0.1 1.8 0 0.7 0 1.4 0 2.3 0 0.8-0.1 1.2-0.4 1.2 -0.3 0-0.4-0.2-0.4-0.7 0-0.3-0.1-0.7-0.2-1.2 -0.2-0.5-0.4-1-0.8-1.4 -0.4-0.5-1-1-1.6-1.3 -0.6-0.4-1.5-0.6-2.7-0.6 -1.4 0-2.5 0.4-3.4 1.1 -0.8 0.7-1.3 1.7-1.3 2.9 0 0.9 0.3 1.8 0.9 2.6 0.6 0.8 1.7 1.8 3.3 3l1.1 0.8c2.3 1.8 4 3.5 5 5 1 1.5 1.4 3.2 1.4 5 0 1.3-0.3 2.5-0.9 3.7 -0.6 1.2-1.5 2.2-2.8 3.1 -0.9 0.6-1.9 1-2.9 1.2 -1 0.2-2.1 0.4-3.3 0.4C316 564.8 315 564.7 314.1 564.6z"/>
      <path d="M376.9 563.6c-3.1-0.9-5.8-2.4-8.2-4.5 -2.5-2.2-4.2-4.6-5.2-7.4 -1-2.7-1.5-5.6-1.5-8.6 0-1 0.1-2.2 0.3-3.4 0.2-1.2 0.5-2.5 1-3.8 0.5-1.3 1.1-2.7 2-4 0.8-1.3 1.9-2.5 3.1-3.7 2.1-1.9 4.5-3.3 7.2-4.3 2.7-1 6.1-1.5 9.9-1.5 1.6 0 2.9 0 4.1 0.1 1.2 0.1 2.4 0.2 3.8 0.4 0.6 0.1 1.5 0.2 2.8 0.5 1.2 0.2 2.1 0.4 2.7 0.4 0.5 0 0.8 0.3 0.8 0.7 0 0.1 0 0.3-0.1 0.7 -0.1 0.7-0.2 1.5-0.2 2.3 0 0.6-0.1 1.7-0.1 3.1 0 1.5-0.1 2.4-0.1 2.8 0 0.8-0.3 1.2-0.7 1.2 -0.4 0-0.5-0.4-0.5-1.2 0-0.9-0.2-1.7-0.6-2.6 -0.4-0.9-0.9-1.7-1.5-2.4 -0.9-1-2.4-1.8-4.4-2.4 -2-0.6-4.2-1-6.6-1 -2.3 0-4.2 0.3-5.9 0.8 -1.6 0.6-3.1 1.4-4.3 2.5 -1.8 1.7-3.1 3.7-3.9 6.1 -0.7 2.4-1.1 5-1.1 8 0 3.1 0.5 5.8 1.6 8.3 1 2.4 2.4 4.5 4.1 6.1 1.7 1.6 3.6 2.9 5.6 3.7 2 0.8 3.9 1.2 5.8 1.2 2.6 0 4.6-0.2 6.1-0.6 1.5-0.4 2.8-1.2 3.8-2.4 0.4-0.5 0.8-1 1.2-1.7 0.3-0.7 0.6-1.3 0.7-1.8 0.1-0.4 0.2-0.7 0.2-0.9 0.1-0.1 0.2-0.2 0.5-0.2 0.3 0 0.5 0.3 0.5 0.8 0 0.2 0 0.6-0.1 1.2 -0.1 0.6-0.2 1.3-0.3 2 -0.1 0.7-0.2 1.4-0.4 2.2 -0.1 0.8-0.3 1.4-0.4 1.8 -0.1 0.5-0.3 0.8-0.5 1 -0.2 0.2-0.5 0.4-1 0.6 -1 0.4-2.5 0.7-4.3 0.9 -1.8 0.2-3.6 0.3-5.5 0.3C383.4 565.1 380 564.6 376.9 563.6z"/>
      <path d="M420.8 546.1c0-3.1 0-5.2 0-6 0-0.9 0-1.6-0.1-2.3 -0.1-0.7-0.2-1.2-0.4-1.5 -0.2-0.3-0.6-0.6-1.3-0.7 -0.3-0.1-0.8-0.1-1.5-0.1 -0.4 0-0.7-0.1-0.7-0.3 0-0.2 0.3-0.3 0.9-0.3 0.6 0 1.9 0 3.6 0.1 1 0 1.7 0 2 0 6 0 9.3 0 9.8 0 0.9-0.1 1.4-0.2 1.7-0.2 0.1 0 0.1 0 0.2-0.1 0.2-0.1 0.3-0.1 0.4-0.1 0.2 0 0.2 0.1 0.2 0.4 0 0.1 0 0.2 0 0.4 -0.1 0.7-0.2 1.4-0.3 2.2 0 0 0 0.3 0 0.8 0 0.4-0.1 0.7-0.1 1 0 0.3 0 0.6-0.1 0.7 -0.1 0.3-0.2 0.4-0.4 0.4 -0.2 0-0.4-0.2-0.4-0.5 0-0.2 0-0.4-0.1-0.7 0-0.3-0.1-0.5-0.2-0.7 -0.2-0.4-0.4-0.7-0.7-0.9 -0.3-0.2-1-0.4-1.9-0.5 -0.2 0-0.4 0-0.9-0.1 -0.4 0-1 0-1.9-0.1 -1.2 0-2.1 0-2.8 0 -0.2 0-0.3 0.1-0.3 0.4v9.9c0 0.3 0.1 0.4 0.3 0.4 1.2 0 2.4 0 3.7 0 1.3 0 2.1 0 2.6-0.1 1-0.1 1.6-0.3 1.9-0.6 0 0 0 0 0-0.1 0.3-0.3 0.5-0.4 0.6-0.4 0.2 0 0.3 0.1 0.3 0.3 0 0 0 0.1 0 0.4 -0.1 0.7-0.2 1.5-0.3 2.5 0 0.3-0.1 0.8-0.1 1.4 0 0.6-0.1 1-0.1 1.2 0 0.2 0 0.4-0.1 0.5 0 0.1-0.1 0.2-0.3 0.2 -0.2 0-0.3-0.1-0.3-0.4 0-0.1 0-0.2 0-0.4 0-0.4-0.1-0.8-0.1-1.1 -0.1-0.4-0.3-0.8-0.7-1 -0.3-0.3-0.8-0.4-1.5-0.5 -0.2 0-0.5 0-1-0.1 -0.5 0-1.1 0-1.7 0 -1.2 0-2.2 0-2.9 0 -0.2 0-0.2 0.1-0.2 0.4v3.1 6.1c0 0.7 0.1 1.3 0.2 1.7 0.1 0.4 0.3 0.7 0.7 1 0.3 0.2 0.8 0.4 1.4 0.5 0.6 0.1 1.4 0.1 2.4 0.1 0.8 0 1.5 0 2.1-0.1 0.6 0 1.1-0.2 1.6-0.4 0.5-0.2 0.9-0.6 1.2-1 0.3-0.4 0.5-1.1 0.6-1.9 0.1-0.4 0.2-0.6 0.4-0.6 0.1 0 0.2 0 0.3 0.2 0 0.1 0.1 0.3 0.1 0.5 0 0.2 0 0.5 0 0.9 0 0.4-0.1 0.8-0.1 1.3 -0.1 0.5-0.1 0.9-0.2 1.3 0 0.4-0.1 0.6-0.2 0.8 -0.1 0.5-0.3 0.8-0.5 0.9 -0.2 0.1-0.8 0.1-1.6 0.1 -1.6 0-2.9 0-3.9 0 -1.1 0-2.4-0.1-3.9-0.1 -1.4 0-2.4-0.1-3-0.1 -0.2 0-0.8 0-1.8 0 -1.5 0.1-2.5 0.1-3.1 0.1 -0.5 0-0.8-0.1-0.8-0.4 0-0.2 0.2-0.3 0.6-0.3 0.5 0 0.9-0.1 1.4-0.2 0.4-0.1 0.6-0.3 0.8-0.6 0.1-0.3 0.3-0.8 0.4-1.5 0.1-0.8 0.1-1.8 0.2-3 0-1.2 0-3 0-5.3V546.1z"/>
      <path d="M456.4 558.9c0 1.4 0.2 2.5 0.4 3.1 0.2 0.7 0.6 1.1 1 1.2 0.5 0.2 1.2 0.3 2 0.3 0.4 0 0.7 0.1 0.7 0.3 0 0.3-0.3 0.4-0.9 0.4 -1.1 0-2.3 0-3.7-0.1 -0.5 0-0.9 0-1.1 0 -0.1 0-0.3 0-0.7 0 -0.4 0-0.9 0-1.6 0 -0.7 0-1.3 0-2 0 -0.6 0-0.9-0.1-0.9-0.4 0-0.2 0.2-0.3 0.6-0.3 0.7 0 1.3-0.1 1.8-0.2 0.5-0.2 0.8-0.6 1-1.2 0.1-0.7 0.2-1.9 0.3-3.6l0.4-23.1c0-0.9 0.2-1.3 0.5-1.3 0.2 0 0.6 0.3 1.1 0.8 0.1 0.2 0.2 0.3 0.4 0.4 0 0 0.5 0.5 1.4 1.5 0.9 1 1.8 2 2.8 3 1 1.1 2.2 2.3 3.7 3.8 1.5 1.5 2.9 2.9 4.2 4.2 0.6 0.6 1.2 1.3 1.9 2s2 2.1 3.8 4c0.9 0.9 1.5 1.6 2 2.1 0.4 0.5 0.7 0.7 0.9 0.9h0.2l-0.4-17.5c0-1.2-0.1-2-0.3-2.5 -0.2-0.5-0.5-0.8-1-1 -0.2-0.1-0.5-0.2-0.9-0.2 -0.3 0-0.7 0-1.2 0 -0.4 0-0.6-0.1-0.6-0.3 0-0.1 0.1-0.2 0.3-0.3 0.2-0.1 0.4-0.1 0.8-0.1 0.9 0 2 0 3.4 0.1 0.7 0 1.1 0 1.4 0 0.1 0 0.3 0 0.7 0 1.2-0.1 2.3-0.1 3.1-0.1 0.3 0 0.5 0 0.7 0.1 0.1 0.1 0.2 0.1 0.2 0.3 0 0.2-0.2 0.4-0.7 0.4 -0.5 0-0.9 0-1.2 0.1 -0.5 0.2-0.9 0.5-1.1 1 -0.2 0.5-0.3 1.3-0.3 2.4l-0.4 24.6c0 0.8-0.2 1.2-0.5 1.2 -0.2 0-0.4-0.1-0.6-0.2 -0.2-0.1-0.5-0.4-0.7-0.6 -0.6-0.6-1.5-1.4-2.6-2.5 -1.1-1.1-2.4-2.4-3.8-3.8 -2.5-2.5-4.3-4.3-5.2-5.2 -0.8-0.8-1.6-1.6-2.5-2.5 -0.8-0.9-1.6-1.7-2.3-2.4 -0.7-0.7-1.4-1.5-2.2-2.4 -0.8-0.9-1.3-1.4-1.5-1.6 -0.5-0.6-0.8-0.9-0.9-0.9h-0.1L456.4 558.9z"/>
      <path d="M505 536.9l-5.8 0.2c-1.2 0.1-2 0.1-2.6 0.3 -0.5 0.1-0.9 0.4-1.2 0.8 -0.3 0.5-0.6 1-0.7 1.4 -0.1 0.3-0.2 0.5-0.4 0.5 -0.2 0-0.4-0.2-0.4-0.6 0-0.1 0-0.4 0.1-0.8 0.1-0.4 0.2-0.9 0.3-1.5 0.1-0.6 0.2-1.1 0.3-1.5 0.1-0.4 0.1-0.6 0.1-0.6 0.1-0.5 0.3-0.7 0.5-0.7 0.1 0 0.2 0 0.4 0.1 0.4 0.2 0.9 0.3 1.3 0.3 0.5 0.1 1.2 0.1 1.9 0.1 0.7 0 1.4 0.1 2 0.1h15.5c0.8 0 1.7-0.1 2.7-0.2h0l0.4-0.1c0.3-0.1 0.5-0.1 0.6-0.1 0.2 0 0.3 0.3 0.3 0.8 0 0.2 0 0.9 0 2 -0.1 1.3-0.1 2.1-0.1 2.5 -0.1 0.4-0.2 0.6-0.4 0.6 -0.3 0-0.4-0.3-0.4-0.8l0-0.4c-0.1-0.6-0.4-1.1-1.2-1.5 -0.7-0.4-1.9-0.6-3.5-0.7l-4.9-0.1v16c0 2.3 0 4.1 0 5.3 0 1.2 0.1 2.2 0.2 3 0.1 0.6 0.2 1.1 0.4 1.5 0.2 0.4 0.6 0.6 1.1 0.6 0.3 0 0.6 0.1 1 0.1 0.4 0 0.7 0.1 1 0.1 0.4 0 0.6 0.1 0.6 0.3 0 0.3-0.2 0.4-0.7 0.4 -1.1 0-2.5 0-4.3-0.1 -0.9 0-1.5 0-1.9 0 -0.2 0-0.8 0-1.8 0 -1.5 0.1-2.5 0.1-3.1 0.1 -0.5 0-0.8-0.1-0.8-0.4 0-0.2 0.2-0.3 0.6-0.3 0.5 0 0.9-0.1 1.4-0.2 0.4-0.1 0.6-0.3 0.8-0.6 0.2-0.4 0.3-0.9 0.4-1.5 0.1-0.8 0.1-1.8 0.2-3 0-1.2 0-3 0-5.3V536.9z"/>
      <path d="M536.2 546.1c0-3.1 0-5.2 0-6 0-0.9 0-1.6-0.1-2.3 -0.1-0.7-0.2-1.2-0.4-1.5 -0.2-0.3-0.6-0.6-1.3-0.7 -0.3-0.1-0.8-0.1-1.5-0.1 -0.4 0-0.7-0.1-0.7-0.3 0-0.2 0.3-0.3 0.9-0.3 0.7 0 1.9 0 3.6 0.1 1 0 1.7 0 2 0 6 0 9.3 0 9.8 0 0.9-0.1 1.4-0.2 1.7-0.2 0.1 0 0.1 0 0.2-0.1 0.2-0.1 0.3-0.1 0.4-0.1 0.2 0 0.2 0.1 0.2 0.4 0 0.1 0 0.2 0 0.4 -0.1 0.7-0.2 1.4-0.3 2.2 0 0 0 0.3 0 0.8 0 0.4-0.1 0.7-0.1 1 0 0.3-0.1 0.6-0.1 0.7 -0.1 0.3-0.2 0.4-0.4 0.4 -0.2 0-0.4-0.2-0.4-0.5 0-0.2 0-0.4-0.1-0.7 0-0.3-0.1-0.5-0.2-0.7 -0.2-0.4-0.4-0.7-0.7-0.9 -0.3-0.2-1-0.4-1.9-0.5 -0.2 0-0.4 0-0.9-0.1 -0.4 0-1.1 0-1.9-0.1 -1.2 0-2.1 0-2.8 0 -0.2 0-0.3 0.1-0.3 0.4v9.9c0 0.3 0.1 0.4 0.3 0.4 1.2 0 2.4 0 3.7 0 1.3 0 2.1 0 2.6-0.1 1-0.1 1.6-0.3 1.9-0.6 0 0 0 0 0-0.1 0.3-0.3 0.5-0.4 0.6-0.4 0.2 0 0.3 0.1 0.3 0.3 0 0 0 0.1 0 0.4 -0.1 0.7-0.2 1.5-0.3 2.5 0 0.3-0.1 0.8-0.1 1.4 0 0.6-0.1 1-0.1 1.2 0 0.2 0 0.4-0.1 0.5 0 0.1-0.1 0.2-0.3 0.2 -0.2 0-0.3-0.1-0.3-0.4 0-0.1 0-0.2 0-0.4 0-0.4-0.1-0.8-0.1-1.1 -0.1-0.4-0.3-0.8-0.7-1 -0.3-0.3-0.8-0.4-1.5-0.5 -0.2 0-0.5 0-1-0.1 -0.5 0-1.1 0-1.7 0 -1.2 0-2.2 0-2.9 0 -0.2 0-0.2 0.1-0.2 0.4v3.1 6.1c0 0.7 0.1 1.3 0.2 1.7 0.1 0.4 0.3 0.7 0.7 1 0.3 0.2 0.8 0.4 1.4 0.5 0.6 0.1 1.4 0.1 2.4 0.1 0.8 0 1.5 0 2.1-0.1 0.6 0 1.1-0.2 1.6-0.4 0.5-0.2 0.9-0.6 1.2-1 0.3-0.4 0.5-1.1 0.6-1.9 0.1-0.4 0.2-0.6 0.4-0.6 0.1 0 0.2 0 0.3 0.2 0 0.1 0.1 0.3 0.1 0.5 0 0.2 0 0.5 0 0.9s-0.1 0.8-0.1 1.3c-0.1 0.5-0.1 0.9-0.2 1.3 0 0.4-0.1 0.6-0.2 0.8 -0.1 0.5-0.3 0.8-0.5 0.9 -0.2 0.1-0.8 0.1-1.6 0.1 -1.6 0-2.9 0-3.9 0 -1.1 0-2.4-0.1-3.9-0.1 -1.4 0-2.4-0.1-3-0.1 -0.2 0-0.8 0-1.8 0 -1.5 0.1-2.5 0.1-3.1 0.1 -0.5 0-0.8-0.1-0.8-0.4 0-0.2 0.2-0.3 0.6-0.3 0.5 0 0.9-0.1 1.4-0.2 0.4-0.1 0.6-0.3 0.8-0.6 0.1-0.3 0.3-0.8 0.4-1.5 0.1-0.8 0.1-1.8 0.2-3 0-1.2 0-3 0-5.3V546.1z"/>
      <path d="M569.6 546.1c0-3.1 0-5.2 0-6 0-0.9 0-1.6-0.1-2.3 -0.1-0.7-0.2-1.2-0.4-1.5 -0.2-0.3-0.6-0.6-1.3-0.7 -0.3-0.1-0.8-0.1-1.5-0.1 -0.4 0-0.7-0.1-0.7-0.3 0-0.2 0.3-0.3 0.9-0.3 0.5 0 1.1 0 1.5 0s1.2 0 2.2 0.1c0.9 0 1.4 0 1.6 0 0.5 0 1.4 0 2.9-0.1 1.4 0 2.3 0 2.6 0 1.5 0 2.8 0.1 4 0.3 1.2 0.2 2.3 0.7 3.2 1.3 0.7 0.4 1.3 1.1 1.8 2.1 0.6 1 0.8 2 0.8 3.2 0 1.5-0.4 3-1.2 4.4 -0.8 1.4-2.1 2.8-4 4.4l1.4 1.7c3.4 4.3 5.8 7.1 7.1 8.6 0.9 1 1.8 1.6 2.4 2 0.7 0.4 1.3 0.6 1.9 0.7h0c0.4 0.1 0.8 0.1 1.1 0.1 0.3 0 0.5 0.1 0.5 0.3 0 0.3-0.2 0.4-0.7 0.4h-3.7c-1.1 0-1.9-0.1-2.5-0.2 -0.6-0.1-1.1-0.3-1.7-0.6 -0.8-0.4-1.6-1.1-2.3-1.9 -0.8-0.9-1.8-2.1-3-3.8 -0.5-0.7-1.2-1.6-2-2.8 -0.7-1-1.2-1.7-1.4-1.9 -0.2-0.3-0.4-0.5-0.5-0.6 -0.2-0.2-0.4-0.3-0.7-0.3l-3.4-0.1c-0.2 0-0.3 0.1-0.3 0.3v0.5c0 2.3 0 4.1 0 5.4 0 1.3 0.1 2.3 0.2 3 0.1 0.6 0.2 1.2 0.4 1.5 0.2 0.4 0.6 0.6 1.1 0.6 0.3 0 0.6 0.1 1 0.1 0.4 0 0.7 0.1 0.9 0.1 0.3 0 0.5 0.1 0.5 0.3 0 0.3-0.3 0.4-0.8 0.4s-1.1 0-1.6 0c-0.6 0-1.5 0-2.9-0.1 -0.6 0-1.1 0-1.3 0 -0.2 0-0.7 0-1.6 0 -1.4 0.1-2.5 0.1-3.2 0.1 -0.5 0-0.8-0.1-0.8-0.4 0-0.2 0.2-0.3 0.6-0.3 0.5 0 0.9-0.1 1.4-0.2 0.4-0.1 0.6-0.3 0.8-0.6 0.1-0.3 0.3-0.8 0.4-1.5 0.1-0.8 0.1-1.8 0.2-3 0-1.2 0-3 0-5.3V546.1zM574.2 549.1c0 0.4 0.1 0.6 0.4 0.7 0.4 0.1 0.9 0.2 1.4 0.3 0.5 0.1 1.1 0.1 1.6 0.1 0.8 0 1.3 0 1.7-0.1 0.4-0.1 0.7-0.3 1.1-0.5 0.7-0.5 1.2-1.2 1.7-2.2 0.4-1 0.6-2.2 0.6-3.7 0-1.3-0.2-2.4-0.6-3.4 -0.4-0.9-0.9-1.7-1.5-2.2 -0.6-0.6-1.3-1-2-1.2 -0.7-0.2-1.3-0.4-2-0.4 -1 0-1.7 0.1-2.1 0.2 -0.2 0.1-0.3 0.3-0.3 0.5V549.1z"/>
      <path d="M607.6 564.6c-0.9-0.2-1.8-0.4-2.6-0.8 -0.3-0.1-0.5-0.3-0.6-0.4s-0.1-0.5-0.1-0.9c0-0.8 0-1.6 0.1-2.5 0-0.9 0.1-1.7 0.1-2.5v-0.1c0.1-0.7 0.2-1 0.5-1 0.2 0 0.3 0.1 0.3 0.2 0.1 0.1 0.1 0.3 0.1 0.5 0 0.2 0 0.5 0.1 0.9 0.1 0.4 0.2 0.7 0.3 1.1 0.4 1.4 1.1 2.3 2.1 3 1 0.6 2.2 1 3.5 1 1.6 0 2.9-0.5 3.8-1.4 0.9-0.9 1.4-1.9 1.4-3.1 0-1.1-0.3-2.1-0.8-3.1 -0.5-1-1.5-2-3-3.2l-1.8-1.4c-2.1-1.6-3.6-3.2-4.4-4.6 -0.9-1.5-1.3-3-1.3-4.6 0-2.2 0.8-3.9 2.5-5.3 1.7-1.4 3.8-2.1 6.5-2.1 1.1 0 2.1 0.1 2.9 0.2 0.8 0.1 1.6 0.3 2.3 0.5 0.4 0.1 0.5 0.2 0.5 0.5 0 0.1 0 0.3 0 0.6 0 0.5-0.1 1.1-0.1 1.8 0 0.7 0 1.4 0 2.3 0 0.8-0.1 1.2-0.4 1.2 -0.3 0-0.4-0.2-0.4-0.7 0-0.3-0.1-0.7-0.2-1.2 -0.2-0.5-0.4-1-0.8-1.4 -0.4-0.5-1-1-1.6-1.3 -0.7-0.4-1.5-0.6-2.7-0.6 -1.4 0-2.5 0.4-3.4 1.1 -0.8 0.7-1.3 1.7-1.3 2.9 0 0.9 0.3 1.8 0.9 2.6 0.6 0.8 1.7 1.8 3.3 3l1.1 0.8c2.3 1.8 4 3.5 5 5 1 1.5 1.4 3.2 1.4 5 0 1.3-0.3 2.5-0.9 3.7 -0.6 1.2-1.5 2.2-2.8 3.1 -0.9 0.6-1.9 1-2.9 1.2 -1 0.2-2.1 0.4-3.3 0.4C609.5 564.8 608.5 564.7 607.6 564.6z"/>
    </g>
    <g class="icon">
      <path d="M98.8 204.7C98.5 92.5 189.8 0.7 302.3 0c113.1-0.7 205.3 91.2 205.5 204.6 0.2 113.8-93.5 204.2-204.2 204.5C190.9 409.4 99 317.7 98.8 204.7zM117.3 155.9c-0.3 0.6-0.6 1.3-0.9 1.9 -0.5 2.3-0.9 4.7-1.4 7 -0.9 4.7-1.8 9.4-2.6 14.2 -0.4 5.1-0.7 10.2-1.1 15.2 -1.9 19.9 7.5 36.6 15.4 53.7 2.4 8.7 7.5 16 12.3 23.4 16.2 24.7 36.7 44.7 65 55.3 23.2 8.7 47.5 3.3 58.1-14 12.9-21 13.4-43.8 5.5-66.7 -6.8-19.6-39.4-30.3-55.3-10.7 -6.1 7.6-13.8 13.9-20.7 20.9 -2.7 2.8-5.9 4.4-9.2 1.8 -3.5-2.7-2.4-6 0.1-9.1 1.3-1.5 3.7-2.8 2.1-6.1 -1.6 0.1-3.4 0.2-5.2 0.3 -3.9 0.3-7.2-0.7-7.6-5.1 -0.4-4.5 2.7-6 6.6-6.3 3.1-0.2 6.3-0.6 9.4-0.3 8.6 0.7 22.2-5.8 26.1-12.7 0.6-1.2 0.8-2-0.2-3.3 -4.7-5.6-21.1-5.6-25.3 0.4 -4.7 6.8-11.2 11.1-18.7 14.1 -2.9 1.2-5.7 0.7-7.3-2.5 -1.6-3.1-0.5-5.6 2.2-7.4 2.6-1.7 5.5-3.1 8.1-4.9 2.2-1.6 5.9-2.9 4.8-6.2 -0.8-2.5-4.4-1.9-6.7-2.1 -6.9-0.7-11.4-2.7-7.4-10.7 1.6-0.6 4.4 0.2 4.4-2.1 0.1-2.3-2.7-3-4.3-4.2 -0.1-1.7-0.2-3.3-0.3-5 6.2-4.5 10.7-0.8 14.8 3.4 8.3 8.4 16.8 15.5 30 14 6.3-0.7 12.5 2.2 17 7 3.6 3.8 7.7 4.6 12.7 4.8 20.2 0.7 35.4 12.3 42 31.4 5.3 15.4 5.2 31.3 2.3 47 -6.7 36.3-31.3 54.3-67.8 48.5 -29.5-4.7-51.9-22.3-70.7-44.7 -6.9-8.3-13.2-17.1-19.8-25.7 8 26.4 23 48.1 40.8 68.5 15 17.2 33.1 23.8 55.3 23.7 34.9-0.1 57.2-16.1 65.4-50.2 7.1-29.6 4.9-59.2-5.2-87.9 -5.5-15.7-13.1-30.3-25.9-41.5 -4-3.5-8.4-8.4-14-6.7 -10.2 3.1-24.2-2.2-29.5 12.9 -0.9 2.5-4.4 3.6-7.4 1.6 -2.5-1.6-3-3.8-2.3-6.6 2.4-9.1-0.5-12.8-10.3-12.2 -8 0.4-15.8 0.1-23.7-0.8 -5.3-8.2-4.4-9.9 5.7-11.4 4.5 1 10.1 3.6 12.8-0.8 1.9-3.1-2.9-6.9-5.3-10 -1.3-1.7-2.4-3.6-3.5-5.5l0.3-0.5c9.9-13.1 14.3 7.9 23 3.8 1.9-0.9 3.1 1.6 3.3 3.7 0.1 0.9 0.1 2-0.2 2.8 -3.9 8.7 1.3 11.3 8.3 12.9 6.9 1.6 13.8 1.4 20.7 0.1 3.5-0.7 4.9-1.9 3.8-5.7 -2.5-9.3-6.2-18-13.5-24.6 -3-2.7-6.3-5.8-10.9-3.9 -12.1 4.8-23.6 1.5-35.1-2.5 -0.7-1.3-1.3-2.6-2-3.9 0.2-1.2 0.4-2.3 0.7-3.5 1.1-0.9 2.2-1.8 3.3-2.7 5.2 1 10.4 2.1 15.7 3.1 2.8 0.5 6.1 1.6 8-0.8 1.9-2.4-1.4-4.3-2.4-6.4 -1.5-3.1-2.5-6.2 0.7-8.5 3.4-2.4 6.4-1.2 8.9 2.1 3.1 3.9 4.9 9.3 9.7 11.3 16.5 7 23.2 21.2 28.1 37 1.1 3.6 0.2 8.6 5.6 9.9 0.3 0.4 0.8 0.6 1.3 0.6 17.9 13.2 28.8 31.3 36.5 51.7 9.9 26.3 10.7 53.6 9.2 81.1l-0.1 0.6 0.6 0.2c-0.4 1-0.8 2-1.2 2.9 -0.1 1.3-0.3 2.6-0.4 3.9 -3.6 14.2-8.4 28-17.2 40 -1 1.1-2 2.3-3 3.4 -7.6 7.4-16.5 12.7-25.9 17.4 -3.9 1-7.8 2-11.6 3.1 -8.8 0.6-17.6 1.3-29.2 2.1 15.3 7.7 28.2 13.8 42.5 16.2l-0.1-0.2c0.7 0.4 1.4 0.7 2.1 1.1 1.3 0.2 2.7 0.4 4 0.7 2.9 1.7 6.2 2.2 9.5 2l0.5 0.3 0.5-0.2c0.9 0.3 1.7 0.6 2.6 0.8 4.7 1.1 9.5 1.7 14.4 1.1 1.4 1.2 3 1.3 4.7 1 1.4 0 2.7 0 4.1 0.1l0.9 0.2 0.9-0.1c3.9 0 7.7 0 11.6-0.1 12.9-0.1 25.6-1.3 38-5.2 1.3-0.2 2.6-0.4 3.9-0.7 0.8-0.3 1.5-0.6 2.3-1 1.8-0.5 3.6-1 5.5-1.5 11.4-2.6 21.8-7.3 32-14 -24.5-0.7-46.3-7.2-63.1-25.6l-0.4-0.6c-2.8-4.2-5.6-8.4-8.3-12.6 -1-2.3-2-4.6-2.9-6.9 -0.4-0.7-0.8-1.4-1.2-2.2 -1.3-4.3-2.6-8.7-3.9-13 -2.3-16-3.8-32-2.3-48.2 3.6-39.5 13.6-75.8 49.1-99.6 1.2-0.8 2.2-2.5 2.3-3.9 2.7-28.5 28.9-38.8 44.3-57.5 1.8 0.8 3.5 1.6 5.3 2.3 2.4 6-3.2 9.7-4.8 14.9 6 2 11 1.7 16.3-1.5 3.3-2 7.8-2.1 9.5 2.7 1.5 4.2-1.5 6.6-5.1 7.7 -7.6 2.4-15.7 5.5-23.2 2.8 -11.8-4.4-18 1.5-23 10.2 -3.7 6.4-10.3 14.8-5.9 20.5 4.6 5.9 14.7 3 22.5 1.3 7.2-1.6 10.8-4.8 6.8-12.6 -2.3-4.5-0.5-9.7 4.6-8.3 5.8 1.5 7.9-1.4 11.1-4.2 2.6-2.3 5.7-3 8.5-0.4 3.1 2.8 1.8 5.6-0.4 8.3 -1 1.2-2.2 2.4-3 3.7 -1.5 2.3-4.4 4.9-2.7 7.4 0.9 1.4 4.7 1 7.1 1.2 1.6 0.1 3.2-0.2 4.7-0.5 4.3-0.7 8.9-1 9.4 4.8 0.5 5.6-4.4 6-8.5 6.7 -6.3 1.1-12.6 0.3-18.9-0.1 -7.8-0.4-13.3 4.5-11 9.3 1.8 3.7 3.8 7.3-0.7 9.7 -5.5 2.9-7.8-1.7-10.4-5.3 -1.6-2.2-1.2-5.3-4.7-6.6 -19.3-6.7-30.7-2.8-43.1 15 -1.2 1.8-2.4 3.6-3.6 5.4 -24.1 38.7-28.6 80.5-14.6 123 13.5 41.3 71.9 54.8 104.9 26.3 15.4-13.3 27.7-29.2 37.8-46.7 2.1-3.7 5.5-6.9 5-13.1 -3.8 4.5-6.8 8.1-9.8 11.6 -20.7 23.9-45.5 40.1-78.3 41.2 -20.3 0.6-37.6-4.1-50.3-22.1 -11.8-16.7-13.9-34.9-13-54.1 1.1-22.9 10.3-40.9 32.8-50 6.1-0.8 12.2-1.5 18.3-2.3 6.7-0.8 9.6-8.1 15.8-9.5 16.5-3.6 33-6.8 44.1-21.6 1.9-2.5 5.9-2.5 8.3 0.6 2.1 2.6 1.4 5.3-0.8 7.7 -1.2 1.3-4.2 1.8-1.5 5 6.6 7.8 5.9 9.3-3.8 11.3 -2.6 0.5-5.7-0.2-7.8 2.5 2.3 6.1 8.2 7.6 12.8 10.6 3.2 2.1 4.3 4.9 2.5 8 -1.6 2.8-4.5 3.2-7.5 1.9 -6.2-2.6-11.9-6-16.2-11.3 -6.7-8.2-17.5-9.7-26.1-3.8 -2.3 1.5-3.6 2.7-0.7 4.8 8.4 6.2 14.3 17.1 28.3 12.2 4.9-1.7 13.5-1.7 13.4 8.4 -0.7 0.8-1.3 1.6-2 2.4 -4 2.3-8.9-1.5-13.4 1.4 3.4 4.9 9.2 8.4 4.9 14.9 -2.3 0.1-4.6 0.2-6.9 0.4 -8.2-8.3-16.5-16.5-24.7-24.9 -6.4-6.5-14-9.3-23.1-8.4 -0.5-0.3-1-0.2-1.5 0.2 -21.5 1.5-33.6 16.7-34 42.7 0.1 4.5 0.2 9 0.3 13.4 0.3 1.6 0.7 3.1 1 4.7 0.1 1.6 0.3 3.1 0.4 4.7 3.7 22.5 15.6 35.6 36.9 38.4 23.4 3.1 44.6-3 63.2-18 28.9-23.2 45.5-54.5 58.3-88.2 1.5-3.9 1.4-8.1 0.8-12.2 0.9-7 0.6-13.9-0.3-20.9 -3.3-43.6-18.7-82-48.8-114.1l-0.2-0.2c-9.9-12.5-22-22.6-35.5-31.1l0.1 0.1c-20.2-14.4-42.4-24.3-67-28.6 -23.5-5.8-47.2-6.5-71-2.2 -0.8 0.2-1.6 0.5-2.4 0.7 -3.1 0-6.2-0.1-9 1.7 -12.7 1.8-24.8 5.7-36.2 11.7 -1.2 0.6-2.5 1.2-3.7 1.8 -9.1 2.9-17 7.9-24.5 13.6 -3.1 1.2-5.8 3-7.9 5.5 -10.4 6.8-19.6 14.8-27.4 24.6 -2.7 2.3-5.3 4.6-6.9 7.9 -12.3 13.5-21.9 28.7-28.4 45.8 -0.7 1.7-1.4 3.5-2.2 5.2 -0.4 0.7-0.8 1.5-1.2 2.2 -0.4 1.2-0.9 2.4-1.3 3.7 -2.5 5.5-4.9 11.1-5.2 17.3L117.3 155.9z"/>
      <path d="M404.8 97c-8.8 11.2-21.2 10.2-33.1 9 -6.9-0.7-11 1.9-16 5.7 -30.5 23.1-39.9 56.5-46.1 91.8 -1.7 9.6-4.1 19.1-7.5 28.7 -3.1-17.4-6.5-34.7-9.1-52.2 -2.9-19.1-9.5-36-25-48.5 -2.2-1.8-4.2-3.9-5.9-6.1 -10.3-12.9-21.3-23.7-40.4-19.3 -5.3 1.2-11.4-1.3-15.9-5.1 -2.8-2.4-4.6-5.8-2.3-9.3 2.5-3.8 5.6-2.3 9-0.3 9.8 5.7 11.4 5 11.6-4 0.4-0.2 0.4-0.5 0.2-0.8 3-2.3 6.1-3.3 9.7-1.3 0.8 0.8 2.3 2.3 2.4 2.3 1.7-1.5 0.8-3.1 0-4.8 -0.5-3.5-1-7.1-1.5-10.6 0.4-0.4 0.6-0.9 0.7-1.4 5.8-3.2 9.7-1.9 11.3 4.8 0.5 2.2 1.5 4.3 1.5 6.5 0.3 16.2 12 25.7 21.4 36.6 1.8 2.1 6 4.7 5.8-0.2 -0.5-11.4 7.8-24.3-5.4-34.2 -5.4-4-7.1-11.1-8.3-17.7 0-1.3 0-2.5 0-3.8 0.2-1.3 0.4-2.5 0.7-3.8 0 0 0.2-0.5 0.2-0.5 7.1-4.6 10.7-2.6 10.8 5.8 0 3.3 0.7 6.3 2.5 9.1 1.7 2.7 3.5 6.4 6.5 6.4 3.7 0 4.1-4.4 5-7.2 1.2-3.9 2.2-8 2.4-12 0.3-3.9 0.9-7.2 5.5-7.2 4.7 0 5.4 3.8 5.6 7.4 0.5 7.5-2.1 14.3-4.9 21.1 -2.7 6.4-6 12.3-7.6 19.3 -6 25.9 9 46.7 16.1 69.6 4.2-15.4 12.6-29.2 14.2-45.1 0.9-6.4 1-12.7-0.1-19.1 -0.1-6.8-2.2-13-5.3-19 -4.3-8.1-8.2-16.5-7.7-26.1 0.2-3.9 0.6-8.1 5.9-8 4.4 0.2 5.6 3.6 5.5 7.4 -0.2 5.6 1.4 10.6 3.6 15.6 1.9 4.3 3.9 4.1 6.9 1.1 4-4.1 5.6-9 5.5-14.7 -0.1-3.5 1.4-6.5 5.3-6.6 4.5-0.2 5.7 3.1 6 7 0.5 8-1.5 15.6-7.4 20.8 -7 6.2-9.7 12.7-6.6 21.6 0.8 2.3 0.2 5 0.5 7.6 0.2 1.7-1 4.1 1.5 4.9 1.9 0.6 3.6-0.5 5-1.9 4.5-4.4 7.1-10.5 12.5-14.1 5.2-3.5 7.4-8.3 7.7-14.4 0.2-3.7 1.3-7.5 2.3-11.1 2.4-8.5 5.2-9.2 12.5-3.6 0 1.1 0 2.2 0 3.3 -1 3-2 6-3.1 9.3 4.3-0.4 7.4-0.8 10.4-1.1l-0.1-0.1c1.2 1.8 2.7 3.4 2.6 5.8 -0.4 7.9 3 7.3 8.4 4 3.5-2.2 6.6-6.3 11.7-4.3C403.9 91.9 404.7 94.3 404.8 97z"/>
    </g>
	</symbol>

  <symbol id="icon" preserveAspectRatio="xMidYMid" viewBox="15 0 375 410">
    <g class="icon">
      <path d="M0 204.7C-0.2 92.5 91 0.7 203.5 0c113.1-0.7 205.3 91.2 205.5 204.6 0.2 113.8-93.5 204.2-204.2 204.5C92.2 409.4 0.2 317.7 0 204.7zM18.5 155.9c-0.3 0.6-0.6 1.3-0.9 1.9 -0.5 2.3-0.9 4.7-1.4 7 -0.9 4.7-1.8 9.4-2.6 14.2 -0.4 5.1-0.7 10.2-1.1 15.2 -1.9 19.9 7.5 36.6 15.4 53.7 2.4 8.7 7.5 16 12.3 23.4 16.2 24.7 36.7 44.7 65 55.3 23.2 8.7 47.5 3.3 58.1-14 12.9-21 13.4-43.8 5.5-66.7 -6.8-19.6-39.4-30.3-55.3-10.7 -6.1 7.6-13.8 13.9-20.7 20.9 -2.7 2.8-5.9 4.4-9.2 1.8 -3.5-2.7-2.4-6 0.1-9.1 1.3-1.5 3.7-2.8 2.1-6.1 -1.6 0.1-3.4 0.2-5.2 0.3 -3.9 0.3-7.2-0.7-7.6-5.1 -0.4-4.5 2.7-6 6.6-6.3 3.1-0.2 6.3-0.6 9.4-0.3 8.6 0.7 22.2-5.8 26.1-12.7 0.6-1.2 0.8-2-0.2-3.3 -4.7-5.6-21.1-5.6-25.3 0.4 -4.7 6.8-11.2 11.1-18.7 14.1 -2.9 1.2-5.7 0.7-7.3-2.5 -1.6-3.1-0.5-5.6 2.2-7.4 2.6-1.7 5.5-3.1 8.1-4.9 2.2-1.6 5.9-2.9 4.8-6.2 -0.8-2.5-4.4-1.9-6.7-2.1 -6.9-0.7-11.4-2.7-7.4-10.7 1.6-0.6 4.4 0.2 4.4-2.1 0.1-2.3-2.7-3-4.3-4.2 -0.1-1.7-0.2-3.3-0.3-5 6.2-4.5 10.7-0.8 14.8 3.4 8.3 8.4 16.8 15.5 30 14 6.3-0.7 12.5 2.2 17 7 3.6 3.8 7.7 4.6 12.7 4.8 20.2 0.7 35.4 12.3 42 31.4 5.3 15.4 5.2 31.3 2.3 47 -6.7 36.3-31.3 54.3-67.8 48.5 -29.5-4.7-51.9-22.3-70.7-44.7 -6.9-8.3-13.2-17.1-19.8-25.7 8 26.4 23 48.1 40.8 68.5 15 17.2 33.1 23.8 55.3 23.7 34.9-0.1 57.2-16.1 65.4-50.2 7.1-29.6 4.9-59.2-5.2-87.9 -5.5-15.7-13.1-30.3-25.9-41.5 -4-3.5-8.4-8.4-14-6.7 -10.2 3.1-24.2-2.2-29.5 12.9 -0.9 2.5-4.4 3.6-7.4 1.6 -2.5-1.6-3-3.8-2.3-6.6 2.4-9.1-0.5-12.8-10.3-12.2 -8 0.4-15.8 0.1-23.7-0.8 -5.3-8.2-4.4-9.9 5.7-11.4 4.5 1 10.1 3.6 12.8-0.8 1.9-3.1-2.9-6.9-5.3-10 -1.3-1.7-2.4-3.6-3.5-5.5l0.3-0.5c9.9-13.1 14.3 7.9 23 3.8 1.9-0.9 3.1 1.6 3.3 3.7 0.1 0.9 0.1 2-0.2 2.8 -3.9 8.7 1.3 11.3 8.3 12.9 6.9 1.6 13.8 1.4 20.7 0.1 3.5-0.7 4.9-1.9 3.8-5.7 -2.5-9.3-6.2-18-13.5-24.6 -3-2.7-6.3-5.8-10.9-3.9 -12.1 4.8-23.6 1.5-35.1-2.5 -0.7-1.3-1.3-2.6-2-3.9 0.2-1.2 0.4-2.3 0.7-3.5 1.1-0.9 2.2-1.8 3.3-2.7 5.2 1 10.4 2.1 15.7 3.1 2.8 0.5 6.1 1.6 8-0.8 1.9-2.4-1.4-4.3-2.4-6.4 -1.5-3.1-2.5-6.2 0.7-8.5 3.4-2.4 6.4-1.2 8.9 2.1 3.1 3.9 4.9 9.3 9.7 11.3 16.5 7 23.2 21.2 28.1 37 1.1 3.6 0.2 8.6 5.6 9.9 0.3 0.4 0.8 0.6 1.3 0.6 17.9 13.2 28.8 31.3 36.5 51.7 9.9 26.3 10.7 53.6 9.2 81.1l-0.1 0.6 0.6 0.2c-0.4 1-0.8 2-1.2 2.9 -0.1 1.3-0.3 2.6-0.4 3.9 -3.6 14.2-8.4 28-17.2 40 -1 1.1-2 2.3-3 3.4 -7.6 7.4-16.5 12.7-25.9 17.4 -3.9 1-7.8 2-11.6 3.1 -8.8 0.6-17.6 1.3-29.2 2.1 15.3 7.7 28.2 13.8 42.5 16.2l-0.1-0.2c0.7 0.4 1.4 0.7 2.1 1.1 1.3 0.2 2.7 0.4 4 0.7 2.9 1.7 6.2 2.2 9.5 2l0.5 0.3 0.5-0.2c0.9 0.3 1.7 0.6 2.6 0.8 4.7 1.1 9.5 1.7 14.4 1.1 1.4 1.2 3 1.3 4.7 1 1.4 0 2.7 0 4.1 0.1l0.9 0.2 0.9-0.1c3.9 0 7.7 0 11.6-0.1 12.9-0.1 25.6-1.3 38-5.2 1.3-0.2 2.6-0.4 3.9-0.7 0.8-0.3 1.5-0.6 2.3-1 1.8-0.5 3.6-1 5.5-1.5 11.4-2.6 21.8-7.3 32-14 -24.5-0.7-46.3-7.2-63.1-25.6l-0.4-0.6c-2.8-4.2-5.6-8.4-8.3-12.6 -1-2.3-2-4.6-2.9-6.9 -0.4-0.7-0.8-1.4-1.2-2.2 -1.3-4.3-2.6-8.7-3.9-13 -2.3-16-3.8-32-2.3-48.2 3.6-39.5 13.6-75.8 49.1-99.6 1.2-0.8 2.2-2.5 2.3-3.9 2.7-28.5 28.9-38.8 44.3-57.5 1.8 0.8 3.5 1.6 5.3 2.3 2.4 6-3.2 9.7-4.8 14.9 6 2 11 1.7 16.3-1.5 3.3-2 7.8-2.1 9.5 2.7 1.5 4.2-1.5 6.6-5.1 7.7 -7.6 2.4-15.7 5.5-23.2 2.8 -11.8-4.4-18 1.5-23 10.2 -3.7 6.4-10.3 14.8-5.9 20.5 4.6 5.9 14.7 3 22.5 1.3 7.2-1.6 10.8-4.8 6.8-12.6 -2.3-4.5-0.5-9.7 4.6-8.3 5.8 1.5 7.9-1.4 11.1-4.2 2.6-2.3 5.7-3 8.5-0.4 3.1 2.8 1.8 5.6-0.4 8.3 -1 1.2-2.2 2.4-3 3.7 -1.5 2.3-4.4 4.9-2.7 7.4 0.9 1.4 4.7 1 7.1 1.2 1.6 0.1 3.2-0.2 4.7-0.5 4.3-0.7 8.9-1 9.4 4.8 0.5 5.6-4.4 6-8.5 6.7 -6.3 1.1-12.6 0.3-18.9-0.1 -7.8-0.4-13.3 4.5-11 9.3 1.8 3.7 3.8 7.3-0.7 9.7 -5.5 2.9-7.8-1.7-10.4-5.3 -1.6-2.2-1.2-5.3-4.7-6.6 -19.3-6.7-30.7-2.8-43.1 15 -1.2 1.8-2.4 3.6-3.6 5.4 -24.1 38.7-28.6 80.5-14.6 123 13.5 41.3 71.9 54.8 104.9 26.3 15.4-13.3 27.7-29.2 37.8-46.7 2.1-3.7 5.5-6.9 5-13.1 -3.8 4.5-6.8 8.1-9.8 11.6 -20.7 23.9-45.5 40.1-78.3 41.2 -20.3 0.6-37.6-4.1-50.3-22.1 -11.8-16.7-13.9-34.9-13-54.1 1.1-22.9 10.3-40.9 32.8-50 6.1-0.8 12.2-1.5 18.3-2.3 6.7-0.8 9.6-8.1 15.8-9.5 16.5-3.6 33-6.8 44.1-21.6 1.9-2.5 5.9-2.5 8.3 0.6 2.1 2.6 1.4 5.3-0.8 7.7 -1.2 1.3-4.2 1.8-1.5 5 6.6 7.8 5.9 9.3-3.8 11.3 -2.6 0.5-5.7-0.2-7.8 2.5 2.3 6.1 8.2 7.6 12.8 10.6 3.2 2.1 4.3 4.9 2.5 8 -1.6 2.8-4.5 3.2-7.5 1.9 -6.2-2.6-11.9-6-16.2-11.3 -6.7-8.2-17.5-9.7-26.1-3.8 -2.3 1.5-3.6 2.7-0.7 4.8 8.4 6.2 14.3 17.1 28.3 12.2 4.9-1.7 13.5-1.7 13.4 8.4 -0.7 0.8-1.3 1.6-2 2.4 -4 2.3-8.9-1.5-13.4 1.4 3.4 4.9 9.2 8.4 4.9 14.9 -2.3 0.1-4.6 0.2-6.9 0.4 -8.2-8.3-16.5-16.5-24.7-24.9 -6.4-6.5-14-9.3-23.1-8.4 -0.5-0.3-1-0.2-1.5 0.2 -21.5 1.5-33.6 16.7-34 42.7 0.1 4.5 0.2 9 0.3 13.4 0.3 1.6 0.7 3.1 1 4.7 0.1 1.6 0.3 3.1 0.4 4.7 3.7 22.5 15.6 35.6 36.9 38.4 23.4 3.1 44.6-3 63.2-18 28.9-23.2 45.5-54.5 58.3-88.2 1.5-3.9 1.4-8.1 0.8-12.2 0.9-7 0.6-13.9-0.3-20.9 -3.3-43.6-18.7-82-48.8-114.1l-0.2-0.2c-9.9-12.5-22-22.6-35.5-31.1l0.1 0.1c-20.2-14.4-42.4-24.3-67-28.6 -23.5-5.8-47.2-6.5-71-2.2 -0.8 0.2-1.6 0.5-2.4 0.7 -3.1 0-6.2-0.1-9 1.7 -12.7 1.8-24.8 5.7-36.2 11.7 -1.2 0.6-2.5 1.2-3.7 1.8 -9.1 2.9-17 7.9-24.5 13.6 -3.1 1.2-5.8 3-7.9 5.5 -10.4 6.8-19.6 14.8-27.4 24.6 -2.7 2.3-5.3 4.6-6.9 7.9 -12.3 13.5-21.9 28.7-28.4 45.8 -0.7 1.7-1.4 3.5-2.2 5.2 -0.4 0.7-0.8 1.5-1.2 2.2 -0.4 1.2-0.9 2.4-1.3 3.7 -2.5 5.5-4.9 11.1-5.2 17.3L18.5 155.9z" />
      <path d="M306 97c-8.8 11.2-21.2 10.2-33.1 9 -6.9-0.7-11 1.9-16 5.7 -30.5 23.1-39.9 56.5-46.1 91.8 -1.7 9.6-4.1 19.1-7.5 28.7 -3.1-17.4-6.5-34.7-9.1-52.2 -2.9-19.1-9.5-36-25-48.5 -2.2-1.8-4.2-3.9-5.9-6.1 -10.3-12.9-21.3-23.7-40.4-19.3 -5.3 1.2-11.4-1.3-15.9-5.1 -2.8-2.4-4.6-5.8-2.3-9.3 2.5-3.8 5.6-2.3 9-0.3 9.8 5.7 11.4 5 11.6-4 0.4-0.2 0.4-0.5 0.2-0.8 3-2.3 6.1-3.3 9.7-1.3 0.8 0.8 2.3 2.3 2.4 2.3 1.7-1.5 0.8-3.1 0-4.8 -0.5-3.5-1-7.1-1.5-10.6 0.4-0.4 0.6-0.9 0.7-1.4 5.8-3.2 9.7-1.9 11.3 4.8 0.5 2.2 1.5 4.3 1.5 6.5 0.3 16.2 12 25.7 21.4 36.6 1.8 2.1 6 4.7 5.8-0.2 -0.5-11.4 7.8-24.3-5.4-34.2 -5.4-4-7.1-11.1-8.3-17.7 0-1.3 0-2.5 0-3.8 0.2-1.3 0.4-2.5 0.7-3.8 0 0 0.2-0.5 0.2-0.5 7.1-4.6 10.7-2.6 10.8 5.8 0 3.3 0.7 6.3 2.5 9.1 1.7 2.7 3.5 6.4 6.5 6.4 3.7 0 4.1-4.4 5-7.2 1.2-3.9 2.2-8 2.4-12 0.3-3.9 0.9-7.2 5.5-7.2 4.7 0 5.4 3.8 5.6 7.4 0.5 7.5-2.1 14.3-4.9 21.1 -2.7 6.4-6 12.3-7.6 19.3 -6 25.9 9 46.7 16.1 69.6 4.2-15.4 12.6-29.2 14.2-45.1 0.9-6.4 1-12.7-0.1-19.1 -0.1-6.8-2.2-13-5.3-19 -4.3-8.1-8.2-16.5-7.7-26.1 0.2-3.9 0.6-8.1 5.9-8 4.4 0.2 5.6 3.6 5.5 7.4 -0.2 5.6 1.4 10.6 3.6 15.6 1.9 4.3 3.9 4.1 6.9 1.1 4-4.1 5.6-9 5.5-14.7 -0.1-3.5 1.4-6.5 5.3-6.6 4.5-0.2 5.7 3.1 6 7 0.5 8-1.5 15.6-7.4 20.8 -7 6.2-9.7 12.7-6.6 21.6 0.8 2.3 0.2 5 0.5 7.6 0.2 1.7-1 4.1 1.5 4.9 1.9 0.6 3.6-0.5 5-1.9 4.5-4.4 7.1-10.5 12.5-14.1 5.2-3.5 7.4-8.3 7.7-14.4 0.2-3.7 1.3-7.5 2.3-11.1 2.4-8.5 5.2-9.2 12.5-3.6 0 1.1 0 2.2 0 3.3 -1 3-2 6-3.1 9.3 4.3-0.4 7.4-0.8 10.4-1.1l-0.1-0.1c1.2 1.8 2.7 3.4 2.6 5.8 -0.4 7.9 3 7.3 8.4 4 3.5-2.2 6.6-6.3 11.7-4.3C305.1 91.9 306 94.3 306 97z" />
    </g>
  </symbol>
</svg>