<?xml version="1.0" encoding="UTF-8" standalone="no"?>
<!DOCTYPE svg PUBLIC "-//W3C//DTD SVG 1.1//EN" "http://www.w3.org/Graphics/SVG/1.1/DTD/svg11.dtd">
<svg width="100%" height="100%" viewBox="0 0 4023 4167" version="1.1" xmlns="http://www.w3.org/2000/svg" xmlns:xlink="http://www.w3.org/1999/xlink" xml:space="preserve" xmlns:serif="http://www.serif.com/" style="fill-rule:evenodd;clip-rule:evenodd;stroke-linejoin:round;stroke-miterlimit:2;">
    <g id="stacked" transform="matrix(0.965417,0,0,1,0,0)">
        <rect x="0" y="0" width="4166.67" height="4166.67" style="fill:none;"/>
        <g id="Layer-1" serif:id="Layer 1" transform="matrix(4.31593,0,0,4.16667,-1.64868,-3.85)">
            <g transform="matrix(1,0,0,1,-11.45,0)">
                <g transform="matrix(1,0,0,1,237.381,703.299)">
                    <path d="M0,9.136C0.193,9.136 0.292,9.022 0.292,8.785L-4.98,-5.682L-4.98,-5.738C-5.057,-6.05 -5.156,-6.207 -5.273,-6.207C-5.429,-6.207 -5.547,-6.033 -5.623,-5.682L-11.012,8.726C-11.012,8.999 -10.934,9.136 -10.778,9.136L0,9.136ZM-11.949,12.066C-12.183,12.066 -12.359,12.223 -12.477,12.535L-15.64,20.91C-16.225,22.355 -16.517,23.544 -16.517,24.481C-16.517,25.069 -16.341,25.517 -15.99,25.829C-15.64,26.142 -15.033,26.297 -14.174,26.297L-13.296,26.297C-12.711,26.297 -12.418,26.456 -12.418,26.764C-12.418,27.157 -12.751,27.351 -13.412,27.351C-14.155,27.351 -15.21,27.334 -16.577,27.292C-18.098,27.215 -19.115,27.176 -19.62,27.176C-19.739,27.176 -20.168,27.195 -20.91,27.235C-21.496,27.235 -22.326,27.254 -23.399,27.292C-24.473,27.334 -25.516,27.351 -26.532,27.351C-27.274,27.351 -27.645,27.157 -27.645,26.764C-27.645,26.456 -27.41,26.297 -26.942,26.297C-26.357,26.297 -25.75,26.259 -25.126,26.181C-23.877,26.025 -22.9,25.527 -22.199,24.686C-21.496,23.847 -20.813,22.588 -20.149,20.91L-5.447,-15.871C-5.097,-16.768 -4.804,-17.385 -4.569,-17.715C-4.334,-18.047 -4.082,-18.215 -3.809,-18.215C-3.378,-18.215 -2.892,-17.589 -2.344,-16.342C-2.072,-15.754 -1.486,-14.328 -0.586,-12.066C0.311,-9.801 1.483,-6.848 2.927,-3.221C6.286,5.134 8.149,9.771 8.52,10.688C8.891,11.605 9.409,12.895 10.072,14.557C10.736,16.215 11.438,17.923 12.181,19.681C13.156,22.025 14.056,23.622 14.875,24.481C15.695,25.341 16.515,25.868 17.336,26.064C18.116,26.22 18.936,26.297 19.795,26.297C20.301,26.297 20.556,26.456 20.556,26.764C20.556,27 20.38,27.157 20.029,27.235C19.679,27.312 18.954,27.351 17.862,27.351L12.737,27.351C11.078,27.351 9.096,27.312 6.793,27.235L6.558,27.235C5.542,27.157 5.036,27 5.036,26.764C5.036,26.456 5.31,26.278 5.856,26.24C6.286,26.122 6.5,25.829 6.5,25.361C6.5,25.205 6.46,25.049 6.382,24.893L1.697,12.473C1.58,12.203 1.384,12.066 1.112,12.066L-11.949,12.066Z" style="fill:currentColor;fill-rule:nonzero;"/>
                </g>
                <g transform="matrix(1,0,0,1,279.671,711.072)">
                    <path d="M0,7.303C0,10.476 0.049,12.696 0.148,13.964C0.245,15.227 0.491,16.028 0.884,16.366C1.279,16.702 1.835,16.945 2.551,17.085C3.268,17.224 4.413,17.295 5.988,17.295C7.337,17.295 8.376,17.224 9.109,17.085C9.839,16.945 10.443,16.619 10.922,16.115C11.174,15.831 11.412,15.447 11.638,14.951C11.863,14.461 11.989,14.005 12.018,13.583C12.073,13.161 12.229,12.951 12.482,12.951C12.707,12.951 12.819,13.191 12.819,13.666C12.819,13.81 12.804,14.054 12.777,14.405C12.749,14.756 12.7,15.227 12.629,15.82C12.56,16.41 12.489,16.937 12.418,17.398C12.349,17.864 12.271,18.237 12.186,18.515C12.046,18.995 11.834,19.305 11.555,19.446C11.273,19.585 10.599,19.654 9.53,19.654C8.012,19.654 6.689,19.644 5.567,19.615C4.441,19.585 3.121,19.541 1.602,19.486C-0.283,19.432 -1.729,19.403 -2.741,19.403C-2.965,19.403 -3.627,19.416 -4.723,19.446C-6.353,19.502 -7.464,19.532 -8.054,19.532C-8.617,19.532 -8.898,19.388 -8.898,19.11C-8.898,18.883 -8.672,18.771 -8.224,18.771C-7.717,18.771 -7.211,18.714 -6.705,18.605C-6.312,18.515 -6.038,18.29 -5.884,17.926C-5.729,17.561 -5.596,17.014 -5.483,16.282C-5.398,15.466 -5.341,14.393 -5.314,13.054C-5.285,11.72 -5.271,9.803 -5.271,7.303L-5.271,-6.617C-5.271,-7.542 -5.3,-8.356 -5.355,-9.063C-5.412,-9.821 -5.56,-10.376 -5.799,-10.728C-6.038,-11.078 -6.494,-11.322 -7.168,-11.466C-7.506,-11.549 -7.97,-11.593 -8.561,-11.593C-9.039,-11.593 -9.277,-11.718 -9.277,-11.97C-9.277,-12.224 -8.967,-12.351 -8.35,-12.351C-7.675,-12.351 -6.467,-12.322 -4.723,-12.267C-3.542,-12.239 -2.825,-12.224 -2.572,-12.224C-2.348,-12.224 -1.602,-12.239 -0.337,-12.267C1.461,-12.322 2.628,-12.351 3.162,-12.351C3.754,-12.351 4.047,-12.224 4.047,-11.97C4.047,-11.718 3.794,-11.593 3.289,-11.593C2.699,-11.593 2.15,-11.549 1.645,-11.466C1.083,-11.351 0.696,-11.112 0.485,-10.748C0.274,-10.381 0.141,-9.821 0.084,-9.063C0.027,-8.356 0,-7.542 0,-6.617L0,7.303Z" style="fill:currentColor;fill-rule:nonzero;"/>
                </g>
                <g transform="matrix(1,0,0,1,314.544,711.072)">
                    <path d="M0,7.303C0,10.476 0.048,12.696 0.147,13.964C0.246,15.227 0.491,16.028 0.885,16.366C1.279,16.702 1.834,16.945 2.55,17.085C3.268,17.224 4.412,17.295 5.989,17.295C7.336,17.295 8.377,17.224 9.108,17.085C9.839,16.945 10.443,16.619 10.921,16.115C11.173,15.831 11.413,15.447 11.637,14.951C11.863,14.461 11.99,14.005 12.017,13.583C12.074,13.161 12.228,12.951 12.481,12.951C12.707,12.951 12.819,13.191 12.819,13.666C12.819,13.81 12.804,14.054 12.775,14.405C12.749,14.756 12.699,15.227 12.629,15.82C12.558,16.41 12.489,16.937 12.419,17.398C12.348,17.864 12.271,18.237 12.186,18.515C12.046,18.995 11.835,19.305 11.554,19.446C11.273,19.585 10.598,19.654 9.53,19.654C8.013,19.654 6.689,19.644 5.566,19.615C4.441,19.585 3.12,19.541 1.601,19.486C-0.282,19.432 -1.729,19.403 -2.742,19.403C-2.967,19.403 -3.626,19.416 -4.722,19.446C-6.354,19.502 -7.464,19.532 -8.054,19.532C-8.617,19.532 -8.898,19.388 -8.898,19.11C-8.898,18.883 -8.673,18.771 -8.223,18.771C-7.718,18.771 -7.212,18.714 -6.706,18.605C-6.311,18.515 -6.038,18.29 -5.882,17.926C-5.729,17.561 -5.595,17.014 -5.482,16.282C-5.397,15.466 -5.343,14.393 -5.313,13.054C-5.286,11.72 -5.271,9.803 -5.271,7.303L-5.271,-6.617C-5.271,-7.542 -5.3,-8.356 -5.356,-9.063C-5.414,-9.821 -5.56,-10.376 -5.798,-10.728C-6.038,-11.078 -6.494,-11.322 -7.17,-11.466C-7.506,-11.549 -7.97,-11.593 -8.56,-11.593C-9.04,-11.593 -9.278,-11.718 -9.278,-11.97C-9.278,-12.224 -8.969,-12.351 -8.351,-12.351C-7.675,-12.351 -6.467,-12.322 -4.722,-12.267C-3.542,-12.239 -2.825,-12.224 -2.572,-12.224C-2.349,-12.224 -1.602,-12.239 -0.338,-12.267C1.461,-12.322 2.628,-12.351 3.162,-12.351C3.754,-12.351 4.048,-12.224 4.048,-11.97C4.048,-11.718 3.795,-11.593 3.288,-11.593C2.699,-11.593 2.15,-11.549 1.644,-11.466C1.082,-11.351 0.695,-11.112 0.485,-10.748C0.274,-10.381 0.14,-9.821 0.085,-9.063C0.027,-8.356 0,-7.542 0,-6.617L0,7.303Z" style="fill:currentColor;fill-rule:nonzero;"/>
                </g>
                <g transform="matrix(1,0,0,1,344.147,718.156)">
                    <path d="M0,0.219L0,-13.701C0,-14.626 -0.028,-15.44 -0.085,-16.147C-0.141,-16.905 -0.289,-17.46 -0.527,-17.812C-0.766,-18.162 -1.222,-18.406 -1.897,-18.55C-2.236,-18.633 -2.782,-18.677 -3.542,-18.677C-4.021,-18.677 -4.259,-18.803 -4.259,-19.055C-4.259,-19.308 -3.949,-19.435 -3.332,-19.435C-2.629,-19.435 -1.323,-19.406 0.591,-19.351C1.686,-19.323 2.404,-19.308 2.741,-19.308C9.234,-19.308 12.749,-19.323 13.283,-19.351C14.211,-19.46 14.815,-19.545 15.096,-19.603C15.152,-19.603 15.237,-19.63 15.35,-19.688C15.545,-19.745 15.687,-19.773 15.771,-19.773C15.941,-19.773 16.024,-19.647 16.024,-19.392C16.024,-19.333 16.009,-19.211 15.982,-19.016C15.84,-18.308 15.742,-17.522 15.687,-16.652C15.687,-16.623 15.673,-16.328 15.645,-15.765C15.616,-15.372 15.589,-14.999 15.561,-14.652C15.531,-14.294 15.504,-14.038 15.476,-13.867C15.419,-13.558 15.279,-13.406 15.055,-13.406C14.8,-13.406 14.674,-13.601 14.674,-13.994C14.674,-14.221 14.653,-14.47 14.612,-14.755C14.568,-15.033 14.506,-15.289 14.422,-15.513C14.252,-15.935 13.985,-16.265 13.622,-16.504C13.255,-16.742 12.58,-16.921 11.595,-17.03C11.427,-17.059 11.111,-17.079 10.646,-17.094C10.183,-17.108 9.515,-17.128 8.646,-17.157C7.351,-17.186 6.339,-17.201 5.608,-17.201C5.412,-17.201 5.314,-17.059 5.314,-16.779L5.314,-6.107C5.314,-5.802 5.412,-5.645 5.608,-5.645C6.874,-5.645 8.203,-5.651 9.593,-5.666C10.986,-5.68 11.905,-5.704 12.355,-5.728C13.395,-5.816 14.07,-6.024 14.378,-6.36C14.407,-6.39 14.422,-6.421 14.422,-6.446C14.703,-6.756 14.913,-6.912 15.055,-6.912C15.251,-6.912 15.35,-6.797 15.35,-6.572C15.35,-6.544 15.335,-6.421 15.307,-6.194C15.166,-5.433 15.068,-4.534 15.011,-3.495C14.983,-3.13 14.949,-2.63 14.907,-1.997C14.864,-1.364 14.844,-0.923 14.844,-0.671C14.844,-0.413 14.823,-0.22 14.781,-0.08C14.738,0.063 14.631,0.131 14.463,0.131C14.211,0.131 14.084,0.004 14.084,-0.247C14.084,-0.332 14.07,-0.457 14.043,-0.629C14.014,-1.104 13.972,-1.487 13.915,-1.767C13.803,-2.215 13.563,-2.581 13.199,-2.86C12.832,-3.144 12.284,-3.326 11.554,-3.409C11.386,-3.438 11.034,-3.458 10.5,-3.473C9.966,-3.487 9.347,-3.495 8.646,-3.495C7.295,-3.521 6.268,-3.537 5.566,-3.537C5.397,-3.537 5.314,-3.394 5.314,-3.115L5.314,6.755C5.341,7.538 5.419,8.152 5.546,8.586C5.671,9.024 5.911,9.365 6.263,9.618C6.613,9.872 7.105,10.05 7.738,10.148C8.37,10.245 9.25,10.294 10.374,10.294C11.216,10.294 11.968,10.268 12.629,10.211C13.289,10.157 13.859,10.014 14.337,9.789C14.872,9.535 15.286,9.172 15.58,8.693C15.875,8.216 16.094,7.538 16.235,6.672C16.319,6.245 16.473,6.033 16.698,6.033C16.839,6.033 16.931,6.092 16.973,6.206C17.016,6.318 17.036,6.514 17.036,6.794C17.036,7.019 17.021,7.335 16.993,7.742C16.965,8.152 16.917,8.628 16.846,9.177C16.775,9.726 16.713,10.187 16.657,10.569C16.6,10.945 16.543,11.25 16.487,11.477C16.347,12.011 16.15,12.323 15.897,12.421C15.645,12.521 15.082,12.569 14.211,12.569C12.523,12.569 11.104,12.56 9.952,12.53C8.798,12.501 7.392,12.457 5.735,12.401C4.245,12.348 3.176,12.318 2.53,12.318C2.305,12.318 1.643,12.332 0.548,12.361C-1.083,12.418 -2.192,12.447 -2.782,12.447C-3.347,12.447 -3.626,12.304 -3.626,12.025C-3.626,11.799 -3.401,11.687 -2.952,11.687C-2.445,11.687 -1.94,11.63 -1.433,11.521C-1.041,11.431 -0.766,11.206 -0.612,10.842C-0.457,10.477 -0.324,9.93 -0.211,9.198C-0.127,8.382 -0.071,7.309 -0.042,5.97C-0.013,4.636 0,2.719 0,0.219Z" style="fill:currentColor;fill-rule:nonzero;"/>
                </g>
                <g transform="matrix(1,0,0,1,385.135,715.042)">
                    <path d="M0,-0.761C0,-0.368 0.125,-0.114 0.38,-0.001C0.799,0.141 1.299,0.244 1.878,0.316C2.452,0.386 3.02,0.421 3.584,0.421C4.398,0.421 5.004,0.372 5.398,0.273C5.791,0.176 6.183,-0.016 6.577,-0.295C7.309,-0.829 7.905,-1.619 8.369,-2.658C8.835,-3.7 9.064,-5.02 9.064,-6.622C9.064,-8.027 8.862,-9.239 8.455,-10.248C8.045,-11.261 7.511,-12.07 6.853,-12.672C6.193,-13.278 5.487,-13.704 4.743,-13.96C3.999,-14.214 3.291,-14.34 2.614,-14.34C1.491,-14.34 0.745,-14.282 0.38,-14.17C0.125,-14.087 0,-13.889 0,-13.579L0,-0.761ZM-4.977,3.333L-4.977,-10.587C-4.977,-11.512 -5.006,-12.326 -5.06,-13.033C-5.118,-13.791 -5.266,-14.346 -5.503,-14.699C-5.741,-15.048 -6.2,-15.292 -6.874,-15.436C-7.212,-15.519 -7.758,-15.563 -8.519,-15.563C-8.996,-15.563 -9.236,-15.689 -9.236,-15.941C-9.236,-16.195 -8.925,-16.322 -8.31,-16.322C-7.717,-16.322 -7.163,-16.316 -6.644,-16.297C-6.124,-16.287 -5.314,-16.263 -4.217,-16.238C-3.233,-16.209 -2.672,-16.195 -2.53,-16.195C-2.024,-16.195 -0.985,-16.219 0.588,-16.278C2.079,-16.306 3.02,-16.322 3.415,-16.322C4.991,-16.322 6.416,-16.195 7.696,-15.941C8.975,-15.689 10.134,-15.209 11.174,-14.509C11.875,-14.029 12.53,-13.272 13.135,-12.229C13.739,-11.19 14.042,-10.022 14.042,-8.731C14.042,-7.071 13.625,-5.497 12.797,-4.007C11.968,-2.517 10.527,-0.943 8.478,0.715L9.95,2.568C13.635,7.209 16.195,10.286 17.625,11.807C18.638,12.844 19.516,13.558 20.261,13.936C21.003,14.315 21.687,14.561 22.308,14.674L22.349,14.674C22.828,14.757 23.22,14.801 23.528,14.801C23.867,14.801 24.036,14.913 24.036,15.139C24.036,15.418 23.769,15.561 23.235,15.561L19.227,15.561C18.049,15.561 17.14,15.501 16.508,15.388C15.876,15.278 15.276,15.066 14.716,14.757C13.873,14.31 13.029,13.62 12.188,12.693C11.343,11.763 10.262,10.388 8.938,8.559C8.38,7.799 7.659,6.789 6.787,5.525C6.002,4.427 5.5,3.73 5.291,3.435C5.081,3.138 4.904,2.906 4.766,2.74C4.594,2.544 4.344,2.443 4.005,2.443L0.336,2.36C0.113,2.36 0,2.472 0,2.701L0,3.289C0,5.789 0.015,7.716 0.039,9.064C0.068,10.415 0.125,11.496 0.211,12.312C0.294,13.014 0.441,13.558 0.652,13.936C0.863,14.315 1.265,14.545 1.854,14.635C2.192,14.659 2.549,14.695 2.932,14.737C3.31,14.781 3.641,14.801 3.922,14.801C4.258,14.801 4.427,14.913 4.427,15.139C4.427,15.418 4.146,15.561 3.584,15.561C3.02,15.561 2.432,15.553 1.814,15.535C1.196,15.52 0.169,15.501 -1.265,15.475C-1.968,15.446 -2.417,15.432 -2.613,15.432C-2.839,15.432 -3.417,15.446 -4.344,15.475C-5.861,15.532 -7.001,15.561 -7.758,15.561C-8.323,15.561 -8.604,15.418 -8.604,15.139C-8.604,14.913 -8.379,14.801 -7.928,14.801C-7.423,14.801 -6.918,14.744 -6.411,14.635C-6.016,14.545 -5.741,14.32 -5.589,13.956C-5.433,13.591 -5.3,13.044 -5.187,12.312C-5.104,11.496 -5.047,10.423 -5.021,9.084C-4.991,7.75 -4.977,5.833 -4.977,3.333Z" style="fill:currentColor;fill-rule:nonzero;"/>
                </g>
                <g transform="matrix(1,0,0,1,446.742,701.547)">
                    <path d="M0,26.227C0,26.79 -0.028,27.151 -0.083,27.305C-0.14,27.46 -0.294,27.605 -0.547,27.747C-1.811,28.393 -3.36,28.873 -5.184,29.178C-7.013,29.491 -8.852,29.644 -10.71,29.644C-13.382,29.644 -15.882,29.32 -18.216,28.675C-20.55,28.029 -22.617,27.03 -24.414,25.678C-26.213,24.33 -27.625,22.603 -28.652,20.496C-29.679,18.386 -30.192,15.925 -30.192,13.114C-30.192,9.963 -29.499,7.197 -28.106,4.805C-26.713,2.417 -24.962,0.59 -22.855,-0.675C-21.026,-1.773 -19.214,-2.504 -17.413,-2.868C-15.618,-3.234 -13.647,-3.417 -11.509,-3.417C-10.809,-3.417 -10.092,-3.397 -9.362,-3.355C-8.631,-3.311 -7.872,-3.249 -7.085,-3.165C-6.298,-3.08 -5.65,-3 -5.144,-2.931C-4.639,-2.861 -4.272,-2.797 -4.047,-2.743C-3.485,-2.627 -2.894,-2.529 -2.277,-2.446C-1.66,-2.363 -1.137,-2.307 -0.715,-2.278C-0.321,-2.249 -0.125,-2.08 -0.125,-1.773C-0.125,-1.685 -0.14,-1.534 -0.169,-1.307C-0.223,-0.69 -0.282,0.09 -0.335,1.032C-0.393,1.974 -0.422,3.344 -0.422,5.144C-0.422,5.736 -0.577,6.032 -0.884,6.032C-1.111,6.032 -1.252,5.848 -1.306,5.483C-1.389,4.805 -1.533,4.181 -1.728,3.605C-1.923,3.027 -2.262,2.488 -2.741,1.983C-3.499,1.168 -4.713,0.413 -6.388,-0.277C-8.061,-0.965 -9.979,-1.307 -12.143,-1.307C-13.691,-1.307 -15.138,-1.146 -16.486,-0.822C-17.836,-0.5 -19.172,0.207 -20.492,1.305C-21.733,2.347 -22.686,3.703 -23.36,5.377C-24.036,7.051 -24.375,9.138 -24.375,11.638C-24.375,13.886 -24.029,15.98 -23.34,17.922C-22.651,19.864 -21.658,21.549 -20.37,22.981C-19.075,24.415 -17.521,25.525 -15.706,26.312C-13.892,27.098 -11.892,27.495 -9.698,27.495C-8.911,27.495 -8.23,27.466 -7.653,27.408C-7.077,27.352 -6.562,27.227 -6.114,27.03C-5.582,26.776 -5.312,26.256 -5.312,25.471L-5.312,21.505C-5.312,19.035 -5.328,17.372 -5.354,16.529C-5.383,15.798 -5.523,15.249 -5.777,14.886C-6.028,14.518 -6.494,14.268 -7.165,14.126C-7.507,14.042 -8.053,13.998 -8.813,13.998C-9.235,13.998 -9.445,13.886 -9.445,13.661C-9.445,13.381 -9.15,13.239 -8.558,13.239C-7.8,13.239 -6.523,13.268 -4.723,13.327C-3.485,13.351 -2.727,13.366 -2.445,13.366C-2.106,13.366 -1.306,13.341 -0.042,13.283C1.083,13.253 1.924,13.239 2.489,13.239C3.052,13.239 3.331,13.381 3.331,13.661C3.331,13.886 3.15,13.998 2.782,13.998C2.533,13.998 2.15,14.042 1.645,14.126C1.083,14.239 0.684,14.479 0.443,14.842C0.204,15.21 0.072,15.774 0.042,16.529C0.012,17.372 0,19.059 0,21.591L0,26.227Z" style="fill:currentColor;fill-rule:nonzero;"/>
                </g>
                <g transform="matrix(1,0,0,1,472.592,709.645)">
                    <path d="M0,10.035C0,9.021 -0.079,8.228 -0.233,7.652C-0.388,7.075 -0.632,6.394 -0.971,5.607C-1.025,5.44 -1.378,4.821 -2.025,3.754C-2.671,2.682 -3.422,1.448 -4.281,0.041C-5.139,-1.365 -5.94,-2.671 -6.683,-3.88C-7.427,-5.09 -7.998,-5.976 -8.392,-6.536C-9.434,-8.055 -10.401,-9.082 -11.301,-9.616C-11.584,-9.757 -11.885,-9.88 -12.208,-9.994C-12.532,-10.107 -12.822,-10.165 -13.071,-10.165C-13.493,-10.165 -13.703,-10.291 -13.703,-10.543C-13.703,-10.797 -13.439,-10.924 -12.905,-10.924C-12.762,-10.924 -12.115,-10.908 -10.963,-10.88C-9.193,-10.821 -8.071,-10.797 -7.59,-10.797C-7.339,-10.797 -6.859,-10.812 -6.159,-10.84C-4.922,-10.895 -3.893,-10.924 -3.079,-10.924C-2.658,-10.924 -2.447,-10.797 -2.447,-10.543C-2.447,-10.404 -2.688,-10.263 -3.163,-10.121C-3.248,-10.121 -3.32,-10.107 -3.374,-10.082C-3.768,-9.994 -3.964,-9.743 -3.964,-9.32C-3.964,-9.038 -3.795,-8.563 -3.457,-7.89C-3.32,-7.577 -3.052,-7.079 -2.658,-6.39C-2.266,-5.701 -1.611,-4.556 -0.696,-2.953C0.215,-1.351 0.907,-0.142 1.37,0.676C1.834,1.488 2.334,2.347 2.868,3.244L3.712,4.72C3.795,4.497 4.139,3.842 4.743,2.761C5.349,1.681 6.046,0.42 6.829,-1.012C7.561,-2.336 8.251,-3.57 8.898,-4.724C9.543,-5.877 9.924,-6.594 10.037,-6.875C10.429,-7.748 10.625,-8.477 10.625,-9.068C10.625,-9.32 10.563,-9.538 10.438,-9.721C10.31,-9.904 10.077,-10.038 9.742,-10.121C9.487,-10.177 9.298,-10.237 9.173,-10.291C9.046,-10.346 8.982,-10.433 8.982,-10.543C8.982,-10.797 9.22,-10.924 9.698,-10.924C10.206,-10.924 10.909,-10.895 11.805,-10.84C12.649,-10.812 13.268,-10.797 13.662,-10.797C13.998,-10.797 14.802,-10.821 16.066,-10.88C17.245,-10.908 17.949,-10.924 18.175,-10.924C18.68,-10.924 18.934,-10.812 18.934,-10.587C18.934,-10.302 18.666,-10.165 18.133,-10.165C17.908,-10.165 17.62,-10.121 17.268,-10.038C16.915,-9.953 16.585,-9.826 16.278,-9.657C15.856,-9.458 15.496,-9.224 15.201,-8.943C14.905,-8.66 14.507,-8.209 13.998,-7.592C13.662,-7.199 13.105,-6.39 12.336,-5.17C11.561,-3.944 10.703,-2.551 9.761,-0.992C8.82,0.566 7.997,1.982 7.295,3.244C6.591,4.509 6.144,5.367 5.945,5.818C5.663,6.492 5.489,7.133 5.417,7.735C5.349,8.341 5.314,9.108 5.314,10.035L5.314,13.494C5.314,14.111 5.319,14.786 5.334,15.515C5.349,16.252 5.383,16.979 5.437,17.71C5.495,18.384 5.648,18.918 5.902,19.31C6.158,19.708 6.58,19.942 7.168,20.032C7.476,20.056 7.828,20.093 8.222,20.135C8.614,20.179 8.968,20.198 9.276,20.198C9.727,20.198 9.953,20.31 9.953,20.537C9.953,20.815 9.659,20.959 9.065,20.959C7.969,20.959 6.479,20.93 4.596,20.873C3.668,20.844 3.005,20.83 2.612,20.83C2.275,20.83 1.559,20.844 0.462,20.873C-1.054,20.93 -2.093,20.959 -2.658,20.959C-3.276,20.959 -3.583,20.815 -3.583,20.537C-3.583,20.31 -3.36,20.198 -2.909,20.198C-2.432,20.198 -1.942,20.141 -1.434,20.032C-1.04,19.942 -0.738,19.698 -0.53,19.291C-0.316,18.884 -0.184,18.357 -0.127,17.71C-0.069,16.979 -0.034,16.252 -0.02,15.515C-0.007,14.786 0,14.111 0,13.494L0,10.035Z" style="fill:currentColor;fill-rule:nonzero;"/>
                </g>
                <g transform="matrix(1,0,0,1,544.474,703.299)">
                    <path d="M0,9.136C0.195,9.136 0.293,9.022 0.293,8.785L-4.978,-5.682L-4.978,-5.738C-5.056,-6.05 -5.153,-6.207 -5.271,-6.207C-5.428,-6.207 -5.543,-6.033 -5.621,-5.682L-11.013,8.726C-11.013,8.999 -10.931,9.136 -10.776,9.136L0,9.136ZM-11.946,12.066C-12.184,12.066 -12.356,12.223 -12.474,12.535L-15.639,20.91C-16.225,22.355 -16.513,23.544 -16.513,24.481C-16.513,25.069 -16.34,25.517 -15.988,25.829C-15.639,26.142 -15.032,26.297 -14.173,26.297L-13.294,26.297C-12.708,26.297 -12.415,26.456 -12.415,26.764C-12.415,27.157 -12.749,27.351 -13.41,27.351C-14.154,27.351 -15.21,27.334 -16.571,27.292C-18.098,27.215 -19.112,27.176 -19.622,27.176C-19.734,27.176 -20.166,27.195 -20.905,27.235C-21.495,27.235 -22.323,27.254 -23.397,27.292C-24.471,27.334 -25.515,27.351 -26.53,27.351C-27.271,27.351 -27.643,27.157 -27.643,26.764C-27.643,26.456 -27.408,26.297 -26.942,26.297C-26.354,26.297 -25.751,26.259 -25.123,26.181C-23.875,26.025 -22.902,25.527 -22.195,24.686C-21.495,23.847 -20.812,22.588 -20.146,20.91L-5.445,-15.871C-5.095,-16.768 -4.801,-17.385 -4.57,-17.715C-4.333,-18.047 -4.08,-18.215 -3.806,-18.215C-3.378,-18.215 -2.888,-17.589 -2.339,-16.342C-2.069,-15.754 -1.484,-14.328 -0.583,-12.066C0.312,-9.801 1.485,-6.848 2.928,-3.221C6.287,5.134 8.153,9.771 8.523,10.688C8.893,11.605 9.407,12.895 10.075,14.557C10.736,16.215 11.443,17.923 12.183,19.681C13.158,22.025 14.056,23.622 14.877,24.481C15.698,25.341 16.517,25.868 17.338,26.064C18.118,26.22 18.939,26.297 19.798,26.297C20.303,26.297 20.562,26.456 20.562,26.764C20.562,27 20.382,27.157 20.03,27.235C19.68,27.312 18.957,27.351 17.865,27.351L12.736,27.351C11.08,27.351 9.1,27.312 6.795,27.235L6.559,27.235C5.544,27.157 5.039,27 5.039,26.764C5.039,26.456 5.31,26.278 5.858,26.24C6.287,26.122 6.5,25.829 6.5,25.361C6.5,25.205 6.461,25.049 6.386,24.893L1.7,12.473C1.583,12.203 1.388,12.066 1.112,12.066L-11.946,12.066Z" style="fill:currentColor;fill-rule:nonzero;"/>
                </g>
                <g transform="matrix(1,0,0,1,582.002,698.382)">
                    <path d="M0,32.557C-0.985,32.387 -1.924,32.106 -2.826,31.709C-3.165,31.573 -3.38,31.411 -3.48,31.231C-3.578,31.043 -3.631,30.729 -3.631,30.28C-3.631,29.436 -3.606,28.543 -3.563,27.602C-3.524,26.661 -3.475,25.753 -3.417,24.88L-3.417,24.756C-3.36,24.024 -3.194,23.661 -2.91,23.661C-2.743,23.661 -2.631,23.72 -2.573,23.846C-2.519,23.976 -2.489,24.151 -2.489,24.375C-2.489,24.631 -2.455,24.952 -2.385,25.346C-2.314,25.739 -2.224,26.133 -2.111,26.529C-1.66,27.99 -0.895,29.063 0.188,29.752C1.271,30.441 2.513,30.785 3.92,30.785C5.692,30.785 7.077,30.294 8.072,29.309C9.072,28.322 9.572,27.217 9.572,25.98C9.572,24.795 9.289,23.686 8.726,22.646C8.163,21.607 7.067,20.468 5.44,19.228L3.498,17.712C1.248,15.943 -0.355,14.269 -1.312,12.692C-2.266,11.12 -2.743,9.464 -2.743,7.718C-2.743,5.385 -1.844,3.475 -0.044,1.985C1.756,0.494 4.102,-0.252 6.999,-0.252C8.204,-0.252 9.255,-0.178 10.139,-0.04C11.028,0.1 11.848,0.268 12.608,0.465C12.999,0.551 13.198,0.719 13.198,0.971C13.198,1.085 13.182,1.309 13.154,1.646C13.128,2.209 13.099,2.853 13.074,3.585C13.045,4.319 13.028,5.131 13.028,6.032C13.028,6.872 12.872,7.296 12.563,7.296C12.284,7.296 12.143,7.043 12.143,6.538C12.143,6.231 12.058,5.806 11.89,5.275C11.721,4.741 11.44,4.232 11.046,3.755C10.597,3.193 10.019,2.707 9.318,2.3C8.614,1.892 7.658,1.69 6.45,1.69C4.932,1.69 3.717,2.09 2.802,2.888C1.89,3.692 1.435,4.741 1.435,6.032C1.435,7.014 1.748,7.951 2.38,8.838C3.014,9.721 4.189,10.813 5.901,12.104L7.085,12.987C9.611,14.957 11.399,16.742 12.438,18.345C13.475,19.949 13.999,21.748 13.999,23.744C13.999,25.121 13.691,26.455 13.074,27.748C12.45,29.043 11.44,30.151 10.033,31.078C9.051,31.7 7.994,32.141 6.872,32.409C5.748,32.674 4.567,32.809 3.331,32.809C2.093,32.809 0.98,32.726 0,32.557" style="fill:currentColor;fill-rule:nonzero;"/>
                </g>
                <g transform="matrix(1,0,0,1,621.006,727.652)">
                    <path d="M0,-26.57L-6.28,-26.401C-7.549,-26.343 -8.466,-26.238 -9.044,-26.085C-9.621,-25.931 -10.065,-25.629 -10.372,-25.177C-10.738,-24.614 -10.976,-24.122 -11.09,-23.702C-11.173,-23.363 -11.329,-23.197 -11.556,-23.197C-11.805,-23.197 -11.932,-23.422 -11.932,-23.871C-11.932,-24.009 -11.897,-24.304 -11.829,-24.756C-11.756,-25.207 -11.658,-25.756 -11.533,-26.401C-11.407,-27.046 -11.294,-27.587 -11.194,-28.026C-11.097,-28.461 -11.046,-28.692 -11.046,-28.718C-10.936,-29.255 -10.766,-29.521 -10.541,-29.521C-10.456,-29.521 -10.304,-29.479 -10.077,-29.392C-9.6,-29.17 -9.148,-29.041 -8.727,-29.016C-8.139,-28.956 -7.465,-28.907 -6.704,-28.868C-5.946,-28.824 -5.213,-28.804 -4.515,-28.804L12.187,-28.804C13.086,-28.804 14.042,-28.873 15.055,-29.016L15.096,-29.016L15.562,-29.099C15.925,-29.184 16.151,-29.226 16.234,-29.226C16.459,-29.226 16.573,-28.931 16.573,-28.342C16.573,-28.09 16.559,-27.357 16.531,-26.148C16.474,-24.77 16.444,-23.871 16.444,-23.449C16.389,-23 16.264,-22.775 16.068,-22.775C15.788,-22.775 15.632,-23.053 15.603,-23.617L15.562,-24.082C15.503,-24.726 15.09,-25.275 14.317,-25.726C13.542,-26.177 12.298,-26.417 10.586,-26.441L5.271,-26.57L5.271,-9.277C5.271,-6.777 5.286,-4.86 5.315,-3.526C5.34,-2.187 5.396,-1.099 5.482,-0.256C5.565,0.419 5.713,0.949 5.924,1.326C6.138,1.705 6.537,1.935 7.13,2.025C7.434,2.049 7.786,2.085 8.182,2.127C8.576,2.171 8.939,2.191 9.277,2.191C9.726,2.191 9.954,2.303 9.954,2.53C9.954,2.808 9.684,2.951 9.152,2.951C7.998,2.951 6.468,2.922 4.556,2.866C3.6,2.836 2.922,2.823 2.531,2.823C2.305,2.823 1.644,2.836 0.549,2.866C-1.083,2.922 -2.19,2.951 -2.781,2.951C-3.345,2.951 -3.627,2.808 -3.627,2.53C-3.627,2.303 -3.402,2.191 -2.951,2.191C-2.446,2.191 -1.937,2.134 -1.433,2.025C-1.039,1.935 -0.759,1.705 -0.588,1.326C-0.422,0.949 -0.296,0.405 -0.21,-0.298C-0.127,-1.114 -0.068,-2.187 -0.04,-3.526C-0.015,-4.86 0,-6.777 0,-9.277L0,-26.57Z" style="fill:currentColor;fill-rule:nonzero;"/>
                </g>
                <g transform="matrix(1,0,0,1,676.331,717.193)">
                    <path d="M0,-5.061C0.166,-5.061 0.249,-5.159 0.249,-5.358L0.249,-12.738C0.249,-13.663 0.225,-14.477 0.166,-15.184C0.11,-15.942 -0.038,-16.497 -0.275,-16.849C-0.515,-17.199 -0.97,-17.443 -1.648,-17.586C-1.98,-17.669 -2.529,-17.713 -3.29,-17.713C-3.768,-17.713 -4.005,-17.839 -4.005,-18.091C-4.005,-18.345 -3.712,-18.472 -3.124,-18.472C-2.165,-18.472 -0.831,-18.443 0.888,-18.388C1.927,-18.36 2.612,-18.345 2.951,-18.345C3.176,-18.345 3.863,-18.36 5.02,-18.388C6.648,-18.443 7.729,-18.472 8.263,-18.472C8.854,-18.472 9.148,-18.345 9.148,-18.091C9.148,-17.839 8.897,-17.713 8.388,-17.713C8.082,-17.713 7.675,-17.669 7.168,-17.586C6.604,-17.472 6.219,-17.233 6.009,-16.869C5.8,-16.501 5.665,-15.942 5.607,-15.184C5.549,-14.477 5.522,-13.663 5.522,-12.738L5.522,1.182C5.522,3.682 5.534,5.599 5.563,6.933C5.593,8.272 5.65,9.36 5.736,10.204C5.819,10.878 5.966,11.408 6.178,11.786C6.388,12.165 6.787,12.394 7.378,12.484C7.687,12.508 8.039,12.544 8.432,12.586C8.824,12.63 9.192,12.65 9.531,12.65C9.979,12.65 10.202,12.762 10.202,12.989C10.202,13.267 9.922,13.411 9.358,13.411C8.236,13.411 6.717,13.381 4.807,13.325C3.851,13.295 3.176,13.282 2.785,13.282C2.559,13.282 1.897,13.295 0.798,13.325C-0.831,13.381 -1.927,13.411 -2.485,13.411C-3.08,13.411 -3.373,13.267 -3.373,12.989C-3.373,12.762 -3.15,12.65 -2.697,12.65C-2.194,12.65 -1.687,12.593 -1.183,12.484C-0.79,12.394 -0.515,12.169 -0.358,11.805C-0.207,11.44 -0.072,10.893 0.04,10.162C0.127,9.345 0.181,8.272 0.21,6.933C0.234,5.599 0.249,3.682 0.249,1.182L0.249,-2.532C0.249,-2.701 0.166,-2.785 0,-2.785L-16.108,-2.785C-16.278,-2.785 -16.361,-2.701 -16.361,-2.532L-16.361,1.182C-16.361,3.682 -16.352,5.599 -16.319,6.933C-16.293,8.272 -16.234,9.36 -16.151,10.204C-16.066,10.878 -15.918,11.408 -15.71,11.786C-15.498,12.165 -15.096,12.394 -14.506,12.484C-14.2,12.508 -13.847,12.544 -13.454,12.586C-13.062,12.63 -12.693,12.65 -12.356,12.65C-11.905,12.65 -11.682,12.762 -11.682,12.989C-11.682,13.267 -11.964,13.411 -12.525,13.411C-13.649,13.411 -15.167,13.381 -17.079,13.325C-18.032,13.295 -18.71,13.282 -19.104,13.282C-19.327,13.282 -19.99,13.295 -21.085,13.325C-22.715,13.381 -23.826,13.411 -24.417,13.411C-24.98,13.411 -25.261,13.267 -25.261,12.989C-25.261,12.762 -25.034,12.65 -24.587,12.65C-24.078,12.65 -23.573,12.593 -23.068,12.484C-22.676,12.394 -22.402,12.169 -22.244,11.805C-22.09,11.44 -21.956,10.893 -21.842,10.162C-21.763,9.345 -21.705,8.272 -21.676,6.933C-21.646,5.599 -21.632,3.682 -21.632,1.182L-21.632,-12.738C-21.632,-13.663 -21.661,-14.477 -21.719,-15.184C-21.773,-15.942 -21.922,-16.497 -22.16,-16.849C-22.402,-17.199 -22.856,-17.443 -23.529,-17.586C-23.868,-17.669 -24.417,-17.713 -25.175,-17.713C-25.651,-17.713 -25.893,-17.839 -25.893,-18.091C-25.893,-18.345 -25.598,-18.472 -25.005,-18.472C-24.053,-18.472 -22.715,-18.443 -21.002,-18.388C-19.963,-18.36 -19.273,-18.345 -18.935,-18.345C-18.71,-18.345 -18.021,-18.36 -16.866,-18.388C-15.239,-18.443 -14.156,-18.472 -13.62,-18.472C-13.032,-18.472 -12.739,-18.345 -12.739,-18.091C-12.739,-17.839 -12.988,-17.713 -13.493,-17.713C-13.804,-17.713 -14.211,-17.669 -14.72,-17.586C-15.28,-17.472 -15.666,-17.233 -15.876,-16.869C-16.088,-16.501 -16.225,-15.942 -16.278,-15.184C-16.332,-14.477 -16.361,-13.663 -16.361,-12.738L-16.361,-5.358C-16.361,-5.159 -16.278,-5.061 -16.108,-5.061L0,-5.061Z" style="fill:currentColor;fill-rule:nonzero;"/>
                </g>
                <g transform="matrix(1,0,0,1,706.604,729.507)">
                    <path d="M0,-30.615C0.144,-31.346 0.382,-31.712 0.722,-31.712C0.888,-31.712 1.056,-31.62 1.226,-31.439C1.393,-31.256 1.604,-30.915 1.858,-30.405L13.371,-6.62L24.839,-30.702C25.15,-31.376 25.457,-31.712 25.768,-31.712C26.163,-31.712 26.413,-31.276 26.528,-30.405L30.364,-4.346C30.562,-2.939 30.801,-1.927 31.081,-1.31C31.364,-0.688 31.811,-0.281 32.431,-0.086C33.332,0.195 34.203,0.336 35.047,0.336C35.495,0.336 35.718,0.434 35.718,0.631C35.718,0.939 35.356,1.097 34.625,1.097C34.008,1.097 32.654,1.068 30.576,1.011C29.311,0.982 28.354,0.953 27.709,0.924C27.061,0.899 26.514,0.87 26.064,0.841C25.585,0.784 25.261,0.731 25.094,0.675C24.922,0.616 24.839,0.517 24.839,0.375C24.839,0.209 24.996,0.051 25.305,-0.086C25.501,-0.144 25.599,-0.439 25.599,-0.973C25.599,-1.252 25.572,-1.561 25.516,-1.9L22.985,-20.457L22.816,-20.457L13.623,-1.31C13.118,-0.296 12.78,0.351 12.612,0.631C12.442,0.913 12.259,1.051 12.063,1.051C11.837,1.051 11.391,0.434 10.715,-0.803C10.659,-0.916 10.617,-1.003 10.586,-1.056C9.462,-3.218 8.62,-4.856 8.057,-5.969C7.496,-7.08 6.994,-8.061 6.562,-8.92C6.125,-9.778 5.851,-10.346 5.737,-10.629C5.571,-10.995 5.188,-11.816 4.6,-13.097C4.009,-14.373 3.602,-15.24 3.377,-15.689C2.785,-16.952 2.364,-17.854 2.114,-18.388C1.858,-18.923 1.604,-19.457 1.349,-19.991L1.183,-19.991L-1.01,-3.208C-1.094,-2.446 -1.137,-1.786 -1.137,-1.222C-1.137,-0.861 -1.024,-0.563 -0.798,-0.34C-0.574,-0.115 -0.264,0.041 0.129,0.126C0.775,0.268 1.367,0.336 1.901,0.336C2.319,0.336 2.531,0.434 2.531,0.631C2.531,0.939 2.197,1.097 1.521,1.097C0.79,1.097 -0.237,1.068 -1.555,1.011C-2.205,0.982 -2.651,0.968 -2.907,0.968C-3.103,0.968 -3.64,0.982 -4.51,1.011C-5.771,1.068 -6.632,1.097 -7.083,1.097C-7.588,1.097 -7.839,0.939 -7.839,0.631C-7.839,0.434 -7.617,0.336 -7.166,0.336C-6.746,0.336 -6.324,0.292 -5.902,0.209C-5.368,0.097 -4.98,-0.252 -4.739,-0.844C-4.502,-1.435 -4.312,-2.193 -4.171,-3.123L0,-30.615Z" style="fill:currentColor;fill-rule:nonzero;"/>
                </g>
                <g transform="matrix(1,0,0,1,769.102,710.913)">
                    <path d="M0,6.572C0.137,6.572 0.21,6.489 0.21,6.32L-3.585,-4.095L-3.585,-4.139C-3.644,-4.364 -3.712,-4.471 -3.795,-4.471C-3.907,-4.471 -3.99,-4.347 -4.051,-4.095L-7.927,6.276C-7.927,6.474 -7.872,6.572 -7.76,6.572L0,6.572ZM-8.604,8.683C-8.771,8.683 -8.897,8.796 -8.982,9.02L-11.263,15.049C-11.678,16.089 -11.892,16.946 -11.892,17.62C-11.892,18.042 -11.768,18.366 -11.512,18.591C-11.263,18.817 -10.826,18.929 -10.202,18.929L-9.572,18.929C-9.152,18.929 -8.94,19.042 -8.94,19.268C-8.94,19.547 -9.178,19.69 -9.657,19.69C-10.191,19.69 -10.95,19.674 -11.934,19.644C-13.03,19.591 -13.763,19.561 -14.125,19.561C-14.214,19.561 -14.522,19.575 -15.052,19.604C-15.477,19.604 -16.074,19.615 -16.847,19.644C-17.622,19.674 -18.371,19.69 -19.103,19.69C-19.637,19.69 -19.905,19.547 -19.905,19.268C-19.905,19.042 -19.734,18.929 -19.396,18.929C-18.977,18.929 -18.544,18.902 -18.093,18.843C-17.191,18.734 -16.488,18.371 -15.983,17.768C-15.477,17.164 -14.983,16.257 -14.508,15.049L-3.922,-11.434C-3.668,-12.08 -3.456,-12.522 -3.29,-12.763C-3.119,-13.002 -2.937,-13.118 -2.741,-13.118C-2.432,-13.118 -2.081,-12.668 -1.687,-11.773C-1.49,-11.351 -1.068,-10.322 -0.425,-8.693C0.225,-7.061 1.068,-4.937 2.107,-2.324C4.524,3.691 5.868,7.03 6.139,7.689C6.403,8.352 6.775,9.281 7.253,10.474C7.729,11.669 8.237,12.898 8.771,14.164C9.472,15.851 10.12,17.006 10.713,17.62C11.301,18.239 11.892,18.62 12.483,18.763C13.042,18.873 13.635,18.929 14.252,18.929C14.618,18.929 14.801,19.042 14.801,19.268C14.801,19.434 14.674,19.547 14.42,19.604C14.169,19.661 13.647,19.69 12.862,19.69L9.174,19.69C7.977,19.69 6.55,19.661 4.892,19.604L4.722,19.604C3.99,19.547 3.626,19.434 3.626,19.268C3.626,19.042 3.821,18.915 4.219,18.885C4.524,18.802 4.68,18.591 4.68,18.254C4.68,18.143 4.653,18.03 4.597,17.915L1.224,8.976C1.137,8.781 0.999,8.683 0.802,8.683L-8.604,8.683Z" style="fill:currentColor;fill-rule:nonzero;"/>
                </g>
                <g transform="matrix(1,0,0,1,179.351,788.219)">
                    <path d="M0,6.578C0.141,6.578 0.211,6.493 0.211,6.322L-3.585,-4.092L-3.585,-4.131C-3.641,-4.36 -3.711,-4.468 -3.794,-4.468C-3.908,-4.468 -3.993,-4.345 -4.048,-4.092L-7.927,6.283C-7.927,6.478 -7.871,6.578 -7.759,6.578L0,6.578ZM-8.604,8.685C-8.771,8.685 -8.897,8.798 -8.982,9.024L-11.259,15.055C-11.68,16.094 -11.89,16.952 -11.89,17.626C-11.89,18.048 -11.764,18.37 -11.511,18.594C-11.259,18.82 -10.824,18.933 -10.205,18.933L-9.572,18.933C-9.15,18.933 -8.94,19.048 -8.94,19.271C-8.94,19.55 -9.178,19.693 -9.657,19.693C-10.19,19.693 -10.949,19.679 -11.935,19.647C-13.03,19.594 -13.761,19.567 -14.126,19.567C-14.211,19.567 -14.52,19.579 -15.054,19.608C-15.476,19.608 -16.074,19.621 -16.847,19.647C-17.619,19.679 -18.371,19.693 -19.103,19.693C-19.636,19.693 -19.903,19.55 -19.903,19.271C-19.903,19.048 -19.736,18.933 -19.398,18.933C-18.976,18.933 -18.539,18.908 -18.09,18.849C-17.19,18.737 -16.488,18.379 -15.981,17.772C-15.476,17.172 -14.984,16.26 -14.505,15.055L-3.922,-11.432C-3.668,-12.076 -3.458,-12.52 -3.29,-12.757C-3.121,-12.995 -2.938,-13.115 -2.74,-13.115C-2.432,-13.115 -2.081,-12.666 -1.685,-11.765C-1.49,-11.344 -1.068,-10.318 -0.421,-8.686C0.225,-7.058 1.069,-4.934 2.108,-2.321C4.525,3.697 5.868,7.032 6.135,7.695C6.403,8.355 6.775,9.283 7.251,10.48C7.731,11.673 8.237,12.901 8.771,14.17C9.474,15.854 10.121,17.011 10.711,17.626C11.301,18.247 11.892,18.623 12.483,18.766C13.044,18.879 13.635,18.933 14.252,18.933C14.618,18.933 14.801,19.048 14.801,19.271C14.801,19.442 14.674,19.55 14.422,19.608C14.168,19.664 13.648,19.693 12.863,19.693L9.172,19.693C7.976,19.693 6.55,19.664 4.891,19.608L4.723,19.608C3.992,19.55 3.625,19.442 3.625,19.271C3.625,19.048 3.823,18.921 4.218,18.891C4.525,18.806 4.681,18.594 4.681,18.257C4.681,18.147 4.653,18.033 4.596,17.923L1.223,8.978C1.139,8.783 0.999,8.685 0.802,8.685L-8.604,8.685Z" style="fill:currentColor;fill-rule:nonzero;"/>
                </g>
                <g transform="matrix(1,0,0,1,210.302,781.558)">
                    <path d="M0,20.617C0.028,22.167 0.168,23.289 0.422,23.991C0.674,24.694 1.026,25.133 1.475,25.299C2.038,25.496 2.768,25.595 3.668,25.595C4.147,25.595 4.386,25.709 4.386,25.932C4.386,26.211 4.062,26.354 3.417,26.354C2.234,26.354 0.885,26.325 -0.634,26.269C-1.167,26.24 -1.561,26.228 -1.813,26.228C-1.927,26.228 -2.166,26.24 -2.53,26.269C-2.924,26.269 -3.493,26.282 -4.237,26.308C-4.983,26.34 -5.693,26.354 -6.367,26.354C-6.986,26.354 -7.295,26.211 -7.295,25.932C-7.295,25.709 -7.071,25.595 -6.62,25.595C-5.834,25.595 -5.202,25.525 -4.723,25.384C-4.189,25.214 -3.845,24.779 -3.689,24.075C-3.536,23.372 -3.444,22.069 -3.417,20.156L-3.037,-4.81C-3.037,-5.766 -2.854,-6.242 -2.488,-6.242C-2.236,-6.242 -1.842,-5.946 -1.309,-5.359C-1.167,-5.188 -1.042,-5.047 -0.928,-4.937C-0.901,-4.907 -0.401,-4.383 0.569,-3.355C1.54,-2.328 2.557,-1.244 3.627,-0.107C4.695,1.03 6.016,2.411 7.59,4.025C9.164,5.64 10.682,7.164 12.145,8.6C12.791,9.247 13.485,9.959 14.232,10.731C14.977,11.503 16.361,12.944 18.386,15.052C19.312,16.037 20.015,16.775 20.494,17.268C20.972,17.756 21.282,18.075 21.421,18.215L21.632,18.215L21.211,-0.718C21.183,-1.986 21.064,-2.878 20.852,-3.398C20.643,-3.917 20.283,-4.29 19.777,-4.515C19.523,-4.628 19.207,-4.697 18.829,-4.727C18.448,-4.752 18.021,-4.771 17.542,-4.771C17.091,-4.771 16.868,-4.893 16.868,-5.149C16.868,-5.285 16.958,-5.383 17.141,-5.442C17.324,-5.498 17.598,-5.525 17.963,-5.525C18.892,-5.525 20.1,-5.498 21.591,-5.442C22.292,-5.415 22.785,-5.401 23.066,-5.401C23.15,-5.401 23.404,-5.415 23.826,-5.442C25.147,-5.498 26.271,-5.525 27.199,-5.525C27.536,-5.525 27.781,-5.498 27.936,-5.442C28.091,-5.383 28.169,-5.285 28.169,-5.149C28.169,-4.893 27.916,-4.771 27.41,-4.771C26.903,-4.771 26.483,-4.727 26.145,-4.643C25.554,-4.474 25.153,-4.127 24.942,-3.608C24.733,-3.088 24.612,-2.236 24.584,-1.057L24.121,25.553C24.121,26.423 23.937,26.859 23.573,26.859C23.376,26.859 23.164,26.781 22.939,26.628C22.714,26.471 22.447,26.24 22.139,25.932C21.492,25.315 20.57,24.408 19.376,23.211C18.181,22.016 16.826,20.661 15.307,19.141C12.582,16.39 10.711,14.517 9.698,13.532C8.828,12.692 7.942,11.793 7.042,10.835C6.142,9.881 5.319,9.008 4.576,8.218C3.831,7.432 3.028,6.577 2.173,5.649C1.314,4.722 0.788,4.144 0.591,3.918C0,3.272 -0.309,2.937 -0.338,2.908L-0.464,2.908L0,20.617Z" style="fill:currentColor;fill-rule:nonzero;"/>
                </g>
                <g transform="matrix(1,0,0,1,262.507,791.424)">
                    <path d="M0,1.473C0,3.752 0.007,5.636 0.021,7.125C0.034,8.618 0.056,9.569 0.085,9.994C0.113,10.723 0.162,11.393 0.232,11.995C0.301,12.601 0.408,13 0.548,13.198C0.858,13.649 1.478,14.042 2.404,14.378C3.332,14.717 4.555,14.883 6.072,14.883C8.237,14.883 10.085,14.654 11.619,14.188C13.15,13.723 14.534,12.945 15.771,11.849C17.038,10.75 17.943,9.319 18.492,7.547C19.04,5.773 19.314,3.709 19.314,1.35C19.314,-1.071 18.913,-3.169 18.111,-4.959C17.31,-6.742 16.361,-8.154 15.265,-9.195C14.337,-10.065 13.353,-10.788 12.313,-11.367C11.273,-11.94 10.227,-12.377 9.172,-12.675C8.118,-12.969 7.119,-13.163 6.179,-13.264C5.235,-13.362 4.271,-13.411 3.29,-13.411C2.839,-13.411 2.312,-13.381 1.708,-13.328C1.104,-13.27 0.718,-13.201 0.548,-13.117C0.212,-12.974 0.042,-12.695 0.042,-12.274C0.014,-11.317 0,-8.503 0,-3.839L0,1.473ZM-5.269,4.258L-5.269,-9.658C-5.269,-10.585 -5.298,-11.401 -5.354,-12.102C-5.412,-12.862 -5.558,-13.421 -5.798,-13.769C-6.036,-14.119 -6.494,-14.367 -7.169,-14.509C-7.506,-14.593 -8.053,-14.637 -8.813,-14.637C-9.292,-14.637 -9.53,-14.759 -9.53,-15.015C-9.53,-15.267 -9.221,-15.391 -8.603,-15.391C-7.899,-15.391 -6.592,-15.365 -4.681,-15.308C-3.585,-15.282 -2.867,-15.267 -2.529,-15.267C-2.136,-15.267 -1.391,-15.282 -0.295,-15.308C1.7,-15.365 3.121,-15.391 3.964,-15.391C5.791,-15.391 7.373,-15.357 8.708,-15.289C10.044,-15.218 11.441,-15.035 12.903,-14.74C14.366,-14.443 15.785,-13.967 17.163,-13.303C18.539,-12.643 19.777,-11.739 20.874,-10.585C22.083,-9.348 23.067,-7.829 23.826,-6.032C24.584,-4.232 24.964,-2.178 24.964,0.126C24.964,2.602 24.528,4.841 23.658,6.85C22.785,8.863 21.689,10.542 20.368,11.891C19.804,12.452 19.124,13.015 18.323,13.577C17.521,14.14 16.538,14.673 15.371,15.179C14.204,15.686 12.854,16.095 11.322,16.403C9.79,16.712 8.096,16.864 6.242,16.864C5.509,16.864 4.745,16.844 3.943,16.803C3.142,16.761 2.136,16.683 0.928,16.571C-0.9,16.432 -2.123,16.362 -2.742,16.362C-2.966,16.362 -3.625,16.373 -4.721,16.403C-6.353,16.458 -7.463,16.488 -8.053,16.488C-8.617,16.488 -8.897,16.344 -8.897,16.066C-8.897,15.842 -8.673,15.728 -8.222,15.728C-7.717,15.728 -7.21,15.673 -6.705,15.561C-6.311,15.471 -6.036,15.249 -5.882,14.883C-5.728,14.518 -5.594,13.971 -5.481,13.242C-5.398,12.425 -5.342,11.349 -5.313,10.015C-5.286,8.682 -5.269,6.76 -5.269,4.258Z" style="fill:currentColor;fill-rule:nonzero;"/>
                </g>
                <g transform="matrix(1,0,0,1,331.471,763.211)">
                    <path d="M0,45.221C-1.368,44.983 -2.676,44.592 -3.925,44.048C-4.392,43.853 -4.696,43.626 -4.833,43.372C-4.969,43.121 -5.037,42.68 -5.037,42.053C-5.037,40.883 -5.008,39.646 -4.95,38.336C-4.891,37.028 -4.824,35.767 -4.745,34.562L-4.745,34.384C-4.666,33.368 -4.433,32.86 -4.042,32.86C-3.807,32.86 -3.651,32.948 -3.573,33.125C-3.496,33.301 -3.457,33.547 -3.457,33.855C-3.457,34.208 -3.406,34.657 -3.31,35.203C-3.212,35.747 -3.085,36.296 -2.928,36.841C-2.305,38.873 -1.24,40.367 0.263,41.324C1.767,42.28 3.493,42.76 5.447,42.76C7.905,42.76 9.829,42.075 11.215,40.709C12.601,39.342 13.294,37.802 13.294,36.081C13.294,34.442 12.903,32.899 12.123,31.456C11.34,30.011 9.819,28.428 7.555,26.711L4.861,24.602C1.736,22.143 -0.489,19.819 -1.817,17.631C-3.144,15.445 -3.807,13.144 -3.807,10.722C-3.807,7.484 -2.558,4.825 -0.059,2.757C2.439,0.689 5.699,-0.347 9.721,-0.347C11.4,-0.347 12.855,-0.25 14.085,-0.052C15.315,0.138 16.458,0.375 17.512,0.648C18.059,0.767 18.331,0.999 18.331,1.355C18.331,1.506 18.312,1.821 18.272,2.287C18.232,3.07 18.193,3.967 18.156,4.982C18.116,5.999 18.097,7.13 18.097,8.379C18.097,9.549 17.882,10.135 17.453,10.135C17.062,10.135 16.867,9.785 16.867,9.081C16.867,8.655 16.75,8.067 16.515,7.325C16.281,6.583 15.89,5.879 15.345,5.218C14.719,4.436 13.918,3.762 12.943,3.195C11.967,2.63 10.639,2.346 8.961,2.346C6.852,2.346 5.163,2.904 3.894,4.016C2.624,5.13 1.991,6.583 1.991,8.379C1.991,9.746 2.43,11.042 3.308,12.272C4.187,13.503 5.817,15.017 8.199,16.813L9.839,18.043C13.353,20.775 15.833,23.255 17.276,25.482C18.721,27.704 19.444,30.203 19.444,32.977C19.444,34.893 19.015,36.747 18.156,38.542C17.296,40.337 15.89,41.882 13.938,43.165C12.571,44.029 11.107,44.643 9.545,45.014C7.985,45.382 6.344,45.568 4.627,45.568C2.908,45.568 1.367,45.45 0,45.221" style="fill:currentColor;fill-rule:nonzero;"/>
                </g>
                <g transform="matrix(1,0,0,1,375.167,795.684)">
                    <path d="M0,-0.001L0,-13.917C0,-14.844 -0.03,-15.66 -0.086,-16.361C-0.169,-17.741 -0.647,-18.528 -1.52,-18.725C-1.941,-18.838 -2.447,-18.897 -3.038,-18.897C-3.486,-18.897 -3.712,-19.033 -3.712,-19.314C-3.712,-19.541 -3.373,-19.651 -2.702,-19.651C-2.167,-19.651 -1.14,-19.624 0.377,-19.568C1.559,-19.541 2.36,-19.527 2.782,-19.527C3.119,-19.527 3.807,-19.541 4.849,-19.568C6.31,-19.624 7.334,-19.651 7.925,-19.651C8.516,-19.651 8.81,-19.541 8.81,-19.314C8.81,-19.033 8.584,-18.897 8.136,-18.897C7.8,-18.897 7.378,-18.853 6.874,-18.769C6.31,-18.653 5.922,-18.416 5.711,-18.048C5.5,-17.683 5.369,-17.121 5.312,-16.361C5.255,-15.66 5.226,-14.844 5.226,-13.917L5.226,-0.001C5.226,2.613 5.233,4.603 5.248,5.967C5.26,7.329 5.312,8.419 5.398,9.231C5.481,9.881 5.633,10.366 5.859,10.69C6.084,11.012 6.492,11.212 7.084,11.302C7.391,11.326 7.742,11.365 8.136,11.405C8.531,11.448 8.896,11.469 9.232,11.469C9.683,11.469 9.909,11.583 9.909,11.806C9.909,12.085 9.639,12.228 9.107,12.228C7.925,12.228 6.378,12.199 4.466,12.143C3.569,12.114 2.922,12.102 2.53,12.102C2.304,12.102 1.642,12.114 0.546,12.143C-1.083,12.199 -2.195,12.228 -2.785,12.228C-3.349,12.228 -3.628,12.085 -3.628,11.806C-3.628,11.583 -3.403,11.469 -2.952,11.469C-2.447,11.469 -1.941,11.414 -1.437,11.302C-0.76,11.158 -0.353,10.458 -0.213,9.19C-0.127,8.375 -0.074,7.285 -0.044,5.925C-0.015,4.559 0,2.584 0,-0.001Z" style="fill:currentColor;fill-rule:nonzero;"/>
                </g>
                <g transform="matrix(1,0,0,1,405.949,781.558)">
                    <path d="M0,20.617C0.027,22.167 0.169,23.289 0.42,23.991C0.674,24.694 1.026,25.133 1.476,25.299C2.038,25.496 2.769,25.595 3.668,25.595C4.146,25.595 4.386,25.709 4.386,25.932C4.386,26.211 4.061,26.354 3.416,26.354C2.234,26.354 0.886,26.325 -0.632,26.269C-1.169,26.24 -1.561,26.228 -1.813,26.228C-1.925,26.228 -2.167,26.24 -2.531,26.269C-2.924,26.269 -3.492,26.282 -4.238,26.308C-4.984,26.34 -5.694,26.354 -6.369,26.354C-6.986,26.354 -7.297,26.211 -7.297,25.932C-7.297,25.709 -7.072,25.595 -6.62,25.595C-5.834,25.595 -5.201,25.525 -4.724,25.384C-4.189,25.214 -3.846,24.779 -3.688,24.075C-3.538,23.372 -3.443,22.069 -3.417,20.156L-3.036,-4.81C-3.036,-5.766 -2.855,-6.242 -2.487,-6.242C-2.235,-6.242 -1.841,-5.946 -1.307,-5.359C-1.169,-5.188 -1.041,-5.047 -0.929,-4.937C-0.899,-4.907 -0.401,-4.383 0.567,-3.355C1.538,-2.328 2.557,-1.244 3.625,-0.107C4.696,1.03 6.017,2.411 7.59,4.025C9.164,5.64 10.682,7.164 12.146,8.6C12.789,9.247 13.486,9.959 14.232,10.731C14.977,11.503 16.359,12.944 18.384,15.052C19.314,16.037 20.018,16.775 20.492,17.268C20.972,17.756 21.281,18.075 21.421,18.215L21.63,18.215L21.21,-0.718C21.184,-1.986 21.063,-2.878 20.853,-3.398C20.64,-3.917 20.285,-4.29 19.776,-4.515C19.524,-4.628 19.208,-4.697 18.829,-4.727C18.447,-4.752 18.021,-4.771 17.54,-4.771C17.089,-4.771 16.866,-4.893 16.866,-5.149C16.866,-5.285 16.957,-5.383 17.141,-5.442C17.325,-5.498 17.597,-5.525 17.962,-5.525C18.892,-5.525 20.101,-5.498 21.591,-5.442C22.292,-5.415 22.785,-5.401 23.066,-5.401C23.149,-5.401 23.405,-5.415 23.826,-5.442C25.145,-5.498 26.272,-5.525 27.199,-5.525C27.538,-5.525 27.784,-5.498 27.937,-5.442C28.091,-5.383 28.168,-5.285 28.168,-5.149C28.168,-4.893 27.916,-4.771 27.411,-4.771C26.906,-4.771 26.484,-4.727 26.145,-4.643C25.552,-4.474 25.155,-4.127 24.944,-3.608C24.733,-3.088 24.611,-2.236 24.583,-1.057L24.121,25.553C24.121,26.423 23.939,26.859 23.571,26.859C23.375,26.859 23.165,26.781 22.939,26.628C22.713,26.471 22.446,26.24 22.137,25.932C21.493,25.315 20.571,24.408 19.374,23.211C18.184,22.016 16.825,20.661 15.307,19.141C12.579,16.39 10.711,14.517 9.696,13.532C8.828,12.692 7.942,11.793 7.044,10.835C6.142,9.881 5.318,9.008 4.575,8.218C3.831,7.432 3.029,6.577 2.169,5.649C1.312,4.722 0.788,4.144 0.591,3.918C0,3.272 -0.31,2.937 -0.339,2.908L-0.466,2.908L0,20.617Z" style="fill:currentColor;fill-rule:nonzero;"/>
                </g>
                <g transform="matrix(1,0,0,1,451.071,796.273)">
                    <path d="M0,-1.857L0,-14.506C0,-15.433 -0.029,-16.249 -0.086,-16.95C-0.142,-17.71 -0.292,-18.269 -0.528,-18.617C-0.768,-18.967 -1.224,-19.215 -1.901,-19.358C-2.238,-19.442 -2.785,-19.486 -3.543,-19.486C-4.023,-19.486 -4.261,-19.608 -4.261,-19.864C-4.261,-20.116 -3.952,-20.24 -3.331,-20.24C-2.548,-20.24 -1.238,-20.213 0.591,-20.157C1.796,-20.13 2.542,-20.116 2.824,-20.116C3.16,-20.116 3.863,-20.13 4.932,-20.157C6.45,-20.213 7.474,-20.24 8.008,-20.24C8.629,-20.24 8.936,-20.116 8.936,-19.864C8.936,-19.608 8.712,-19.486 8.264,-19.486C7.955,-19.486 7.547,-19.442 7.041,-19.358C6.479,-19.242 6.091,-19.005 5.881,-18.637C5.669,-18.272 5.538,-17.71 5.479,-16.95C5.425,-16.249 5.396,-15.433 5.396,-14.506L5.396,-2.11C5.396,0.788 5.669,3.014 6.219,4.573C6.768,6.133 7.59,7.364 8.685,8.266C9.528,8.967 10.387,9.432 11.26,9.655C12.128,9.88 13.028,9.994 13.955,9.994C14.996,9.994 16.03,9.81 17.055,9.447C18.081,9.079 18.988,8.506 19.775,7.717C20.815,6.676 21.483,5.341 21.778,3.711C22.075,2.083 22.221,-0.071 22.221,-2.741L22.221,-14.506C22.221,-15.433 22.192,-16.249 22.137,-16.95C22.08,-17.71 21.933,-18.269 21.695,-18.617C21.454,-18.967 20.998,-19.215 20.325,-19.358C20.182,-19.383 19.957,-19.412 19.648,-19.442C19.338,-19.467 19.057,-19.486 18.804,-19.486C18.327,-19.486 18.089,-19.608 18.089,-19.864C18.089,-20.116 18.384,-20.24 18.977,-20.24C19.707,-20.24 20.491,-20.225 21.335,-20.2C22.181,-20.169 22.967,-20.142 23.697,-20.116L23.826,-20.116C23.938,-20.116 24.345,-20.13 25.045,-20.157C25.609,-20.186 26.234,-20.205 26.923,-20.22C27.611,-20.235 28.181,-20.24 28.63,-20.24C29.22,-20.24 29.518,-20.116 29.518,-19.864C29.518,-19.608 29.262,-19.486 28.757,-19.486C28.448,-19.486 28.042,-19.442 27.536,-19.358C26.972,-19.242 26.586,-19.005 26.375,-18.637C26.165,-18.272 26.031,-17.71 25.976,-16.95C25.918,-16.249 25.889,-15.433 25.889,-14.506L25.889,-3.498C25.889,-2.124 25.84,-0.873 25.743,0.254C25.645,1.38 25.462,2.485 25.194,3.583C24.927,4.679 24.521,5.706 23.972,6.662C23.423,7.618 22.726,8.463 21.884,9.194C20.506,10.374 19.108,11.174 17.687,11.593C16.268,12.015 14.745,12.228 13.113,12.228C12.382,12.228 11.657,12.199 10.94,12.144C10.225,12.089 9.45,11.967 8.621,11.786C7.793,11.603 6.95,11.31 6.091,10.903C5.233,10.491 4.455,9.967 3.752,9.32C2.572,8.252 1.65,6.839 0.988,5.082C0.331,3.323 0,1.014 0,-1.857Z" style="fill:currentColor;fill-rule:nonzero;"/>
                </g>
                <g transform="matrix(1,0,0,1,498.675,775.694)">
                    <path d="M0,32.555C-0.98,32.384 -1.922,32.104 -2.824,31.713C-3.163,31.573 -3.378,31.409 -3.476,31.228C-3.574,31.045 -3.623,30.726 -3.623,30.277C-3.623,29.433 -3.603,28.54 -3.559,27.599C-3.52,26.658 -3.471,25.75 -3.412,24.88L-3.412,24.755C-3.358,24.022 -3.189,23.657 -2.907,23.657C-2.738,23.657 -2.627,23.719 -2.568,23.848C-2.515,23.976 -2.485,24.152 -2.485,24.372C-2.485,24.627 -2.451,24.951 -2.379,25.343C-2.31,25.739 -2.222,26.133 -2.106,26.525C-1.656,27.987 -0.893,29.06 0.19,29.752C1.275,30.438 2.518,30.782 3.922,30.782C5.693,30.782 7.081,30.291 8.077,29.307C9.076,28.325 9.573,27.214 9.573,25.976C9.573,24.794 9.291,23.686 8.732,22.642C8.168,21.603 7.072,20.464 5.442,19.23L3.5,17.71C1.252,15.94 -0.35,14.269 -1.305,12.694C-2.261,11.12 -2.738,9.464 -2.738,7.718C-2.738,5.384 -1.839,3.472 -0.039,1.985C1.757,0.491 4.106,-0.252 7,-0.252C8.209,-0.252 9.256,-0.182 10.144,-0.044C11.029,0.098 11.851,0.264 12.61,0.463C13.002,0.548 13.202,0.715 13.202,0.971C13.202,1.083 13.187,1.307 13.159,1.646C13.129,2.206 13.1,2.854 13.076,3.584C13.046,4.315 13.032,5.131 13.032,6.031C13.032,6.874 12.877,7.296 12.568,7.296C12.286,7.296 12.147,7.043 12.147,6.535C12.147,6.228 12.061,5.806 11.895,5.271C11.725,4.737 11.444,4.232 11.051,3.751C10.6,3.193 10.024,2.707 9.32,2.3C8.62,1.893 7.664,1.687 6.452,1.687C4.937,1.687 3.718,2.087 2.805,2.888C1.893,3.69 1.437,4.737 1.437,6.031C1.437,7.016 1.752,7.948 2.384,8.835C3.015,9.721 4.193,10.811 5.906,12.101L7.085,12.989C9.617,14.956 11.4,16.742 12.444,18.342C13.48,19.945 14.002,21.744 14.002,23.74C14.002,25.118 13.692,26.453 13.076,27.745C12.456,29.041 11.444,30.151 10.037,31.077C9.053,31.697 8.002,32.14 6.874,32.409C5.751,32.674 4.569,32.807 3.334,32.807C2.098,32.807 0.985,32.723 0,32.555" style="fill:currentColor;fill-rule:nonzero;"/>
                </g>
                <g transform="matrix(1,0,0,1,566.496,764.383)">
                    <path d="M0,42.876C-3.318,41.859 -6.266,40.239 -8.841,38.013C-11.496,35.669 -13.374,33.017 -14.462,30.048C-15.559,27.082 -16.105,23.976 -16.105,20.734C-16.105,19.603 -15.998,18.387 -15.784,17.078C-15.566,15.769 -15.203,14.391 -14.698,12.947C-14.193,11.502 -13.489,10.065 -12.591,8.643C-11.693,7.217 -10.579,5.899 -9.252,4.688C-7.025,2.658 -4.432,1.115 -1.461,0.061C1.507,-0.995 5.077,-1.52 9.258,-1.52C10.934,-1.52 12.399,-1.471 13.647,-1.375C14.895,-1.277 16.264,-1.127 17.747,-0.937C18.411,-0.856 19.406,-0.678 20.734,-0.405C22.024,-0.173 22.977,-0.017 23.603,0.061C24.188,0.101 24.48,0.334 24.48,0.764C24.48,0.881 24.461,1.115 24.424,1.468C24.306,2.251 24.228,3.09 24.188,3.987C24.149,4.688 24.132,5.8 24.132,7.326C24.093,8.963 24.052,9.958 24.015,10.312C23.976,11.209 23.741,11.66 23.311,11.66C22.922,11.66 22.725,11.229 22.725,10.37C22.686,9.434 22.471,8.487 22.081,7.529C21.69,6.573 21.146,5.722 20.441,4.982C19.465,3.926 17.896,3.061 15.729,2.376C13.557,1.692 11.167,1.349 8.551,1.349C6.09,1.349 3.974,1.653 2.197,2.256C0.422,2.863 -1.132,3.771 -2.461,4.982C-4.451,6.816 -5.846,9.002 -6.647,11.54C-7.447,14.079 -7.85,16.95 -7.85,20.151C-7.85,23.471 -7.281,26.446 -6.147,29.082C-5.019,31.717 -3.534,33.914 -1.695,35.669C0.135,37.43 2.139,38.753 4.305,39.655C6.473,40.552 8.57,41.001 10.6,41.001C13.37,41.001 15.572,40.778 17.189,40.327C18.811,39.881 20.188,39.008 21.319,37.719C21.786,37.213 22.205,36.591 22.578,35.848C22.951,35.105 23.195,34.443 23.311,33.855C23.389,33.39 23.476,33.075 23.573,32.919C23.671,32.761 23.839,32.683 24.073,32.683C24.424,32.683 24.601,32.978 24.601,33.561C24.601,33.756 24.559,34.188 24.48,34.851C24.407,35.517 24.306,36.229 24.188,36.988C24.073,37.748 23.937,38.542 23.78,39.361C23.622,40.181 23.466,40.847 23.311,41.352C23.154,41.859 22.99,42.225 22.814,42.438C22.637,42.647 22.295,42.856 21.786,43.049C20.656,43.48 19.113,43.811 17.16,44.049C15.209,44.278 13.235,44.396 11.245,44.396C7.068,44.396 3.319,43.891 0,42.876" style="fill:currentColor;fill-rule:nonzero;"/>
                </g>
                <g transform="matrix(1,0,0,1,613.942,795.473)">
                    <path d="M0,0.21L0,-13.706C0,-14.633 -0.029,-15.449 -0.083,-16.15C-0.144,-16.91 -0.29,-17.469 -0.524,-17.817C-0.766,-18.167 -1.224,-18.415 -1.897,-18.558C-2.236,-18.642 -2.785,-18.686 -3.543,-18.686C-4.023,-18.686 -4.261,-18.808 -4.261,-19.064C-4.261,-19.316 -3.953,-19.44 -3.333,-19.44C-2.634,-19.44 -1.323,-19.413 0.588,-19.357C1.686,-19.33 2.402,-19.316 2.739,-19.316C9.233,-19.316 12.747,-19.33 13.281,-19.357C14.211,-19.469 14.815,-19.554 15.096,-19.612C15.149,-19.612 15.237,-19.637 15.35,-19.695C15.547,-19.752 15.684,-19.778 15.771,-19.778C15.939,-19.778 16.022,-19.652 16.022,-19.4C16.022,-19.342 16.008,-19.216 15.979,-19.019C15.84,-18.317 15.742,-17.53 15.684,-16.66C15.684,-16.631 15.674,-16.335 15.645,-15.773C15.615,-15.377 15.586,-15.008 15.557,-14.654C15.528,-14.302 15.503,-14.041 15.475,-13.875C15.419,-13.566 15.276,-13.411 15.053,-13.411C14.801,-13.411 14.674,-13.608 14.674,-14.002C14.674,-14.226 14.65,-14.478 14.61,-14.76C14.571,-15.042 14.507,-15.297 14.421,-15.518C14.252,-15.94 13.982,-16.273 13.62,-16.511C13.252,-16.748 12.58,-16.925 11.595,-17.037C11.428,-17.065 11.109,-17.087 10.644,-17.101C10.183,-17.113 9.515,-17.136 8.644,-17.165C7.349,-17.191 6.339,-17.209 5.607,-17.209C5.409,-17.209 5.314,-17.065 5.314,-16.788L5.314,-6.114C5.314,-5.805 5.409,-5.653 5.607,-5.653C6.873,-5.653 8.202,-5.658 9.592,-5.673C10.981,-5.688 11.903,-5.707 12.354,-5.736C13.394,-5.822 14.067,-6.031 14.379,-6.368C14.409,-6.397 14.421,-6.422 14.421,-6.455C14.703,-6.761 14.911,-6.917 15.053,-6.917C15.252,-6.917 15.35,-6.805 15.35,-6.58C15.35,-6.551 15.335,-6.422 15.306,-6.2C15.164,-5.44 15.066,-4.539 15.013,-3.5C14.983,-3.135 14.948,-2.639 14.904,-2.005C14.864,-1.373 14.843,-0.932 14.843,-0.676C14.843,-0.422 14.82,-0.227 14.776,-0.086C14.737,0.058 14.63,0.126 14.464,0.126C14.211,0.126 14.085,0 14.085,-0.256C14.085,-0.339 14.067,-0.466 14.042,-0.635C14.014,-1.112 13.97,-1.49 13.916,-1.772C13.801,-2.222 13.562,-2.588 13.198,-2.868C12.83,-3.149 12.28,-3.334 11.553,-3.417C11.384,-3.446 11.033,-3.466 10.499,-3.481C9.962,-3.495 9.344,-3.5 8.644,-3.5C7.295,-3.529 6.266,-3.542 5.563,-3.542C5.397,-3.542 5.314,-3.402 5.314,-3.12L5.314,6.746C5.339,7.533 5.417,8.144 5.544,8.581C5.671,9.016 5.912,9.359 6.261,9.615C6.612,9.864 7.103,10.043 7.736,10.14C8.368,10.24 9.246,10.291 10.373,10.291C11.217,10.291 11.967,10.262 12.629,10.203C13.289,10.149 13.857,10.008 14.335,9.781C14.872,9.528 15.286,9.164 15.581,8.688C15.876,8.208 16.091,7.533 16.232,6.663C16.318,6.241 16.474,6.03 16.698,6.03C16.838,6.03 16.93,6.084 16.974,6.197C17.014,6.31 17.037,6.506 17.037,6.791C17.037,7.014 17.018,7.33 16.993,7.737C16.964,8.144 16.915,8.621 16.847,9.17C16.771,9.718 16.713,10.184 16.654,10.561C16.601,10.94 16.542,11.242 16.488,11.469C16.345,12.003 16.149,12.318 15.896,12.416C15.645,12.514 15.081,12.566 14.211,12.566C12.521,12.566 11.104,12.552 9.952,12.522C8.797,12.493 7.393,12.454 5.734,12.393C4.243,12.34 3.176,12.313 2.529,12.313C2.303,12.313 1.642,12.325 0.549,12.354C-1.085,12.41 -2.194,12.439 -2.785,12.439C-3.344,12.439 -3.629,12.296 -3.629,12.017C-3.629,11.794 -3.402,11.68 -2.951,11.68C-2.446,11.68 -1.941,11.625 -1.436,11.513C-1.041,11.423 -0.766,11.201 -0.614,10.835C-0.46,10.47 -0.324,9.923 -0.212,9.193C-0.129,8.377 -0.07,7.301 -0.043,5.967C-0.015,4.634 0,2.712 0,0.21Z" style="fill:currentColor;fill-rule:nonzero;"/>
                </g>
                <g transform="matrix(1,0,0,1,652.311,781.558)">
                    <path d="M0,20.617C0.029,22.167 0.171,23.289 0.427,23.991C0.678,24.694 1.029,25.133 1.479,25.299C2.039,25.496 2.771,25.595 3.673,25.595C4.149,25.595 4.388,25.709 4.388,25.932C4.388,26.211 4.065,26.354 3.417,26.354C2.237,26.354 0.888,26.325 -0.627,26.269C-1.161,26.24 -1.558,26.228 -1.81,26.228C-1.924,26.228 -2.161,26.24 -2.528,26.269C-2.922,26.269 -3.491,26.282 -4.236,26.308C-4.979,26.34 -5.689,26.354 -6.364,26.354C-6.981,26.354 -7.291,26.211 -7.291,25.932C-7.291,25.709 -7.067,25.595 -6.619,25.595C-5.83,25.595 -5.199,25.525 -4.722,25.384C-4.187,25.214 -3.839,24.779 -3.688,24.075C-3.534,23.372 -3.44,22.069 -3.412,20.156L-3.03,-4.81C-3.03,-5.766 -2.849,-6.242 -2.484,-6.242C-2.231,-6.242 -1.839,-5.946 -1.305,-5.359C-1.161,-5.188 -1.038,-5.047 -0.924,-4.937C-0.897,-4.907 -0.397,-4.383 0.573,-3.355C1.542,-2.328 2.559,-1.244 3.629,-0.107C4.697,1.03 6.019,2.411 7.595,4.025C9.167,5.64 10.687,7.164 12.148,8.6C12.794,9.247 13.489,9.959 14.233,10.731C14.978,11.503 16.362,12.944 18.389,15.052C19.317,16.037 20.018,16.775 20.499,17.268C20.976,17.756 21.283,18.075 21.425,18.215L21.637,18.215L21.215,-0.718C21.186,-1.986 21.064,-2.878 20.856,-3.398C20.646,-3.917 20.286,-4.29 19.778,-4.515C19.528,-4.628 19.211,-4.697 18.83,-4.727C18.452,-4.752 18.022,-4.771 17.547,-4.771C17.096,-4.771 16.87,-4.893 16.87,-5.149C16.87,-5.285 16.962,-5.383 17.146,-5.442C17.327,-5.498 17.601,-5.525 17.969,-5.525C18.896,-5.525 20.104,-5.498 21.593,-5.442C22.298,-5.415 22.788,-5.401 23.068,-5.401C23.154,-5.401 23.407,-5.415 23.827,-5.442C25.149,-5.498 26.275,-5.525 27.2,-5.525C27.539,-5.525 27.785,-5.498 27.941,-5.442C28.093,-5.383 28.171,-5.285 28.171,-5.149C28.171,-4.893 27.922,-4.771 27.412,-4.771C26.907,-4.771 26.485,-4.727 26.146,-4.643C25.559,-4.474 25.156,-4.127 24.946,-3.608C24.734,-3.088 24.617,-2.236 24.588,-1.057L24.127,25.553C24.127,26.423 23.937,26.859 23.573,26.859C23.376,26.859 23.166,26.781 22.942,26.628C22.72,26.471 22.451,26.24 22.142,25.932C21.495,25.315 20.574,24.408 19.381,23.211C18.185,22.016 16.827,20.661 15.312,19.141C12.584,16.39 10.712,14.517 9.702,13.532C8.829,12.692 7.945,11.793 7.046,10.835C6.146,9.881 5.324,9.008 4.576,8.218C3.834,7.432 3.032,6.577 2.174,5.649C1.319,4.722 0.79,4.144 0.593,3.918C0,3.272 -0.307,2.937 -0.334,2.908L-0.461,2.908L0,20.617Z" style="fill:currentColor;fill-rule:nonzero;"/>
                </g>
                <g transform="matrix(1,0,0,1,704.855,804.959)">
                    <path d="M0,-26.564L-6.283,-26.397C-7.548,-26.339 -8.47,-26.235 -9.046,-26.081C-9.619,-25.926 -10.065,-25.623 -10.372,-25.176C-10.736,-24.613 -10.978,-24.12 -11.09,-23.701C-11.173,-23.362 -11.331,-23.193 -11.555,-23.193C-11.807,-23.193 -11.934,-23.418 -11.934,-23.867C-11.934,-24.009 -11.899,-24.303 -11.828,-24.754C-11.756,-25.201 -11.658,-25.75 -11.536,-26.397C-11.406,-27.043 -11.294,-27.585 -11.196,-28.022C-11.1,-28.459 -11.05,-28.687 -11.05,-28.717C-10.936,-29.251 -10.766,-29.517 -10.541,-29.517C-10.458,-29.517 -10.304,-29.477 -10.08,-29.392C-9.6,-29.168 -9.152,-29.041 -8.73,-29.016C-8.139,-28.956 -7.465,-28.907 -6.707,-28.866C-5.945,-28.824 -5.214,-28.802 -4.514,-28.802L12.187,-28.802C13.086,-28.802 14.042,-28.873 15.057,-29.016L15.099,-29.016L15.562,-29.099C15.925,-29.182 16.149,-29.222 16.235,-29.222C16.461,-29.222 16.571,-28.926 16.571,-28.338C16.571,-28.085 16.56,-27.353 16.532,-26.147C16.474,-24.766 16.446,-23.867 16.446,-23.445C16.391,-22.998 16.262,-22.769 16.066,-22.769C15.784,-22.769 15.63,-23.052 15.604,-23.617L15.562,-24.081C15.503,-24.725 15.086,-25.274 14.317,-25.725C13.542,-26.171 12.301,-26.412 10.586,-26.441L5.271,-26.564L5.271,-9.277C5.271,-6.775 5.285,-4.853 5.314,-3.52C5.339,-2.186 5.397,-1.098 5.481,-0.253C5.567,0.421 5.712,0.949 5.923,1.329C6.139,1.707 6.535,1.936 7.126,2.026C7.437,2.05 7.786,2.089 8.18,2.129C8.575,2.172 8.94,2.193 9.276,2.193C9.724,2.193 9.952,2.307 9.952,2.531C9.952,2.809 9.684,2.953 9.149,2.953C7.999,2.953 6.467,2.923 4.554,2.868C3.598,2.838 2.924,2.827 2.529,2.827C2.305,2.827 1.646,2.838 0.549,2.868C-1.083,2.923 -2.192,2.953 -2.785,2.953C-3.349,2.953 -3.626,2.809 -3.626,2.531C-3.626,2.307 -3.402,2.193 -2.951,2.193C-2.446,2.193 -1.941,2.138 -1.435,2.026C-1.039,1.936 -0.761,1.707 -0.591,1.329C-0.422,0.949 -0.295,0.407 -0.212,-0.293C-0.127,-1.11 -0.071,-2.186 -0.044,-3.52C-0.015,-4.853 0,-6.775 0,-9.277L0,-26.564Z" style="fill:currentColor;fill-rule:nonzero;"/>
                </g>
                <g transform="matrix(1,0,0,1,738.549,795.473)">
                    <path d="M0,0.21L0,-13.706C0,-14.633 -0.029,-15.449 -0.085,-16.15C-0.144,-16.91 -0.29,-17.469 -0.524,-17.817C-0.766,-18.167 -1.224,-18.415 -1.897,-18.558C-2.236,-18.642 -2.785,-18.686 -3.541,-18.686C-4.021,-18.686 -4.26,-18.808 -4.26,-19.064C-4.26,-19.316 -3.953,-19.44 -3.333,-19.44C-2.629,-19.44 -1.324,-19.413 0.588,-19.357C1.686,-19.33 2.402,-19.316 2.739,-19.316C9.233,-19.316 12.746,-19.33 13.28,-19.357C14.209,-19.469 14.815,-19.554 15.095,-19.612C15.148,-19.612 15.235,-19.637 15.35,-19.695C15.546,-19.752 15.687,-19.778 15.77,-19.778C15.938,-19.778 16.021,-19.652 16.021,-19.4C16.021,-19.342 16.009,-19.216 15.982,-19.019C15.84,-18.317 15.742,-17.53 15.687,-16.66C15.687,-16.631 15.672,-16.335 15.644,-15.773C15.614,-15.377 15.585,-15.008 15.561,-14.654C15.531,-14.302 15.502,-14.041 15.473,-13.875C15.418,-13.566 15.279,-13.411 15.053,-13.411C14.801,-13.411 14.673,-13.608 14.673,-14.002C14.673,-14.226 14.652,-14.478 14.611,-14.76C14.57,-15.042 14.504,-15.297 14.421,-15.518C14.251,-15.94 13.984,-16.273 13.619,-16.511C13.255,-16.748 12.58,-16.925 11.595,-17.037C11.427,-17.065 11.114,-17.087 10.648,-17.101C10.185,-17.113 9.514,-17.136 8.642,-17.165C7.351,-17.191 6.339,-17.209 5.607,-17.209C5.409,-17.209 5.314,-17.065 5.314,-16.788L5.314,-6.114C5.314,-5.805 5.409,-5.653 5.607,-5.653C6.873,-5.653 8.202,-5.658 9.593,-5.673C10.98,-5.688 11.902,-5.707 12.354,-5.736C13.394,-5.822 14.067,-6.031 14.379,-6.368C14.406,-6.397 14.421,-6.422 14.421,-6.455C14.702,-6.761 14.911,-6.917 15.053,-6.917C15.252,-6.917 15.35,-6.805 15.35,-6.58C15.35,-6.551 15.333,-6.422 15.306,-6.2C15.163,-5.44 15.065,-4.539 15.012,-3.5C14.982,-3.135 14.948,-2.639 14.909,-2.005C14.864,-1.373 14.84,-0.932 14.84,-0.676C14.84,-0.422 14.82,-0.227 14.776,-0.086C14.736,0.058 14.629,0.126 14.463,0.126C14.209,0.126 14.085,0 14.085,-0.256C14.085,-0.339 14.067,-0.466 14.041,-0.635C14.012,-1.112 13.97,-1.49 13.916,-1.772C13.8,-2.222 13.561,-2.588 13.197,-2.868C12.833,-3.149 12.285,-3.334 11.553,-3.417C11.383,-3.446 11.033,-3.466 10.499,-3.481C9.966,-3.495 9.344,-3.5 8.642,-3.5C7.295,-3.529 6.268,-3.542 5.563,-3.542C5.395,-3.542 5.314,-3.402 5.314,-3.12L5.314,6.746C5.341,7.533 5.419,8.144 5.544,8.581C5.671,9.016 5.909,9.359 6.261,9.615C6.612,9.864 7.103,10.043 7.736,10.14C8.371,10.24 9.248,10.291 10.373,10.291C11.217,10.291 11.966,10.262 12.629,10.203C13.289,10.149 13.859,10.008 14.335,9.781C14.869,9.528 15.284,9.164 15.58,8.688C15.874,8.208 16.092,7.533 16.235,6.663C16.318,6.241 16.473,6.03 16.698,6.03C16.838,6.03 16.931,6.084 16.973,6.197C17.013,6.31 17.033,6.506 17.033,6.791C17.033,7.014 17.022,7.33 16.992,7.737C16.963,8.144 16.914,8.621 16.845,9.17C16.774,9.718 16.713,10.184 16.654,10.561C16.601,10.94 16.541,11.242 16.487,11.469C16.348,12.003 16.149,12.318 15.896,12.416C15.644,12.514 15.08,12.566 14.209,12.566C12.521,12.566 11.104,12.552 9.951,12.522C8.8,12.493 7.393,12.454 5.736,12.393C4.244,12.34 3.176,12.313 2.529,12.313C2.303,12.313 1.642,12.325 0.549,12.354C-1.085,12.41 -2.192,12.439 -2.785,12.439C-3.344,12.439 -3.629,12.296 -3.629,12.017C-3.629,11.794 -3.403,11.68 -2.952,11.68C-2.447,11.68 -1.94,11.625 -1.436,11.513C-1.039,11.423 -0.766,11.201 -0.614,10.835C-0.456,10.47 -0.324,9.923 -0.212,9.193C-0.129,8.377 -0.068,7.301 -0.039,5.967C-0.015,4.634 0,2.712 0,0.21Z" style="fill:currentColor;fill-rule:nonzero;"/>
                </g>
                <g transform="matrix(1,0,0,1,779.535,792.353)">
                    <path d="M0,-0.761C0,-0.365 0.129,-0.116 0.378,0C0.803,0.139 1.3,0.242 1.876,0.315C2.453,0.384 3.021,0.422 3.585,0.422C4.399,0.422 5.004,0.369 5.399,0.271C5.793,0.174 6.183,-0.015 6.58,-0.297C7.312,-0.831 7.909,-1.616 8.372,-2.658C8.836,-3.699 9.065,-5.019 9.065,-6.621C9.065,-8.028 8.86,-9.236 8.456,-10.25C8.046,-11.26 7.512,-12.07 6.855,-12.672C6.192,-13.276 5.489,-13.707 4.746,-13.957C4.002,-14.215 3.29,-14.339 2.614,-14.339C1.492,-14.339 0.742,-14.281 0.378,-14.173C0.129,-14.089 0,-13.888 0,-13.579L0,-0.761ZM-4.977,3.33L-4.977,-10.586C-4.977,-11.513 -5.006,-12.329 -5.06,-13.031C-5.116,-13.79 -5.265,-14.349 -5.501,-14.698C-5.743,-15.047 -6.199,-15.295 -6.874,-15.438C-7.212,-15.522 -7.762,-15.566 -8.519,-15.566C-8.996,-15.566 -9.237,-15.688 -9.237,-15.944C-9.237,-16.196 -8.926,-16.32 -8.307,-16.32C-7.718,-16.32 -7.162,-16.315 -6.643,-16.3C-6.123,-16.285 -5.313,-16.266 -4.216,-16.237C-3.23,-16.21 -2.671,-16.196 -2.529,-16.196C-2.024,-16.196 -0.985,-16.222 0.591,-16.281C2.08,-16.305 3.021,-16.32 3.415,-16.32C4.992,-16.32 6.416,-16.196 7.696,-15.944C8.975,-15.688 10.134,-15.21 11.175,-14.511C11.879,-14.031 12.531,-13.274 13.136,-12.231C13.738,-11.192 14.043,-10.025 14.043,-8.731C14.043,-7.072 13.628,-5.499 12.797,-4.009C11.968,-2.519 10.53,-0.946 8.478,0.715L9.953,2.571C13.636,7.209 16.194,10.288 17.626,11.808C18.637,12.847 19.52,13.555 20.264,13.935C21.008,14.313 21.688,14.559 22.31,14.672L22.349,14.672C22.829,14.758 23.22,14.8 23.529,14.8C23.868,14.8 24.039,14.914 24.039,15.137C24.039,15.416 23.771,15.559 23.236,15.559L19.229,15.559C18.048,15.559 17.141,15.504 16.511,15.389C15.876,15.279 15.277,15.069 14.719,14.758C13.875,14.308 13.033,13.618 12.187,12.691C11.346,11.764 10.263,10.386 8.938,8.56C8.375,7.8 7.663,6.787 6.792,5.522C6.002,4.425 5.507,3.727 5.29,3.434C5.08,3.139 4.905,2.908 4.766,2.737C4.595,2.542 4.346,2.444 4.007,2.444L0.339,2.359C0.114,2.359 0,2.473 0,2.698L0,3.286C0,5.786 0.013,7.714 0.042,9.065C0.071,10.416 0.129,11.497 0.212,12.313C0.295,13.013 0.441,13.555 0.653,13.935C0.863,14.313 1.266,14.543 1.858,14.633C2.195,14.657 2.556,14.696 2.932,14.736C3.31,14.779 3.639,14.8 3.924,14.8C4.261,14.8 4.429,14.914 4.429,15.137C4.429,15.416 4.148,15.559 3.585,15.559C3.021,15.559 2.434,15.554 1.814,15.536C1.195,15.523 0.169,15.504 -1.264,15.474C-1.966,15.445 -2.417,15.433 -2.617,15.433C-2.841,15.433 -3.417,15.445 -4.343,15.474C-5.863,15.53 -7.001,15.559 -7.762,15.559C-8.32,15.559 -8.602,15.416 -8.602,15.137C-8.602,14.914 -8.379,14.8 -7.928,14.8C-7.423,14.8 -6.918,14.745 -6.408,14.633C-6.016,14.543 -5.743,14.321 -5.589,13.955C-5.433,13.59 -5.3,13.043 -5.185,12.313C-5.104,11.497 -5.046,10.421 -5.017,9.087C-4.991,7.754 -4.977,5.832 -4.977,3.33Z" style="fill:currentColor;fill-rule:nonzero;"/>
                </g>
                <g transform="matrix(1,0,0,1,815.63,775.694)">
                    <path d="M0,32.555C-0.981,32.384 -1.927,32.104 -2.824,31.713C-3.161,31.573 -3.378,31.409 -3.476,31.228C-3.573,31.045 -3.622,30.726 -3.622,30.277C-3.622,29.433 -3.603,28.54 -3.563,27.599C-3.52,26.658 -3.471,25.75 -3.413,24.88L-3.413,24.755C-3.358,24.022 -3.188,23.657 -2.907,23.657C-2.741,23.657 -2.627,23.719 -2.571,23.848C-2.515,23.976 -2.485,24.152 -2.485,24.372C-2.485,24.627 -2.451,24.951 -2.383,25.343C-2.311,25.739 -2.22,26.133 -2.107,26.525C-1.656,27.987 -0.893,29.06 0.192,29.752C1.275,30.438 2.519,30.782 3.923,30.782C5.693,30.782 7.081,30.291 8.077,29.307C9.076,28.325 9.572,27.214 9.572,25.976C9.572,24.794 9.291,23.686 8.732,22.642C8.169,21.603 7.071,20.464 5.442,19.23L3.501,17.71C1.251,15.94 -0.35,14.269 -1.305,12.694C-2.259,11.12 -2.741,9.464 -2.741,7.718C-2.741,5.384 -1.839,3.472 -0.04,1.985C1.758,0.491 4.106,-0.252 7.003,-0.252C8.213,-0.252 9.257,-0.182 10.143,-0.044C11.029,0.098 11.852,0.264 12.61,0.463C13.003,0.548 13.201,0.715 13.201,0.971C13.201,1.083 13.186,1.307 13.159,1.646C13.13,2.206 13.101,2.854 13.076,3.584C13.047,4.315 13.032,5.131 13.032,6.031C13.032,6.874 12.878,7.296 12.566,7.296C12.288,7.296 12.147,7.043 12.147,6.535C12.147,6.228 12.062,5.806 11.893,5.271C11.723,4.737 11.444,4.232 11.052,3.751C10.601,3.193 10.022,2.707 9.323,2.3C8.62,1.893 7.664,1.687 6.452,1.687C4.937,1.687 3.723,2.087 2.805,2.888C1.893,3.69 1.437,4.737 1.437,6.031C1.437,7.016 1.751,7.948 2.387,8.835C3.016,9.721 4.188,10.811 5.906,12.101L7.086,12.989C9.615,14.956 11.4,16.742 12.442,18.342C13.483,19.945 14.003,21.744 14.003,23.74C14.003,25.118 13.692,26.453 13.076,27.745C12.454,29.041 11.444,30.151 10.037,31.077C9.055,31.697 7.999,32.14 6.874,32.409C5.752,32.674 4.57,32.807 3.335,32.807C2.094,32.807 0.985,32.723 0,32.555" style="fill:currentColor;fill-rule:nonzero;"/>
                </g>
            </g>
            <g transform="matrix(1,0,0,1,-3.90373,0)">
                <g transform="matrix(441.758,0,0,-441.758,266.115,419.78)">
                    <path d="M0.498,0.501C0.222,0.499 -0.001,0.275 0,0C0.001,-0.276 0.225,-0.5 0.501,-0.499C0.771,-0.499 1.001,-0.277 1,0.001C0.999,0.277 0.776,0.501 0.501,0.501C0.5,0.501 0.499,0.501 0.498,0.501ZM0.426,0.466C0.485,0.477 0.542,0.475 0.6,0.461C0.66,0.45 0.714,0.426 0.764,0.391L0.763,0.391C0.796,0.37 0.826,0.346 0.85,0.315L0.851,0.315C0.924,0.236 0.962,0.142 0.97,0.036C0.972,0.019 0.973,0.002 0.971,-0.016C0.972,-0.026 0.972,-0.036 0.969,-0.045C0.937,-0.128 0.897,-0.204 0.826,-0.261C0.78,-0.298 0.729,-0.313 0.671,-0.305C0.619,-0.298 0.59,-0.266 0.581,-0.211C0.581,-0.207 0.581,-0.203 0.58,-0.2C0.579,-0.196 0.579,-0.192 0.578,-0.188C0.577,-0.177 0.577,-0.166 0.577,-0.155C0.578,-0.092 0.607,-0.054 0.66,-0.051C0.661,-0.05 0.662,-0.05 0.664,-0.051C0.686,-0.048 0.704,-0.055 0.72,-0.071C0.74,-0.092 0.76,-0.112 0.78,-0.132C0.786,-0.132 0.792,-0.131 0.797,-0.131C0.808,-0.115 0.793,-0.107 0.785,-0.095C0.791,-0.091 0.797,-0.092 0.803,-0.092C0.808,-0.093 0.813,-0.094 0.818,-0.091C0.82,-0.089 0.821,-0.087 0.823,-0.085C0.823,-0.061 0.802,-0.061 0.79,-0.065C0.756,-0.077 0.741,-0.05 0.721,-0.035C0.714,-0.03 0.717,-0.027 0.723,-0.023C0.744,-0.009 0.77,-0.013 0.786,-0.033C0.797,-0.046 0.811,-0.054 0.826,-0.06C0.833,-0.063 0.84,-0.063 0.844,-0.056C0.848,-0.048 0.846,-0.041 0.838,-0.036C0.827,-0.029 0.812,-0.025 0.807,-0.01C0.812,-0.004 0.819,-0.005 0.826,-0.004C0.849,0.001 0.851,0.004 0.835,0.023C0.828,0.031 0.836,0.032 0.839,0.036C0.844,0.041 0.846,0.048 0.841,0.054C0.835,0.062 0.825,0.062 0.82,0.056C0.793,0.02 0.753,0.012 0.712,0.003C0.697,-0 0.69,-0.018 0.674,-0.02C0.659,-0.022 0.644,-0.024 0.629,-0.026C0.574,-0.048 0.552,-0.092 0.549,-0.148C0.547,-0.195 0.552,-0.239 0.581,-0.28C0.612,-0.324 0.654,-0.336 0.704,-0.334C0.784,-0.332 0.844,-0.292 0.895,-0.234C0.902,-0.225 0.91,-0.216 0.919,-0.205C0.92,-0.22 0.912,-0.228 0.907,-0.237C0.882,-0.28 0.852,-0.319 0.814,-0.351C0.734,-0.421 0.591,-0.388 0.558,-0.287C0.524,-0.183 0.535,-0.081 0.594,0.014C0.597,0.018 0.6,0.022 0.603,0.027C0.633,0.07 0.661,0.08 0.708,0.064C0.717,0.061 0.716,0.053 0.72,0.048C0.726,0.039 0.732,0.027 0.745,0.035C0.756,0.041 0.751,0.049 0.747,0.058C0.741,0.07 0.755,0.082 0.774,0.081C0.789,0.08 0.804,0.078 0.82,0.081C0.83,0.083 0.842,0.083 0.841,0.097C0.84,0.111 0.828,0.111 0.818,0.109C0.814,0.108 0.81,0.107 0.806,0.108C0.8,0.108 0.791,0.107 0.789,0.111C0.785,0.117 0.792,0.123 0.795,0.129C0.797,0.132 0.8,0.135 0.803,0.138C0.808,0.144 0.811,0.151 0.804,0.158C0.797,0.164 0.789,0.163 0.783,0.157C0.775,0.15 0.77,0.143 0.756,0.147C0.743,0.15 0.739,0.138 0.744,0.127C0.754,0.107 0.745,0.1 0.728,0.096C0.709,0.091 0.684,0.084 0.673,0.099C0.662,0.113 0.678,0.133 0.687,0.149C0.699,0.17 0.714,0.185 0.743,0.174C0.762,0.167 0.782,0.175 0.8,0.181C0.809,0.183 0.816,0.189 0.813,0.199C0.809,0.211 0.797,0.211 0.789,0.206C0.776,0.198 0.764,0.197 0.75,0.202C0.753,0.215 0.767,0.224 0.761,0.239C0.757,0.241 0.753,0.243 0.748,0.245C0.711,0.199 0.647,0.174 0.64,0.104C0.64,0.101 0.637,0.096 0.634,0.094C0.548,0.036 0.523,-0.053 0.514,-0.149C0.511,-0.189 0.514,-0.228 0.52,-0.267C0.523,-0.277 0.526,-0.288 0.53,-0.299C0.531,-0.3 0.532,-0.302 0.533,-0.304C0.535,-0.31 0.537,-0.315 0.54,-0.321C0.547,-0.331 0.561,-0.353 0.561,-0.353C0.602,-0.398 0.655,-0.414 0.715,-0.416C0.69,-0.432 0.665,-0.443 0.637,-0.45C0.633,-0.451 0.628,-0.452 0.624,-0.453C0.622,-0.454 0.62,-0.455 0.618,-0.456C0.615,-0.456 0.612,-0.457 0.608,-0.457C0.578,-0.467 0.547,-0.47 0.516,-0.47C0.506,-0.47 0.497,-0.47 0.487,-0.47L0.485,-0.47L0.483,-0.47C0.48,-0.47 0.476,-0.47 0.473,-0.47C0.469,-0.471 0.465,-0.47 0.462,-0.467C0.45,-0.469 0.438,-0.467 0.426,-0.465C0.424,-0.464 0.422,-0.463 0.42,-0.463L0.419,-0.463L0.418,-0.462C0.41,-0.463 0.402,-0.462 0.394,-0.458C0.391,-0.457 0.388,-0.457 0.385,-0.456C0.383,-0.455 0.381,-0.454 0.38,-0.453L0.38,-0.454C0.345,-0.448 0.313,-0.433 0.276,-0.414C0.304,-0.412 0.326,-0.411 0.347,-0.409C0.357,-0.407 0.366,-0.404 0.376,-0.402C0.398,-0.39 0.42,-0.377 0.439,-0.359C0.441,-0.356 0.444,-0.354 0.446,-0.351C0.467,-0.321 0.479,-0.288 0.488,-0.253C0.488,-0.25 0.489,-0.246 0.489,-0.243C0.49,-0.241 0.491,-0.238 0.492,-0.236L0.49,-0.236L0.491,-0.234C0.494,-0.167 0.493,-0.1 0.468,-0.036C0.449,0.014 0.423,0.059 0.379,0.091C0.378,0.091 0.377,0.091 0.376,0.092C0.363,0.095 0.365,0.108 0.362,0.117C0.35,0.155 0.334,0.19 0.293,0.207C0.282,0.212 0.277,0.225 0.27,0.235C0.264,0.243 0.256,0.246 0.248,0.24C0.24,0.234 0.243,0.227 0.246,0.219C0.249,0.214 0.257,0.209 0.252,0.203C0.248,0.198 0.24,0.2 0.233,0.201C0.22,0.204 0.207,0.206 0.194,0.209C0.192,0.207 0.189,0.205 0.186,0.202C0.186,0.2 0.185,0.197 0.185,0.194C0.186,0.191 0.188,0.188 0.19,0.184C0.218,0.175 0.246,0.166 0.275,0.178C0.287,0.183 0.295,0.175 0.302,0.169C0.32,0.153 0.329,0.131 0.335,0.109C0.338,0.099 0.334,0.096 0.326,0.095C0.309,0.091 0.292,0.091 0.275,0.095C0.258,0.099 0.245,0.105 0.255,0.126C0.256,0.128 0.255,0.131 0.255,0.133C0.255,0.138 0.252,0.144 0.247,0.142C0.238,0.138 0.231,0.145 0.224,0.151C0.215,0.161 0.205,0.17 0.191,0.151L0.19,0.15C0.193,0.146 0.196,0.141 0.199,0.137C0.205,0.129 0.216,0.12 0.212,0.112C0.205,0.101 0.191,0.108 0.18,0.11C0.156,0.107 0.154,0.102 0.166,0.082C0.186,0.08 0.205,0.079 0.224,0.08C0.248,0.082 0.255,0.073 0.25,0.051C0.248,0.044 0.249,0.038 0.255,0.034C0.263,0.03 0.271,0.032 0.273,0.038C0.286,0.075 0.32,0.062 0.345,0.07C0.359,0.074 0.37,0.062 0.379,0.054C0.411,0.026 0.429,-0.009 0.443,-0.048C0.467,-0.118 0.473,-0.19 0.455,-0.263C0.435,-0.346 0.381,-0.385 0.296,-0.385C0.241,-0.386 0.197,-0.37 0.16,-0.328C0.117,-0.278 0.08,-0.225 0.061,-0.16C0.077,-0.181 0.092,-0.203 0.109,-0.223C0.155,-0.278 0.21,-0.321 0.282,-0.332C0.371,-0.346 0.431,-0.302 0.448,-0.214C0.455,-0.175 0.455,-0.137 0.442,-0.099C0.426,-0.052 0.389,-0.024 0.339,-0.022C0.327,-0.022 0.317,-0.02 0.308,-0.01C0.297,0.002 0.282,0.009 0.267,0.007C0.234,0.003 0.214,0.021 0.193,0.041C0.183,0.051 0.172,0.06 0.157,0.05C0.157,0.046 0.158,0.041 0.158,0.037C0.162,0.034 0.169,0.033 0.168,0.027C0.168,0.021 0.161,0.023 0.158,0.022C0.148,0.002 0.159,-0.003 0.176,-0.004C0.181,-0.005 0.19,-0.003 0.192,-0.01C0.195,-0.018 0.186,-0.021 0.181,-0.025C0.174,-0.029 0.167,-0.033 0.161,-0.037C0.154,-0.041 0.152,-0.047 0.155,-0.055C0.159,-0.063 0.166,-0.064 0.173,-0.061C0.192,-0.054 0.207,-0.043 0.219,-0.027C0.229,-0.012 0.269,-0.012 0.281,-0.025C0.283,-0.029 0.283,-0.031 0.281,-0.033C0.272,-0.05 0.238,-0.066 0.217,-0.064C0.21,-0.064 0.202,-0.065 0.194,-0.065C0.185,-0.066 0.177,-0.07 0.178,-0.081C0.179,-0.091 0.187,-0.094 0.197,-0.093C0.201,-0.093 0.206,-0.093 0.21,-0.092C0.213,-0.1 0.208,-0.103 0.204,-0.107C0.198,-0.115 0.196,-0.123 0.204,-0.129C0.212,-0.136 0.22,-0.132 0.227,-0.125C0.243,-0.108 0.262,-0.093 0.277,-0.074C0.316,-0.026 0.396,-0.052 0.412,-0.1C0.432,-0.156 0.43,-0.212 0.399,-0.263C0.373,-0.305 0.314,-0.319 0.257,-0.297C0.188,-0.272 0.138,-0.223 0.098,-0.162C0.086,-0.144 0.074,-0.126 0.068,-0.105C0.049,-0.063 0.026,-0.023 0.03,0.026C0.031,0.039 0.032,0.051 0.033,0.063C0.035,0.075 0.037,0.087 0.039,0.098C0.041,0.104 0.042,0.109 0.043,0.115C0.044,0.117 0.044,0.118 0.045,0.12L0.045,0.12C0.046,0.135 0.051,0.148 0.058,0.162C0.059,0.165 0.06,0.168 0.061,0.171C0.062,0.173 0.063,0.175 0.064,0.176C0.065,0.181 0.067,0.185 0.069,0.189C0.085,0.231 0.108,0.268 0.138,0.301C0.142,0.309 0.148,0.315 0.155,0.32C0.174,0.344 0.197,0.364 0.222,0.38C0.227,0.387 0.234,0.391 0.241,0.394C0.26,0.408 0.279,0.42 0.301,0.427C0.304,0.428 0.307,0.43 0.31,0.431C0.338,0.446 0.368,0.456 0.399,0.46C0.405,0.465 0.413,0.464 0.421,0.464C0.423,0.465 0.424,0.465 0.426,0.466Z" style="fill:url(#_Linear1);fill-rule:nonzero;"/>
                </g>
                <g transform="matrix(1,0,0,1,596.607,402.012)">
                    <path d="M0,-98.718C-9.457,-86.588 -22.92,-87.649 -35.749,-88.95C-43.171,-89.701 -47.588,-86.886 -53.017,-82.766C-85.93,-57.793 -96.121,-21.713 -102.804,16.327C-104.63,26.724 -107.257,36.977 -110.946,47.375C-114.264,28.607 -117.966,9.894 -120.793,-8.951C-123.888,-29.607 -131.04,-47.861 -147.825,-61.35C-150.206,-63.262 -152.323,-65.592 -154.235,-67.989C-165.399,-81.968 -177.274,-93.618 -197.815,-88.829C-203.545,-87.492 -210.077,-90.183 -214.986,-94.314C-218.031,-96.877 -219.926,-100.544 -217.421,-104.309C-214.675,-108.44 -211.324,-106.798 -207.686,-104.668C-197.105,-98.483 -195.346,-99.229 -195.211,-108.992C-194.821,-109.2 -194.73,-109.499 -194.942,-109.888C-191.73,-112.401 -188.319,-113.429 -184.477,-111.323C-183.568,-110.469 -181.954,-108.803 -181.858,-108.888C-179.981,-110.518 -180.943,-112.29 -181.873,-114.024C-182.404,-117.838 -182.935,-121.657 -183.467,-125.474C-183.013,-125.881 -182.778,-126.392 -182.76,-127.002C-176.49,-130.495 -172.316,-129.054 -170.6,-121.833C-170.046,-119.503 -169.033,-117.182 -168.992,-114.843C-168.691,-97.327 -156.025,-87.075 -145.929,-75.345C-144.014,-73.12 -139.464,-70.271 -139.707,-75.521C-140.28,-87.878 -131.255,-101.791 -145.574,-112.453C-151.375,-116.776 -153.288,-124.396 -154.583,-131.606C-154.584,-132.981 -154.589,-134.356 -154.592,-135.729C-154.358,-137.103 -154.123,-138.478 -153.89,-139.854C-153.89,-139.854 -153.649,-140.392 -153.649,-140.393C-146.019,-145.311 -142.08,-143.203 -141.959,-134.154C-141.912,-130.632 -141.16,-127.332 -139.312,-124.374C-137.506,-121.48 -135.555,-117.501 -132.26,-117.464C-128.312,-117.421 -127.845,-122.171 -126.877,-125.234C-125.551,-129.425 -124.54,-133.828 -124.247,-138.201C-123.96,-142.464 -123.222,-145.952 -118.259,-145.929C-113.187,-145.906 -112.441,-141.82 -112.205,-137.952C-111.713,-129.878 -114.474,-122.48 -117.515,-115.199C-120.396,-108.305 -124.033,-101.881 -125.776,-94.34C-132.247,-66.335 -116.068,-43.919 -108.425,-19.155C-103.921,-35.792 -94.79,-50.679 -93.077,-67.905C-92.125,-74.789 -92.01,-81.669 -93.176,-88.545C-93.317,-95.885 -95.507,-102.567 -98.922,-109.069C-103.548,-117.87 -107.753,-126.93 -107.205,-137.299C-106.98,-141.558 -106.574,-146.093 -100.823,-145.887C-96.033,-145.715 -94.736,-141.994 -94.877,-137.861C-95.082,-131.865 -93.326,-126.422 -90.98,-121.019C-88.966,-116.377 -86.79,-116.541 -83.533,-119.882C-79.165,-124.364 -77.525,-129.625 -77.625,-135.756C-77.688,-139.515 -76.087,-142.739 -71.863,-142.892C-66.973,-143.068 -65.69,-139.574 -65.43,-135.372C-64.893,-126.7 -67.049,-118.512 -73.453,-112.883C-81.032,-106.225 -83.93,-99.215 -80.581,-89.548C-79.721,-87.067 -80.365,-84.094 -80.053,-81.381C-79.841,-79.551 -81.123,-76.954 -78.44,-76.117C-76.354,-75.466 -74.572,-76.662 -73.004,-78.18C-68.114,-82.909 -65.334,-89.517 -59.525,-93.392C-53.926,-97.122 -51.556,-102.306 -51.236,-108.976C-51.045,-113.023 -49.862,-117.079 -48.727,-121.017C-46.087,-130.163 -43.103,-130.966 -35.181,-124.946C-35.164,-123.754 -35.147,-122.558 -35.13,-121.366C-36.208,-118.133 -37.284,-114.902 -38.495,-111.269C-33.871,-111.746 -30.543,-112.089 -27.214,-112.432L-27.318,-112.533C-26.036,-110.59 -24.367,-108.873 -24.492,-106.241C-24.904,-97.674 -21.269,-98.319 -15.439,-101.904C-11.657,-104.23 -8.328,-108.656 -2.802,-106.565C-0.976,-104.265 -0.062,-101.643 0,-98.718" style="fill:currentColor;"/>
                </g>
            </g>
        </g>
    </g>
    <defs>
        <linearGradient id="_Linear1" x1="0" y1="0" x2="1" y2="0" gradientUnits="userSpaceOnUse" gradientTransform="matrix(1,0,0,-1,0,0.000765549)"><stop offset="0" style="stop-color:rgb(0,147,121);stop-opacity:1"/><stop offset="1" style="stop-color:rgb(117,193,113);stop-opacity:1"/></linearGradient>
    </defs>
</svg>
